<?xml version="1.0" encoding="iso-8859-1"?>
<!-- Generator: Adobe Illustrator 19.0.0, SVG Export Plug-In . SVG Version: 6.00 Build 0)  -->
<svg version="1.1" id="Capa_1" xmlns="http://www.w3.org/2000/svg" xmlns:xlink="http://www.w3.org/1999/xlink" x="0px" y="0px"
	 viewBox="0 0 512 512" style="enable-background:new 0 0 512 512;" xml:space="preserve">
<g>
	<path style="fill:#A0C7E7;" d="M59.733,8.533h392.533c28.277,0,51.2,22.923,51.2,51.2v392.533c0,28.277-22.923,51.2-51.2,51.2
		H59.733c-28.277,0-51.2-22.923-51.2-51.2V59.733C8.533,31.456,31.456,8.533,59.733,8.533z"/>
	<g>
		<circle style="fill:#BDDCF3;" cx="72.533" cy="72.533" r="21.333"/>
		<circle style="fill:#BDDCF3;" cx="439.467" cy="72.533" r="21.333"/>
		<circle style="fill:#BDDCF3;" cx="72.533" cy="439.467" r="21.333"/>
		<circle style="fill:#BDDCF3;" cx="439.467" cy="439.467" r="21.333"/>
	</g>
	<path id="SVGCleanerId_0" style="fill:#BDDCF3;" d="M42.667,204.8c-3.451-0.001-6.562-2.08-7.882-5.268
		c-1.32-3.188-0.591-6.858,1.849-9.298l153.6-153.6c3.341-3.281,8.701-3.256,12.012,0.054c3.311,3.311,3.335,8.671,0.054,12.012
		L48.7,202.3C47.102,203.903,44.93,204.803,42.667,204.8z"/>
	<path id="SVGCleanerId_1" style="fill:#BDDCF3;" d="M42.667,264.533c-3.451-0.001-6.562-2.08-7.882-5.268
		c-1.32-3.188-0.591-6.858,1.849-9.298L249.967,36.634c3.341-3.281,8.701-3.256,12.012,0.054c3.311,3.311,3.335,8.671,0.054,12.012
		L48.7,262.033C47.102,263.636,44.93,264.536,42.667,264.533z"/>
	<path id="SVGCleanerId_2" style="fill:#BDDCF3;" d="M315.733,477.867c-3.451-0.001-6.562-2.08-7.882-5.268
		c-1.32-3.188-0.591-6.858,1.849-9.298l153.6-153.6c3.341-3.281,8.701-3.256,12.012,0.054c3.311,3.311,3.335,8.671,0.054,12.012
		l-153.6,153.6C320.168,476.969,317.997,477.869,315.733,477.867z"/>
	<path id="SVGCleanerId_3" style="fill:#BDDCF3;" d="M256,477.867c-3.451-0.001-6.562-2.08-7.882-5.268
		c-1.32-3.188-0.591-6.858,1.849-9.298L463.3,249.967c2.149-2.188,5.307-3.055,8.271-2.27c2.965,0.785,5.28,3.1,6.065,6.065
		c0.785,2.965-0.082,6.122-2.27,8.271L262.033,475.366C260.435,476.969,258.264,477.869,256,477.867z"/>
	<path style="fill:#008F9B;" d="M59.733,8.533h392.533c28.277,0,51.2,22.923,51.2,51.2v392.533c0,28.277-22.923,51.2-51.2,51.2
		H59.733c-28.277,0-51.2-22.923-51.2-51.2V59.733C8.533,31.456,31.456,8.533,59.733,8.533z"/>
	<path style="fill:#00C2D7;" d="M59.733,8.533H409.6c28.277,0,51.2,22.923,51.2,51.2v392.533c0,28.277-22.923,51.2-51.2,51.2H59.733
		c-28.277,0-51.2-22.923-51.2-51.2V59.733C8.533,31.456,31.456,8.533,59.733,8.533z"/>
	<g>
		<circle style="fill:#FFFFFF;" cx="72.533" cy="72.533" r="21.333"/>
		<circle style="fill:#FFFFFF;" cx="439.467" cy="72.533" r="21.333"/>
		<circle style="fill:#FFFFFF;" cx="72.533" cy="439.467" r="21.333"/>
		<circle style="fill:#FFFFFF;" cx="439.467" cy="439.467" r="21.333"/>
	</g>
	<g>
		<path id="SVGCleanerId_0_1_" style="fill:#BDDCF3;" d="M42.667,204.8c-3.451-0.001-6.562-2.08-7.882-5.268
			c-1.32-3.188-0.591-6.858,1.849-9.298l153.6-153.6c3.341-3.281,8.701-3.256,12.012,0.054c3.311,3.311,3.335,8.671,0.054,12.012
			L48.7,202.3C47.102,203.903,44.93,204.803,42.667,204.8z"/>
	</g>
	<g>
		<path id="SVGCleanerId_1_1_" style="fill:#BDDCF3;" d="M42.667,264.533c-3.451-0.001-6.562-2.08-7.882-5.268
			c-1.32-3.188-0.591-6.858,1.849-9.298L249.967,36.634c3.341-3.281,8.701-3.256,12.012,0.054c3.311,3.311,3.335,8.671,0.054,12.012
			L48.7,262.033C47.102,263.636,44.93,264.536,42.667,264.533z"/>
	</g>
	<g>
		<path id="SVGCleanerId_2_1_" style="fill:#BDDCF3;" d="M315.733,477.867c-3.451-0.001-6.562-2.08-7.882-5.268
			c-1.32-3.188-0.591-6.858,1.849-9.298l153.6-153.6c3.341-3.281,8.701-3.256,12.012,0.054c3.311,3.311,3.335,8.671,0.054,12.012
			l-153.6,153.6C320.168,476.969,317.997,477.869,315.733,477.867z"/>
	</g>
	<g>
		<path id="SVGCleanerId_3_1_" style="fill:#BDDCF3;" d="M256,477.867c-3.451-0.001-6.562-2.08-7.882-5.268
			c-1.32-3.188-0.591-6.858,1.849-9.298L463.3,249.967c2.149-2.188,5.307-3.055,8.271-2.27c2.965,0.785,5.28,3.1,6.065,6.065
			c0.785,2.965-0.082,6.122-2.27,8.271L262.033,475.366C260.435,476.969,258.264,477.869,256,477.867z"/>
	</g>
	<g>
		<path d="M452.267,0H59.733C26.759,0.037,0.037,26.759,0,59.733v392.533C0.037,485.241,26.759,511.963,59.733,512h392.533
			c32.974-0.037,59.696-26.759,59.733-59.733V59.733C511.963,26.759,485.241,0.037,452.267,0z M494.933,452.267
			c-0.028,23.553-19.114,42.639-42.667,42.667H59.733c-23.553-0.028-42.639-19.114-42.667-42.667V59.733
			c0.028-23.553,19.114-42.639,42.667-42.667h392.533c23.553,0.028,42.639,19.114,42.667,42.667V452.267z"/>
		<path d="M72.533,102.4c16.495,0,29.867-13.372,29.867-29.867S89.028,42.667,72.533,42.667S42.667,56.038,42.667,72.533
			C42.687,89.02,56.047,102.38,72.533,102.4L72.533,102.4z M72.533,59.733c7.069,0,12.8,5.731,12.8,12.8
			c0,7.069-5.731,12.8-12.8,12.8c-7.069,0-12.8-5.731-12.8-12.8C59.741,65.467,65.467,59.741,72.533,59.733z"/>
		<path d="M439.467,102.4c16.495,0,29.867-13.372,29.867-29.867s-13.372-29.867-29.867-29.867
			c-16.495,0-29.867,13.372-29.867,29.867C409.62,89.02,422.98,102.38,439.467,102.4L439.467,102.4z M439.467,59.733
			c7.069,0,12.8,5.731,12.8,12.8c0,7.069-5.731,12.8-12.8,12.8c-7.069,0-12.8-5.731-12.8-12.8
			C426.674,65.467,432.401,59.741,439.467,59.733L439.467,59.733z"/>
		<path d="M72.533,409.6c-16.495,0-29.867,13.372-29.867,29.867c0,16.495,13.372,29.867,29.867,29.867s29.867-13.372,29.867-29.867
			C102.38,422.98,89.02,409.62,72.533,409.6L72.533,409.6z M72.533,452.267c-7.069,0-12.8-5.731-12.8-12.8
			c0-7.069,5.731-12.8,12.8-12.8c7.069,0,12.8,5.731,12.8,12.8C85.326,446.533,79.599,452.259,72.533,452.267z"/>
		<path d="M439.467,409.6c-16.495,0-29.867,13.372-29.867,29.867c0,16.495,13.372,29.867,29.867,29.867
			c16.495,0,29.867-13.372,29.867-29.867C469.313,422.98,455.953,409.62,439.467,409.6L439.467,409.6z M439.467,452.267
			c-7.069,0-12.8-5.731-12.8-12.8c0-7.069,5.731-12.8,12.8-12.8c7.069,0,12.8,5.731,12.8,12.8
			C452.259,446.533,446.533,452.259,439.467,452.267L439.467,452.267z"/>
		<path d="M42.667,204.8c2.264,0.003,4.435-0.897,6.033-2.5L202.3,48.7c3.281-3.341,3.256-8.701-0.054-12.012
			c-3.311-3.311-8.671-3.335-12.012-0.054l-153.6,153.6c-2.44,2.441-3.169,6.11-1.849,9.298
			C36.105,202.72,39.216,204.799,42.667,204.8z"/>
		<path d="M48.7,262.033L262.033,48.7c3.281-3.341,3.256-8.701-0.054-12.012c-3.311-3.311-8.671-3.335-12.012-0.054L36.634,249.967
			c-2.188,2.149-3.055,5.307-2.27,8.271c0.785,2.965,3.1,5.28,6.065,6.065C43.393,265.088,46.551,264.221,48.7,262.033z"/>
		<path d="M463.3,309.7L309.7,463.3c-2.188,2.149-3.055,5.307-2.27,8.271c0.785,2.965,3.1,5.28,6.065,6.065
			c2.965,0.785,6.122-0.082,8.271-2.27l153.6-153.6c3.281-3.341,3.256-8.701-0.054-12.012
			C472.001,306.444,466.641,306.42,463.3,309.7L463.3,309.7z"/>
		<path d="M463.3,249.967L249.967,463.3c-2.188,2.149-3.055,5.307-2.27,8.271c0.785,2.965,3.1,5.28,6.065,6.065
			c2.965,0.785,6.122-0.082,8.271-2.27l213.333-213.333c2.188-2.149,3.055-5.307,2.27-8.271c-0.785-2.965-3.1-5.28-6.065-6.065
			C468.607,246.912,465.449,247.779,463.3,249.967L463.3,249.967z"/>
	</g>
</g>
<g>
</g>
<g>
</g>
<g>
</g>
<g>
</g>
<g>
</g>
<g>
</g>
<g>
</g>
<g>
</g>
<g>
</g>
<g>
</g>
<g>
</g>
<g>
</g>
<g>
</g>
<g>
</g>
<g>
</g>
</svg>
