<?xml version="1.0" encoding="iso-8859-1"?>
<!-- Generator: Adobe Illustrator 19.0.0, SVG Export Plug-In . SVG Version: 6.00 Build 0)  -->
<svg version="1.1" id="Capa_1" xmlns="http://www.w3.org/2000/svg" xmlns:xlink="http://www.w3.org/1999/xlink" x="0px" y="0px"
	 viewBox="0 0 512 512" style="enable-background:new 0 0 512 512;" xml:space="preserve">
<g>
	<g>
		<path style="fill:#336A93;" d="M59.733,8.533h392.533c28.277,0,51.2,22.923,51.2,51.2v392.533c0,28.277-22.923,51.2-51.2,51.2
			H59.733c-28.277,0-51.2-22.923-51.2-51.2V59.733C8.533,31.456,31.456,8.533,59.733,8.533z"/>
		<g>
			<circle style="fill:#5496CE;" cx="72.533" cy="72.533" r="21.333"/>
			<circle style="fill:#5496CE;" cx="439.467" cy="72.533" r="21.333"/>
			<circle style="fill:#5496CE;" cx="72.533" cy="439.467" r="21.333"/>
			<circle style="fill:#5496CE;" cx="439.467" cy="439.467" r="21.333"/>
		</g>
	</g>
	<g>
		
			<ellipse style="fill:none;stroke:#000000;stroke-width:2;stroke-linecap:round;stroke-linejoin:round;" cx="256" cy="256" rx="93.867" ry="187.733"/>
		
			<ellipse style="fill:none;stroke:#000000;stroke-width:2;stroke-linecap:round;stroke-linejoin:round;" cx="256" cy="256" rx="59.733" ry="153.6"/>
		<path style="fill:none;stroke:#000000;stroke-width:2;stroke-linecap:round;stroke-linejoin:round;" d="M256,204.8v102.4"/>
	</g>
	<g>
		<path style="fill:#388841;" d="M59.733,8.533h392.533c28.277,0,51.2,22.923,51.2,51.2v392.533c0,28.277-22.923,51.2-51.2,51.2
			H59.733c-28.277,0-51.2-22.923-51.2-51.2V59.733C8.533,31.456,31.456,8.533,59.733,8.533z"/>
		<path style="fill:#5AB462;" d="M59.955,8.533h360.09c27.221,0,49.289,22.067,49.289,49.289v396.356
			c0,27.221-22.067,49.289-49.289,49.289H59.955c-27.221,0-49.289-22.067-49.289-49.289V57.822
			C10.667,30.601,32.734,8.533,59.955,8.533z"/>
		<g>
			<circle style="fill:#FFE749;" cx="72.533" cy="72.533" r="21.333"/>
			<circle style="fill:#FFE749;" cx="439.467" cy="72.533" r="21.333"/>
			<circle style="fill:#FFE749;" cx="72.533" cy="439.467" r="21.333"/>
			<circle style="fill:#FFE749;" cx="439.467" cy="439.467" r="21.333"/>
		</g>
		<ellipse style="fill:#F48B00;" cx="256" cy="256" rx="93.867" ry="187.733"/>
		<path style="fill:#F9D842;" d="M315.733,256c0,92.331-35.925,153.6-59.733,153.6c-4.714-0.251-9.213-2.051-12.8-5.12
			c-22.101-16.384-46.933-71.68-46.933-148.48s24.832-132.096,46.933-148.48c3.587-3.069,8.086-4.869,12.8-5.12
			C279.808,102.4,315.733,163.669,315.733,256z"/>
		<ellipse style="fill:#FFE749;" cx="243.2" cy="256" rx="46.933" ry="148.48"/>
		<path style="fill:#FFBA00;" d="M256,315.733c-4.713,0-8.533-3.82-8.533-8.533V204.8c0-4.713,3.821-8.533,8.533-8.533
			c4.713,0,8.533,3.821,8.533,8.533v102.4C264.533,311.913,260.713,315.733,256,315.733z"/>
		<g>
			<path d="M452.267,0H59.733C26.759,0.037,0.037,26.759,0,59.733v392.533C0.037,485.241,26.759,511.963,59.733,512h392.533
				c32.974-0.037,59.696-26.759,59.733-59.733V59.733C511.963,26.759,485.241,0.037,452.267,0z M494.933,452.267
				c-0.028,23.553-19.114,42.639-42.667,42.667H59.733c-23.553-0.028-42.639-19.114-42.667-42.667V59.733
				c0.028-23.553,19.114-42.639,42.667-42.667h392.533c23.553,0.028,42.639,19.114,42.667,42.667V452.267z"/>
			<path d="M72.533,42.667c-16.495,0-29.867,13.372-29.867,29.867S56.038,102.4,72.533,102.4S102.4,89.028,102.4,72.533
				C102.38,56.047,89.02,42.687,72.533,42.667L72.533,42.667z M72.533,85.333c-7.069,0-12.8-5.731-12.8-12.8
				c0-7.069,5.731-12.8,12.8-12.8c7.069,0,12.8,5.731,12.8,12.8C85.326,79.599,79.599,85.326,72.533,85.333L72.533,85.333z"/>
			<path d="M439.467,42.667c-16.495,0-29.867,13.372-29.867,29.867s13.372,29.867,29.867,29.867
				c16.495,0,29.867-13.372,29.867-29.867C469.313,56.047,455.953,42.687,439.467,42.667L439.467,42.667z M439.467,85.333
				c-7.069,0-12.8-5.731-12.8-12.8c0-7.069,5.731-12.8,12.8-12.8c7.069,0,12.8,5.731,12.8,12.8
				C452.259,79.599,446.533,85.326,439.467,85.333L439.467,85.333z"/>
			<path d="M72.533,409.6c-16.495,0-29.867,13.372-29.867,29.867c0,16.495,13.372,29.867,29.867,29.867s29.867-13.372,29.867-29.867
				C102.38,422.98,89.02,409.62,72.533,409.6L72.533,409.6z M72.533,452.267c-7.069,0-12.8-5.731-12.8-12.8
				c0-7.069,5.731-12.8,12.8-12.8c7.069,0,12.8,5.731,12.8,12.8C85.326,446.533,79.599,452.259,72.533,452.267z"/>
			<path d="M439.467,409.6c-16.495,0-29.867,13.372-29.867,29.867c0,16.495,13.372,29.867,29.867,29.867
				c16.495,0,29.867-13.372,29.867-29.867C469.313,422.98,455.953,409.62,439.467,409.6L439.467,409.6z M439.467,452.267
				c-7.069,0-12.8-5.731-12.8-12.8c0-7.069,5.731-12.8,12.8-12.8c7.069,0,12.8,5.731,12.8,12.8
				C452.259,446.533,446.533,452.259,439.467,452.267L439.467,452.267z"/>
			<path d="M256,59.733c-57.421,0-102.4,86.212-102.4,196.267S198.579,452.267,256,452.267S358.4,366.054,358.4,256
				S313.421,59.733,256,59.733z M256,435.2c-46.254,0-85.333-82.063-85.333-179.2S209.746,76.8,256,76.8s85.333,82.063,85.333,179.2
				S302.254,435.2,256,435.2z"/>
			<path d="M256,93.867c-32.225,0-68.267,69.338-68.267,162.133S223.775,418.133,256,418.133S324.267,348.796,324.267,256
				S288.225,93.867,256,93.867z M256,401.067c-14.858,0-51.2-50.833-51.2-145.067s36.342-145.067,51.2-145.067
				c14.858,0,51.2,50.833,51.2,145.067S270.858,401.067,256,401.067z"/>
			<path d="M256,196.267c-4.713,0-8.533,3.821-8.533,8.533v102.4c0,4.713,3.821,8.533,8.533,8.533c4.713,0,8.533-3.82,8.533-8.533
				V204.8C264.533,200.087,260.713,196.267,256,196.267z"/>
		</g>
	</g>
</g>
<g>
</g>
<g>
</g>
<g>
</g>
<g>
</g>
<g>
</g>
<g>
</g>
<g>
</g>
<g>
</g>
<g>
</g>
<g>
</g>
<g>
</g>
<g>
</g>
<g>
</g>
<g>
</g>
<g>
</g>
</svg>
