<?xml version="1.0" encoding="iso-8859-1"?>
<!-- Generator: Adobe Illustrator 19.0.0, SVG Export Plug-In . SVG Version: 6.00 Build 0)  -->
<svg version="1.1" id="Capa_1" xmlns="http://www.w3.org/2000/svg" xmlns:xlink="http://www.w3.org/1999/xlink" x="0px" y="0px"
	 viewBox="0 0 512 512" style="enable-background:new 0 0 512 512;" xml:space="preserve">
<g>
	<path style="fill:#336A93;" d="M452.267,8.533H59.733c-28.268,0.022-51.178,22.932-51.2,51.2v392.533
		c0.022,28.268,22.932,51.178,51.2,51.2h392.533c28.268-0.022,51.178-22.932,51.2-51.2V59.733
		C503.444,31.466,480.534,8.556,452.267,8.533z M426.667,170.667c-0.028,9.414-7.652,17.039-17.067,17.067h-34.133V230.4
		c-0.014,4.707-3.826,8.519-8.533,8.533h-17.067c-4.707-0.014-8.519-3.826-8.533-8.533V128c0.014-4.707,3.826-8.519,8.533-8.533
		H409.6c9.414,0.028,17.039,7.652,17.067,17.067V170.667z"/>
	<g>
		<circle style="fill:#5496CE;" cx="72.533" cy="72.533" r="21.333"/>
		<circle style="fill:#5496CE;" cx="439.467" cy="72.533" r="21.333"/>
		<circle style="fill:#5496CE;" cx="72.533" cy="439.467" r="21.333"/>
		<circle style="fill:#5496CE;" cx="439.467" cy="439.467" r="21.333"/>
	</g>
	<g>
		<path style="fill:#74E1C5;" d="M110.933,187.733v153.6c0,4.713-3.821,8.533-8.533,8.533h-8.533c-4.713,0-8.533,3.82-8.533,8.533
			V384c0,4.713,3.821,8.533,8.533,8.533H179.2c4.713,0,8.533-3.82,8.533-8.533v-25.6c0-4.713-3.82-8.533-8.533-8.533h-8.533
			c-4.713,0-8.533-3.821-8.533-8.533V128c0-4.713-3.821-8.533-8.533-8.533h-39.132c-2.263,0-4.434,0.899-6.034,2.499l-20.601,20.601
			c-1.6,1.6-2.499,3.771-2.499,6.034v22.065c0,4.713,3.821,8.533,8.533,8.533h8.533C107.113,179.2,110.933,183.021,110.933,187.733z
			"/>
		<path style="fill:#74E1C5;" d="M307.2,128v85.333c0,14.138-11.462,25.6-25.6,25.6h-51.2c-14.138,0-25.6-11.462-25.6-25.6V128
			c0-4.713,3.82-8.533,8.533-8.533H230.4c4.713,0,8.533,3.821,8.533,8.533v68.267c0,4.713,3.821,8.533,8.533,8.533h17.067
			c4.713,0,8.533-3.821,8.533-8.533V128c0-4.713,3.82-8.533,8.533-8.533h17.067C303.38,119.467,307.2,123.287,307.2,128z"/>
		<path style="fill:#74E1C5;" d="M213.333,273.067h204.8c4.713,0,8.533,3.82,8.533,8.533v17.067c0,4.713-3.82,8.533-8.533,8.533
			h-204.8c-4.713,0-8.533-3.82-8.533-8.533V281.6C204.8,276.887,208.621,273.067,213.333,273.067z"/>
	</g>
	<path style="fill:#B82B6A;" d="M59.733,8.533h392.533c28.277,0,51.2,22.923,51.2,51.2v392.533c0,28.277-22.923,51.2-51.2,51.2
		H59.733c-28.277,0-51.2-22.923-51.2-51.2V59.733C8.533,31.456,31.456,8.533,59.733,8.533z"/>
	<path style="fill:#EB3A76;" d="M57.933,8.533h362.001c27.283,0,49.399,22.117,49.399,49.399v396.134
		c0,27.283-22.117,49.4-49.399,49.4H57.933c-27.283,0-49.399-22.117-49.399-49.4V57.933C8.533,30.65,30.65,8.533,57.933,8.533z"/>
	<g>
		<circle style="fill:#F9D842;" cx="72.533" cy="72.533" r="21.333"/>
		<circle style="fill:#F9D842;" cx="439.467" cy="72.533" r="21.333"/>
		<circle style="fill:#F9D842;" cx="72.533" cy="439.467" r="21.333"/>
		<circle style="fill:#F9D842;" cx="439.467" cy="439.467" r="21.333"/>
		<path style="fill:#F9D842;" d="M110.933,187.733v153.6c0,4.713-3.821,8.533-8.533,8.533h-8.533c-4.713,0-8.533,3.82-8.533,8.533
			V384c0,4.713,3.821,8.533,8.533,8.533H179.2c4.713,0,8.533-3.82,8.533-8.533v-25.6c0-4.713-3.82-8.533-8.533-8.533h-8.533
			c-4.713,0-8.533-3.821-8.533-8.533V128c0-4.713-3.821-8.533-8.533-8.533h-39.132c-2.263,0-4.434,0.899-6.034,2.499l-20.601,20.601
			c-1.6,1.6-2.499,3.771-2.499,6.034v22.065c0,4.713,3.821,8.533,8.533,8.533h8.533C107.113,179.2,110.933,183.021,110.933,187.733z
			"/>
		<path style="fill:#F9D842;" d="M307.2,128v85.333c0,14.138-11.462,25.6-25.6,25.6h-51.2c-14.138,0-25.6-11.462-25.6-25.6V128
			c0-4.713,3.82-8.533,8.533-8.533H230.4c4.713,0,8.533,3.821,8.533,8.533v68.267c0,4.713,3.821,8.533,8.533,8.533h17.067
			c4.713,0,8.533-3.821,8.533-8.533V128c0-4.713,3.82-8.533,8.533-8.533h17.067C303.38,119.467,307.2,123.287,307.2,128z"/>
		<path style="fill:#F9D842;" d="M426.667,136.533v34.133c-0.028,9.414-7.652,17.039-17.067,17.067h-34.133V230.4
			c-0.014,4.707-3.826,8.519-8.533,8.533h-17.067c-4.707-0.014-8.519-3.826-8.533-8.533V128c0.014-4.707,3.826-8.519,8.533-8.533
			H409.6C419.014,119.494,426.639,127.119,426.667,136.533z"/>
	</g>
	<path style="fill:#336A93;" d="M392.533,162.133h-17.067c-4.713,0-8.533-3.821-8.533-8.533s3.821-8.533,8.533-8.533h17.067
		c4.713,0,8.533,3.82,8.533,8.533S397.246,162.133,392.533,162.133z"/>
	<path style="fill:#F9D842;" d="M213.333,273.067h204.8c4.713,0,8.533,3.82,8.533,8.533v17.067c0,4.713-3.82,8.533-8.533,8.533
		h-204.8c-4.713,0-8.533-3.82-8.533-8.533V281.6C204.8,276.887,208.621,273.067,213.333,273.067z"/>
	<g>
		<path d="M452.267,0H59.733C26.759,0.037,0.037,26.759,0,59.733v392.533C0.037,485.241,26.759,511.963,59.733,512h392.533
			c32.974-0.038,59.695-26.759,59.733-59.733V59.733C511.962,26.759,485.241,0.038,452.267,0z M494.933,452.267
			c-0.028,23.553-19.114,42.639-42.667,42.667H59.733c-23.553-0.028-42.639-19.114-42.667-42.667V59.733
			c0.028-23.553,19.114-42.639,42.667-42.667h392.533c23.553,0.028,42.639,19.114,42.667,42.667V452.267z"/>
		<path d="M72.533,102.4c16.495,0,29.867-13.372,29.867-29.867S89.028,42.667,72.533,42.667S42.667,56.038,42.667,72.533
			C42.687,89.02,56.047,102.38,72.533,102.4L72.533,102.4z M72.533,59.733c7.069,0,12.8,5.731,12.8,12.8
			c0,7.069-5.731,12.8-12.8,12.8c-7.069,0-12.8-5.731-12.8-12.8C59.741,65.467,65.467,59.741,72.533,59.733z"/>
		<path d="M439.467,42.667c-16.495,0-29.867,13.372-29.867,29.867s13.372,29.867,29.867,29.867
			c16.495,0,29.867-13.372,29.867-29.867C469.313,56.047,455.953,42.687,439.467,42.667L439.467,42.667z M439.467,85.333
			c-7.069,0-12.8-5.731-12.8-12.8c0-7.069,5.731-12.8,12.8-12.8c7.069,0,12.8,5.731,12.8,12.8
			C452.259,79.599,446.533,85.326,439.467,85.333L439.467,85.333z"/>
		<path d="M72.533,409.6c-16.495,0-29.867,13.372-29.867,29.867c0,16.495,13.372,29.867,29.867,29.867s29.867-13.372,29.867-29.867
			C102.38,422.98,89.02,409.62,72.533,409.6L72.533,409.6z M72.533,452.267c-7.069,0-12.8-5.731-12.8-12.8
			c0-7.069,5.731-12.8,12.8-12.8c7.069,0,12.8,5.731,12.8,12.8C85.326,446.533,79.599,452.259,72.533,452.267z"/>
		<path d="M439.467,409.6c-16.495,0-29.867,13.372-29.867,29.867c0,16.495,13.372,29.867,29.867,29.867
			c16.495,0,29.867-13.372,29.867-29.867C469.313,422.98,455.953,409.62,439.467,409.6L439.467,409.6z M439.467,452.267
			c-7.069,0-12.8-5.731-12.8-12.8c0-7.069,5.731-12.8,12.8-12.8c7.069,0,12.8,5.731,12.8,12.8
			C452.259,446.533,446.533,452.259,439.467,452.267L439.467,452.267z"/>
		<path d="M179.2,341.333h-8.533V128c-0.009-9.422-7.645-17.057-17.067-17.067h-39.133c-4.529-0.012-8.874,1.788-12.067,5
			l-20.6,20.6c-3.212,3.193-5.012,7.538-5,12.067v22.067c0.009,9.422,7.645,17.057,17.067,17.067l8.533-0.012v153.612h-8.533
			c-9.422,0.009-17.057,7.645-17.067,17.067V384c0.009,9.422,7.645,17.057,17.067,17.067H179.2
			c9.422-0.009,17.057-7.645,17.067-17.067v-25.6C196.257,348.978,188.622,341.343,179.2,341.333L179.2,341.333z M179.2,384H93.867
			v-25.6h8.533c9.422-0.009,17.057-7.645,17.067-17.067v-153.6c-0.009-9.422-7.645-17.057-17.067-17.067h-8.533V148.6l20.6-20.6
			H153.6v213.333c0.009,9.422,7.645,17.057,17.067,17.067h8.533V384z"/>
		<path d="M230.4,247.467h51.2c18.842-0.022,34.112-15.291,34.133-34.133V128c-0.009-9.422-7.645-17.057-17.067-17.067H281.6
			c-9.422,0.009-17.057,7.645-17.067,17.067v68.267h-17.067V128c-0.009-9.422-7.645-17.057-17.067-17.067h-17.067
			c-9.422,0.009-17.057,7.645-17.067,17.067v85.333C196.288,232.176,211.558,247.445,230.4,247.467z M213.333,128H230.4v68.267
			c0.009,9.422,7.645,17.057,17.067,17.067h17.067c9.422-0.009,17.057-7.645,17.067-17.067V128l17.067-0.012v85.346
			c-0.009,9.422-7.645,17.057-17.067,17.067h-51.2c-9.422-0.009-17.057-7.645-17.067-17.067V128z"/>
		<path d="M349.867,247.467h17.067c9.422-0.009,17.057-7.645,17.067-17.067v-34.133h25.6c14.132-0.015,25.585-11.468,25.6-25.6
			v-34.133c-0.015-14.132-11.468-25.585-25.6-25.6h-59.733c-9.422,0.009-17.057,7.645-17.067,17.067v102.4
			C332.809,239.822,340.445,247.457,349.867,247.467L349.867,247.467z M349.867,128H409.6c4.711,0.005,8.529,3.822,8.533,8.533
			v34.133c-0.005,4.711-3.822,8.529-8.533,8.533h-34.133c-4.713,0-8.533,3.821-8.533,8.533V230.4h-17.067V128z"/>
		<path d="M375.467,162.133h17.067c4.713,0,8.533-3.821,8.533-8.533s-3.82-8.533-8.533-8.533h-17.067
			c-4.713,0-8.533,3.82-8.533,8.533S370.754,162.133,375.467,162.133z"/>
		<path d="M435.2,298.667V281.6c-0.011-9.421-7.645-17.056-17.067-17.067h-204.8c-9.422,0.009-17.057,7.645-17.067,17.067v17.067
			c0.009,9.422,7.645,17.057,17.067,17.067h204.8C427.555,315.723,435.189,308.088,435.2,298.667z M213.333,281.6h204.8
			l0.009,17.067H213.333V281.6z"/>
	</g>
</g>
<g>
</g>
<g>
</g>
<g>
</g>
<g>
</g>
<g>
</g>
<g>
</g>
<g>
</g>
<g>
</g>
<g>
</g>
<g>
</g>
<g>
</g>
<g>
</g>
<g>
</g>
<g>
</g>
<g>
</g>
</svg>
