<?xml version="1.0" encoding="iso-8859-1"?>
<!-- Generator: Adobe Illustrator 19.0.0, SVG Export Plug-In . SVG Version: 6.00 Build 0)  -->
<svg version="1.1" id="Capa_1" xmlns="http://www.w3.org/2000/svg" xmlns:xlink="http://www.w3.org/1999/xlink" x="0px" y="0px"
	 viewBox="0 0 512 512" style="enable-background:new 0 0 512 512;" xml:space="preserve">
<g>
	<circle style="fill:#A9A62F;" cx="256" cy="256" r="247.467"/>
	<path style="fill:#66953E;" d="M452.267,256c-0.152,108.171-87.912,195.765-196.083,195.715S60.336,363.987,60.285,255.816
		C60.235,147.645,147.829,59.886,256,59.733C364.339,59.87,452.13,147.661,452.267,256z"/>
	<ellipse style="fill:#96C65C;" cx="234.667" cy="256" rx="174.933" ry="195.072"/>
	<path style="fill:#A9A62F;" d="M256,119.467L256,119.467c18.851,0,34.133,15.282,34.133,34.133v204.8
		c0,18.851-15.282,34.133-34.133,34.133l0,0c-18.851,0-34.133-15.282-34.133-34.133V153.6
		C221.867,134.749,237.149,119.467,256,119.467z"/>
	<g>
		<path d="M256,0C114.615,0,0,114.615,0,256s114.615,256,256,256s256-114.615,256-256C511.84,114.682,397.319,0.16,256,0z
			 M256,494.933C124.041,494.933,17.067,387.959,17.067,256S124.041,17.067,256,17.067S494.933,124.041,494.933,256
			C494.785,387.898,387.898,494.785,256,494.933z"/>
		<path d="M256,51.2C142.892,51.2,51.2,142.892,51.2,256S142.892,460.8,256,460.8S460.8,369.108,460.8,256
			C460.671,142.946,369.054,51.329,256,51.2z M256,443.733c-103.682,0-187.733-84.051-187.733-187.733S152.318,68.267,256,68.267
			S443.733,152.318,443.733,256C443.616,359.634,359.634,443.616,256,443.733z"/>
		<path d="M256,110.933c-23.553,0.028-42.639,19.114-42.667,42.667v204.8c0,23.564,19.103,42.667,42.667,42.667
			c23.564,0,42.667-19.103,42.667-42.667V153.6C298.639,130.047,279.553,110.961,256,110.933L256,110.933z M281.6,358.4
			c0,14.138-11.461,25.6-25.6,25.6c-14.138,0-25.6-11.462-25.6-25.6V153.6c0-14.138,11.462-25.6,25.6-25.6
			c14.139,0,25.6,11.462,25.6,25.6V358.4z"/>
	</g>
</g>
<g>
</g>
<g>
</g>
<g>
</g>
<g>
</g>
<g>
</g>
<g>
</g>
<g>
</g>
<g>
</g>
<g>
</g>
<g>
</g>
<g>
</g>
<g>
</g>
<g>
</g>
<g>
</g>
<g>
</g>
</svg>
