<?xml version="1.0" encoding="iso-8859-1"?>
<!-- Generator: Adobe Illustrator 19.0.0, SVG Export Plug-In . SVG Version: 6.00 Build 0)  -->
<svg version="1.1" id="Capa_1" xmlns="http://www.w3.org/2000/svg" xmlns:xlink="http://www.w3.org/1999/xlink" x="0px" y="0px"
	 viewBox="0 0 512 512" style="enable-background:new 0 0 512 512;" xml:space="preserve">
<g>
	<path style="fill:#DD5919;" d="M469.333,256c0,0,0,9.643-1.45,25.6c-3.679,40.781-12.54,80.926-26.369,119.467
		c-6.341,17.624-14.015,34.74-22.954,51.2c-8.457,15.763-18.28,30.753-29.355,44.8c-3.252,4.07-8.188,6.428-13.397,6.4H136.192
		c-5.21,0.028-10.146-2.33-13.397-6.4c-11.076-14.047-20.898-29.037-29.355-44.8c-8.939-16.46-16.613-33.576-22.955-51.2
		c-13.829-38.54-22.69-78.686-26.369-119.467c-1.45-15.957-1.45-25.6-1.45-25.6s0-9.643,1.45-25.6
		c3.679-40.781,12.54-80.926,26.369-119.467c6.378-17.61,14.05-34.723,22.955-51.2c8.457-15.763,18.279-30.753,29.355-44.8
		c3.252-4.07,8.188-6.428,13.397-6.4h239.616c5.21-0.028,10.146,2.33,13.397,6.4c11.076,14.047,20.898,29.037,29.355,44.8
		c8.939,16.46,16.613,33.576,22.954,51.2c13.829,38.54,22.69,78.686,26.369,119.467C469.333,246.357,469.333,256,469.333,256z"/>
	<path style="fill:#FF6E2C;" d="M426.667,256c0,0,0,9.643-1.45,25.6c-3.679,40.781-12.54,80.926-26.369,119.467
		c-6.341,17.624-14.015,34.74-22.954,51.2c-8.457,15.763-18.279,30.753-29.355,44.8c-3.252,4.07-8.188,6.428-13.397,6.4H136.192
		c-5.21,0.028-10.146-2.33-13.397-6.4c-11.076-14.047-20.898-29.037-29.355-44.8c-8.939-16.46-16.613-33.576-22.955-51.2
		c-13.829-38.54-22.69-78.686-26.369-119.467c-1.45-15.957-1.45-25.6-1.45-25.6s0-9.643,1.45-25.6
		c3.679-40.781,12.54-80.926,26.369-119.467c6.378-17.61,14.05-34.723,22.955-51.2c8.457-15.763,18.279-30.753,29.355-44.8
		c3.252-4.07,8.188-6.428,13.397-6.4h196.949c5.21-0.028,10.146,2.33,13.397,6.4c11.076,14.047,20.898,29.037,29.355,44.8
		c8.939,16.46,16.613,33.576,22.954,51.2c13.829,38.54,22.69,78.686,26.369,119.467C426.667,246.357,426.667,256,426.667,256z"/>
	<path style="fill:#C9CED1;" d="M469.333,256c0,0,0,9.643-1.45,25.6H44.117c-1.45-15.957-1.45-25.6-1.45-25.6s0-9.643,1.45-25.6
		h423.767C469.333,246.357,469.333,256,469.333,256z"/>
	<path style="fill:#FFA300;" d="M156.331,110.933c-9.934,39.157-16.219,79.15-18.774,119.467H44.117
		c3.679-40.781,12.54-80.926,26.369-119.467H156.331z"/>
	<path style="fill:#61443C;" d="M441.515,110.933H70.485c6.378-17.61,14.05-34.723,22.955-51.2h325.121
		C427.5,76.193,435.174,93.309,441.515,110.933z"/>
	<g>
		<path style="fill:#FFA300;" d="M196.267,8.533c-9.311,16.418-17.329,33.536-23.979,51.2H93.44
			c8.457-15.763,18.279-30.753,29.355-44.8c3.252-4.07,8.188-6.428,13.397-6.4H196.267z"/>
		<path style="fill:#FFA300;" d="M339.713,59.733H256v-51.2h59.733C325.045,24.951,333.062,42.07,339.713,59.733L339.713,59.733z"/>
		<path style="fill:#FFA300;" d="M156.331,401.067H70.485c-13.829-38.54-22.69-78.686-26.369-119.467h93.441
			C140.112,321.917,146.397,361.91,156.331,401.067L156.331,401.067z"/>
		<path style="fill:#FFA300;" d="M339.713,452.267c-6.651,17.664-14.668,34.782-23.979,51.2H256v-51.2H339.713z"/>
		<path style="fill:#FFA300;" d="M196.267,503.467h-60.075c-5.21,0.028-10.146-2.33-13.397-6.4
			c-11.076-14.047-20.898-29.037-29.355-44.8h78.848C178.938,469.93,186.956,487.049,196.267,503.467L196.267,503.467z"/>
	</g>
	<g>
		<path style="fill:#61443C;" d="M441.515,401.067c-6.341,17.624-14.015,34.74-22.954,51.2H93.44
			c-8.939-16.46-16.613-33.576-22.955-51.2H441.515z"/>
		<path style="fill:#61443C;" d="M469.333,256c0,0,0,9.643-1.45,25.6H44.117c-1.45-15.957-1.45-25.6-1.45-25.6s0-9.643,1.45-25.6
			h423.767C469.333,246.357,469.333,256,469.333,256z"/>
	</g>
	<g>
		<path style="fill:#87685A;" d="M398.848,110.933H70.485c6.378-17.61,14.05-34.723,22.955-51.2h282.454
			C384.833,76.193,392.507,93.309,398.848,110.933z"/>
		<path style="fill:#87685A;" d="M398.848,401.067c-6.341,17.624-14.015,34.74-22.954,51.2H93.44
			c-8.939-16.46-16.613-33.576-22.955-51.2H398.848z"/>
		<path style="fill:#87685A;" d="M426.667,256c0,0,0,9.643-1.45,25.6h-381.1c-1.45-15.957-1.45-25.6-1.45-25.6s0-9.643,1.45-25.6
			h381.1C426.667,246.357,426.667,256,426.667,256z"/>
	</g>
	<g>
		<path style="fill:#FFA300;" d="M374.443,230.4H256V110.933h99.669C365.603,150.09,371.888,190.083,374.443,230.4L374.443,230.4z"
			/>
		<path style="fill:#FFA300;" d="M374.443,281.6c-2.555,40.317-8.84,80.31-18.774,119.467H256V281.6H374.443z"/>
	</g>
	<path d="M136.192,512h239.616c7.8,0.004,15.181-3.531,20.067-9.612C476.933,399.758,477.867,261.821,477.867,256
		c0-5.821-0.933-143.758-81.992-246.388C390.99,3.531,383.609-0.004,375.808,0H136.192c-7.801-0.004-15.182,3.531-20.067,9.612
		C35.067,112.242,34.133,250.179,34.133,256c0,5.821,0.933,143.758,81.992,246.388C121.01,508.469,128.391,512.005,136.192,512z
		 M129.525,491.813c-7.762-9.874-14.888-20.233-21.335-31.013h58.341c4.878,12.258,9.959,23.609,15.391,34.133h-45.73
		C133.611,494.958,131.159,493.81,129.525,491.813L129.525,491.813z M76.595,119.467h68.889c-7.947,33.668-13.25,67.906-15.86,102.4
		H53.635C57.532,186.998,65.231,152.661,76.595,119.467L76.595,119.467z M98.571,68.267h73.698l0.023,0.004l0.027-0.004h167.363
		l0.027,0.004l0.023-0.004h73.698c5.778,11.104,10.983,22.496,15.594,34.133H82.977C87.588,90.763,92.793,79.37,98.571,68.267
		L98.571,68.267z M247.467,17.067V51.2h-62.542c4.829-11.673,10.303-23.068,16.398-34.133H247.467z M310.677,17.067
		c6.095,11.065,11.569,22.46,16.398,34.133h-62.542V17.067H310.677z M146.735,221.867c2.668-34.517,8.121-68.762,16.306-102.4
		h84.425v102.4H146.735z M264.533,119.467h84.425c8.185,33.638,13.639,67.883,16.306,102.4H264.533V119.467z M382.377,221.867
		c-2.611-34.494-7.914-68.732-15.86-102.4h68.889c11.364,33.194,19.063,67.532,22.959,102.4H382.377z M459.969,238.933
		c0.777,10.519,0.831,16.779,0.831,17.062c0,0.286-0.054,6.548-0.831,17.071H52.031c-0.777-10.519-0.831-16.779-0.831-17.062
		c0-0.286,0.054-6.548,0.831-17.071H459.969z M435.405,392.533h-68.889c7.947-33.668,13.25-67.906,15.86-102.4h75.988
		C454.468,325.002,446.769,359.339,435.405,392.533z M264.533,392.533v-102.4h100.731c-2.668,34.517-8.121,68.762-16.306,102.4
		H264.533z M163.042,392.533c-8.185-33.638-13.639-67.883-16.306-102.4h100.731v102.4H163.042z M129.623,290.133
		c2.611,34.494,7.914,68.732,15.86,102.4H76.595c-11.364-33.194-19.063-67.532-22.959-102.4H129.623z M156.3,409.6l0.025,0.004
		l0.032-0.004h199.285l0.032,0.004l0.025-0.004h73.323c-4.611,11.637-9.816,23.03-15.594,34.133H98.571
		c-5.778-11.104-10.983-22.496-15.594-34.133H156.3z M264.533,494.933V460.8h62.542c-4.829,11.673-10.303,23.068-16.398,34.133
		H264.533z M201.323,494.933c-6.095-11.065-11.569-22.46-16.398-34.133h62.542v34.133H201.323z M382.475,491.813
		c-1.634,1.998-4.086,3.146-6.667,3.121h-45.729c5.431-10.525,10.511-21.875,15.39-34.133h58.341
		C397.363,471.58,390.237,481.938,382.475,491.813L382.475,491.813z M382.475,20.187c7.762,9.874,14.888,20.233,21.334,31.013
		h-58.341c-4.878-12.258-9.958-23.609-15.39-34.133h45.729C378.389,17.042,380.841,18.19,382.475,20.187L382.475,20.187z
		 M129.525,20.187c1.634-1.998,4.086-3.146,6.667-3.121h45.73c-5.431,10.525-10.513,21.875-15.391,34.133h-58.341
		C114.637,40.42,121.763,30.062,129.525,20.187L129.525,20.187z"/>
</g>
<g>
</g>
<g>
</g>
<g>
</g>
<g>
</g>
<g>
</g>
<g>
</g>
<g>
</g>
<g>
</g>
<g>
</g>
<g>
</g>
<g>
</g>
<g>
</g>
<g>
</g>
<g>
</g>
<g>
</g>
</svg>
