<?xml version="1.0" encoding="iso-8859-1"?>
<!-- Generator: Adobe Illustrator 19.0.0, SVG Export Plug-In . SVG Version: 6.00 Build 0)  -->
<svg version="1.1" id="Capa_1" xmlns="http://www.w3.org/2000/svg" xmlns:xlink="http://www.w3.org/1999/xlink" x="0px" y="0px"
	 viewBox="0 0 512 512" style="enable-background:new 0 0 512 512;" xml:space="preserve">
<g>
	<g>
		<path style="fill:#FFBA00;" d="M59.733,8.533h392.533c28.277,0,51.2,22.923,51.2,51.2v392.533c0,28.277-22.923,51.2-51.2,51.2
			H59.733c-28.277,0-51.2-22.923-51.2-51.2V59.733C8.533,31.456,31.456,8.533,59.733,8.533z"/>
		<g>
			<circle style="fill:#FAEDBD;" cx="72.533" cy="72.533" r="21.333"/>
			<circle style="fill:#FAEDBD;" cx="439.467" cy="72.533" r="21.333"/>
			<circle style="fill:#FAEDBD;" cx="72.533" cy="439.467" r="21.333"/>
			<circle style="fill:#FAEDBD;" cx="439.467" cy="439.467" r="21.333"/>
		</g>
	</g>
	<path style="fill:none;stroke:#000000;stroke-width:2;stroke-linecap:round;stroke-linejoin:round;" d="M256,158.176
		c32.336-57.349,97.009-57.349,129.347-27.326s32.338,90.072,0,150.12C362.711,326.007,304.505,371.043,256,401.067
		c-48.505-30.024-106.711-75.06-129.347-120.096c-32.337-60.048-32.337-120.096,0-150.12S223.663,100.826,256,158.176z"/>
	<g>
		<path style="fill:#007B6F;" d="M59.733,8.533h392.533c28.277,0,51.2,22.923,51.2,51.2v392.533c0,28.277-22.923,51.2-51.2,51.2
			H59.733c-28.277,0-51.2-22.923-51.2-51.2V59.733C8.533,31.456,31.456,8.533,59.733,8.533z"/>
		<path style="fill:#00A095;" d="M49.86,8.533h369.613c27.537,0,49.86,22.323,49.86,49.86v395.213
			c0,27.537-22.323,49.86-49.86,49.86H49.86c-27.537,0-49.86-22.323-49.86-49.86V58.394C0,30.857,22.323,8.533,49.86,8.533z"/>
		<g>
			<circle style="fill:#EB3A76;" cx="72.533" cy="72.533" r="21.333"/>
			<circle style="fill:#EB3A76;" cx="439.467" cy="72.533" r="21.333"/>
			<circle style="fill:#EB3A76;" cx="72.533" cy="439.467" r="21.333"/>
			<circle style="fill:#EB3A76;" cx="439.467" cy="439.467" r="21.333"/>
		</g>
	</g>
	<path style="fill:#B82B6A;" d="M385.365,130.816c-19.118-16.819-45.099-23.536-69.973-18.091
		c-25.531,5.671-47.262,22.312-59.392,45.483c-4.567-8.271-10.316-15.832-17.067-22.443c-19.904-20.193-48.712-28.874-76.459-23.04
		c-13.343,2.735-25.715,8.98-35.84,18.091c-32.341,30.037-32.341,90.112,0,150.187c19.968,39.765,67.925,79.616,112.299,109.056
		c5.803,3.925,11.52,7.509,17.067,11.008c48.469-30.037,106.752-75.093,129.365-120.064
		C417.707,220.928,417.707,160.853,385.365,130.816z"/>
	<path style="fill:#EB3A76;" d="M351.232,281.003c-19.968,39.765-67.925,79.616-112.299,109.056
		c-44.373-29.44-92.331-69.291-112.299-109.056c-32.341-60.075-32.341-120.149,0-150.187c10.125-9.111,22.497-15.356,35.84-18.091
		c27.746-5.834,56.555,2.847,76.459,23.04c6.75,6.611,12.5,14.172,17.067,22.443c12.13-23.17,33.861-39.812,59.392-45.483
		c13.343,2.735,25.715,8.98,35.84,18.091C383.573,160.853,383.573,220.928,351.232,281.003z"/>
	<g>
		<path d="M452.267,0H59.733C26.759,0.037,0.037,26.759,0,59.733v392.533C0.037,485.241,26.759,511.963,59.733,512h392.533
			c32.974-0.037,59.696-26.759,59.733-59.733V59.733C511.963,26.759,485.241,0.037,452.267,0z M494.933,452.267
			c-0.028,23.553-19.114,42.639-42.667,42.667H59.733c-23.553-0.028-42.639-19.114-42.667-42.667V59.733
			c0.028-23.553,19.114-42.639,42.667-42.667h392.533c23.553,0.028,42.639,19.114,42.667,42.667V452.267z"/>
		<path d="M72.533,102.4c16.495,0,29.867-13.372,29.867-29.867S89.028,42.667,72.533,42.667S42.667,56.038,42.667,72.533
			C42.687,89.02,56.047,102.38,72.533,102.4L72.533,102.4z M72.533,59.733c7.069,0,12.8,5.731,12.8,12.8
			c0,7.069-5.731,12.8-12.8,12.8c-7.069,0-12.8-5.731-12.8-12.8C59.741,65.467,65.467,59.741,72.533,59.733z"/>
		<path d="M439.467,42.667c-16.495,0-29.867,13.372-29.867,29.867s13.372,29.867,29.867,29.867
			c16.495,0,29.867-13.372,29.867-29.867C469.313,56.047,455.953,42.687,439.467,42.667L439.467,42.667z M439.467,85.333
			c-7.069,0-12.8-5.731-12.8-12.8c0-7.069,5.731-12.8,12.8-12.8c7.069,0,12.8,5.731,12.8,12.8
			C452.259,79.599,446.533,85.326,439.467,85.333L439.467,85.333z"/>
		<path d="M72.533,409.6c-16.495,0-29.867,13.372-29.867,29.867c0,16.495,13.372,29.867,29.867,29.867s29.867-13.372,29.867-29.867
			C102.38,422.98,89.02,409.62,72.533,409.6L72.533,409.6z M72.533,452.267c-7.069,0-12.8-5.731-12.8-12.8
			c0-7.069,5.731-12.8,12.8-12.8c7.069,0,12.8,5.731,12.8,12.8C85.326,446.533,79.599,452.259,72.533,452.267z"/>
		<path d="M439.467,409.6c-16.495,0-29.867,13.372-29.867,29.867c0,16.495,13.372,29.867,29.867,29.867
			c16.495,0,29.867-13.372,29.867-29.867C469.313,422.98,455.953,409.62,439.467,409.6L439.467,409.6z M439.467,452.267
			c-7.069,0-12.8-5.731-12.8-12.8c0-7.069,5.731-12.8,12.8-12.8c7.069,0,12.8,5.731,12.8,12.8
			C452.259,446.533,446.533,452.259,439.467,452.267L439.467,452.267z"/>
		<path d="M391.15,124.596c-19.87-17.743-46.719-25.506-72.992-21.104c-25.115,4.082-47.524,18.118-62.158,38.933
			c-14.634-20.818-37.045-34.854-62.163-38.933c-26.271-4.395-53.116,3.367-72.987,21.104
			c-35.129,32.617-35.817,97.084-1.821,160.208c27.333,54.383,101.75,104.496,132.479,123.517c2.752,1.706,6.232,1.706,8.983,0
			c30.729-19.021,105.146-69.133,132.367-123.304C426.967,221.679,426.279,157.213,391.15,124.596z M377.721,277.138
			C353.554,325.229,287.7,370.979,256,391.004c-31.7-20.025-97.558-65.783-121.833-114.079
			c-30.363-56.387-31.05-112.575-1.704-139.821c13.06-11.55,29.949-17.831,47.383-17.62c3.806-0.001,7.606,0.291,11.366,0.875
			c24.623,4.293,45.833,19.828,57.354,42.008c1.639,2.511,4.435,4.025,7.433,4.025c2.999,0,5.794-1.514,7.433-4.025
			c11.521-22.179,32.729-37.714,57.35-42.008c21.104-3.47,42.654,2.672,58.758,16.746
			C408.883,164.35,408.196,220.538,377.721,277.138L377.721,277.138z"/>
	</g>
</g>
<g>
</g>
<g>
</g>
<g>
</g>
<g>
</g>
<g>
</g>
<g>
</g>
<g>
</g>
<g>
</g>
<g>
</g>
<g>
</g>
<g>
</g>
<g>
</g>
<g>
</g>
<g>
</g>
<g>
</g>
</svg>
