<?xml version="1.0" encoding="iso-8859-1"?>
<!-- Generator: Adobe Illustrator 19.0.0, SVG Export Plug-In . SVG Version: 6.00 Build 0)  -->
<svg version="1.1" id="Capa_1" xmlns="http://www.w3.org/2000/svg" xmlns:xlink="http://www.w3.org/1999/xlink" x="0px" y="0px"
	 viewBox="0 0 511.915 511.915" style="enable-background:new 0 0 511.915 511.915;" xml:space="preserve">
<g>
	<path style="fill:#EB3A76;" d="M500.737,138.327l-62.379-60.331l29.355-30.379c6.277-6.094,7.25-15.824,2.304-23.04
		c-3.034-4.126-7.727-6.711-12.835-7.073c-5.109-0.361-10.118,1.538-13.703,5.195L220.587,253.612l-12.715-12.288
		c-6.809-6.494-17.574-6.304-24.149,0.427l-0.341,0.427c-3.159,3.252-4.891,7.63-4.81,12.163c0.08,4.533,1.965,8.847,5.237,11.986
		l12.629,12.203l-25.088,26.027c-44.666-30.728-105.428-22.102-139.777,19.843S0.747,427.614,39.678,465.345
		s100.281,39.335,141.13,3.69s47.57-96.647,15.459-140.329l25.173-26.027l12.715,12.203c3.235,3.159,7.6,4.891,12.121,4.811
		c4.521-0.08,8.822-1.966,11.943-5.237l0.427-0.341c6.538-6.791,6.347-17.593-0.427-24.149l-12.715-12.288l108.459-112.299
		l62.464,60.245c1.641,1.596,3.848,2.475,6.137,2.443c2.289-0.032,4.471-0.972,6.066-2.613l12.032-12.544
		c1.596-1.641,2.474-3.848,2.442-6.137c-0.032-2.289-0.972-4.471-2.613-6.066l-12.459-12.032l36.096-37.461l12.544,12.032
		c1.64,1.596,3.848,2.475,6.137,2.443c2.289-0.032,4.471-0.972,6.066-2.614l12.117-12.544
		C504.25,147.073,504.136,141.643,500.737,138.327z M162.475,438.615c-19.487,20.195-49.222,26.66-75.334,16.379
		c-26.113-10.281-43.459-35.282-43.947-63.342s15.977-53.649,41.716-64.833c25.739-11.183,55.681-5.757,75.859,13.747
		C188.277,367.187,189.04,411.053,162.475,438.615z M403.03,164.524l-24.917-24.064l36.096-37.461l25.003,24.064L403.03,164.524z"/>
	<path style="fill:#B82B6A;" d="M258.646,314.113l-0.427,0.341c-3.121,3.271-7.422,5.157-11.943,5.237
		c-4.521,0.08-8.886-1.652-12.121-4.811l-12.715-12.203l-25.003-24.149l-12.629-12.203c-3.272-3.139-5.157-7.453-5.237-11.986
		c-0.08-4.533,1.651-8.911,4.81-12.163l0.341-0.427c6.575-6.731,17.341-6.921,24.149-0.427l12.715,12.288l24.917,24.064
		l12.715,12.288C264.993,296.52,265.184,307.322,258.646,314.113z"/>
	<g>
		<path d="M397.124,170.672c1.592,1.536,3.717,2.395,5.929,2.396h0.15c2.262-0.042,4.415-0.978,5.988-2.604l36.154-37.437
			c3.274-3.39,3.18-8.792-0.208-12.067l-24.958-24.104c-1.623-1.581-3.813-2.445-6.079-2.396c-2.262,0.042-4.415,0.978-5.987,2.604
			l-36.154,37.438c-3.274,3.39-3.18,8.792,0.208,12.067L397.124,170.672z M414.457,115.06l12.683,12.246l-24.296,25.162
			l-12.683-12.246L414.457,115.06z"/>
		<path d="M31.536,312.205c-43.137,44.753-41.861,115.992,2.851,159.171s115.952,41.971,159.174-2.701
			c36.412-37.489,42.084-95.166,13.673-139.03l14.41-14.921l6.542,6.318c4.727,4.581,11.055,7.138,17.637,7.125
			c7.164-0.026,14.008-2.972,18.95-8.158c4.717-4.884,7.301-11.441,7.183-18.23c-0.118-6.789-2.928-13.253-7.812-17.97l-6.542-6.318
			l96.605-100.036l56.25,54.325c3.257,3.212,7.686,4.952,12.258,4.817c4.563-0.064,8.91-1.95,12.075-5.238l12.05-12.479
			c6.588-6.842,6.4-17.723-0.421-24.333l-6.342-6.125l24.296-25.158l6.338,6.121c6.84,6.592,17.725,6.404,24.333-0.421l12.05-12.479
			c6.588-6.842,6.4-17.723-0.421-24.333l-56.258-54.325l23.475-24.312c9.1-9.135,10.348-23.477,2.962-34.046
			c-4.521-6.136-11.515-9.969-19.119-10.482s-15.048,2.349-20.352,7.823L220.366,241.532l-6.542-6.318
			c-4.872-4.734-11.437-7.32-18.229-7.179c-6.98,0.14-13.604,3.105-18.358,8.217c-4.717,4.883-7.301,11.44-7.183,18.228
			c0.118,6.788,2.928,13.252,7.813,17.968l6.543,6.319L170,293.687C125.173,266.821,67.728,274.504,31.536,312.205z M449.661,28.664
			c1.793-1.881,4.339-2.853,6.929-2.646c2.624,0.166,5.034,1.501,6.567,3.638c2.443,3.851,1.795,8.896-1.542,12.004l-29.404,30.446
			c-1.573,1.627-2.435,3.813-2.396,6.076c0.039,2.263,0.976,4.418,2.604,5.99l62.4,60.454l-12.25,12.483l-12.475-12.05
			c-1.62-1.586-3.813-2.45-6.079-2.396c-2.262,0.042-4.415,0.978-5.988,2.604l-36.154,37.437c-1.573,1.627-2.435,3.813-2.396,6.077
			c0.039,2.263,0.976,4.418,2.604,5.99l12.483,12.25l-12.25,12.484l-62.392-60.254c-1.66-1.524-3.826-2.378-6.079-2.396
			c-2.262,0.042-4.415,0.978-5.987,2.604L245.325,265.635l-12.682-12.247L449.661,28.664z M189.907,247.701
			c1.567-1.631,3.721-2.569,5.983-2.604c2.271-0.091,4.475,0.777,6.075,2.392l50.325,48.6c1.631,1.567,2.569,3.721,2.604,5.983
			c0.005,2.452-1.002,4.798-2.783,6.483c-3.279,3.377-8.671,3.472-12.067,0.212l-50.321-48.596
			c-1.634-1.567-2.572-3.724-2.604-5.988C187.11,251.731,188.119,249.383,189.907,247.701L189.907,247.701z M209.367,302.868
			l-19.197,19.879c-0.198,0.271-0.38,0.554-0.542,0.848c-0.35,0.441-0.655,0.918-0.908,1.421c-0.23,0.49-0.411,1.001-0.541,1.527
			c-0.303,1.039-0.374,2.131-0.208,3.2c0.059,0.53,0.17,1.053,0.332,1.562c0.188,0.542,0.432,1.063,0.728,1.554
			c0.121,0.306,0.26,0.604,0.418,0.893c29.486,39.977,23.419,95.88-13.958,128.6s-93.591,31.34-129.317-3.175
			c-35.736-34.499-39.077-90.626-7.685-129.12s87.044-46.513,128.026-18.447c0.281,0.14,0.569,0.263,0.865,0.369
			c0.961,0.545,2.027,0.876,3.128,0.971c0.284,0.029,0.556,0.16,0.841,0.16c0.249,0,0.482-0.124,0.73-0.145
			c0.581-0.053,1.155-0.167,1.711-0.341c1.078-0.304,2.074-0.846,2.915-1.585c0.27-0.162,0.531-0.34,0.781-0.533l19.199-19.884
			L209.367,302.868z"/>
		<path d="M111.19,312.56c-42.758,0.719-76.94,35.776-76.579,78.538c0.361,42.762,35.131,77.237,77.895,77.233
			c0.467,0,0.933,0,1.4-0.009c27.861-0.432,53.369-15.714,66.894-40.076c13.525-24.362,13.006-54.093-1.36-77.968
			C165.074,326.403,139.049,312.02,111.19,312.56L111.19,312.56z M156.328,432.714c-20.172,20.943-52.33,24.715-76.8,9.008
			s-34.434-46.514-23.794-73.575s38.917-42.834,67.532-37.668c28.615,5.165,49.593,29.829,50.1,58.902
			C173.648,405.511,167.521,421.095,156.328,432.714L156.328,432.714z"/>
	</g>
</g>
<g>
</g>
<g>
</g>
<g>
</g>
<g>
</g>
<g>
</g>
<g>
</g>
<g>
</g>
<g>
</g>
<g>
</g>
<g>
</g>
<g>
</g>
<g>
</g>
<g>
</g>
<g>
</g>
<g>
</g>
</svg>
