<?xml version="1.0" encoding="iso-8859-1"?>
<!-- Generator: Adobe Illustrator 19.0.0, SVG Export Plug-In . SVG Version: 6.00 Build 0)  -->
<svg version="1.1" id="Capa_1" xmlns="http://www.w3.org/2000/svg" xmlns:xlink="http://www.w3.org/1999/xlink" x="0px" y="0px"
	 viewBox="0 0 512 512" style="enable-background:new 0 0 512 512;" xml:space="preserve">
<g>
	<g>
		<path style="fill:#EACA6F;" d="M486.4,8.533H25.6C16.186,8.561,8.561,16.186,8.533,25.6v460.8
			c0.028,9.414,7.653,17.039,17.067,17.067h460.8c9.414-0.028,17.039-7.653,17.067-17.067V25.6
			C503.439,16.186,495.814,8.561,486.4,8.533z M418.133,418.133c-0.014,4.707-3.826,8.519-8.533,8.533H102.4
			c-4.707-0.014-8.519-3.826-8.533-8.533V93.867c0.014-4.707,3.826-8.519,8.533-8.533h307.2c4.707,0.014,8.519,3.826,8.533,8.533
			V418.133z"/>
		<circle style="fill:#EACA6F;" cx="59.733" cy="59.733" r="17.067"/>
		<circle style="fill:#EACA6F;" cx="452.267" cy="59.733" r="17.067"/>
		<circle style="fill:#EACA6F;" cx="59.733" cy="452.267" r="17.067"/>
		<circle style="fill:#EACA6F;" cx="452.267" cy="452.267" r="17.067"/>
	</g>
	<path style="fill:#FFA300;" d="M486.4,8.533H25.6C16.186,8.561,8.561,16.186,8.533,25.6v460.8
		c0.028,9.414,7.653,17.039,17.067,17.067h460.8c9.414-0.028,17.039-7.653,17.067-17.067V25.6
		C503.439,16.186,495.814,8.561,486.4,8.533z"/>
	<path style="fill:#FFC500;" d="M460.8,8.533H25.6C16.186,8.561,8.561,16.186,8.533,25.6v460.8
		c0.028,9.414,7.653,17.039,17.067,17.067h435.2c9.414-0.028,17.039-7.653,17.067-17.067V25.6
		C477.839,16.186,470.214,8.561,460.8,8.533z"/>
	<path style="fill:#FFBA00;" d="M187.733,85.333V153.6H93.867V93.867c0.014-4.707,3.826-8.519,8.533-8.533H187.733z"/>
	<path style="fill:#F48B00;" d="M418.133,93.867V153.6h-230.4V85.333H409.6C414.307,85.347,418.119,89.16,418.133,93.867
		L418.133,93.867z"/>
	<rect x="93.867" y="153.6" style="fill:#FFE749;" width="238.933" height="68.267"/>
	<g>
		<rect x="332.8" y="153.6" style="fill:#F48B00;" width="85.333" height="68.267"/>
		<rect x="187.733" y="221.867" style="fill:#F48B00;" width="230.4" height="68.267"/>
	</g>
	<rect x="93.867" y="221.867" style="fill:#FFBA00;" width="93.867" height="68.267"/>
	<rect x="93.867" y="290.133" style="fill:#FFE749;" width="238.933" height="68.267"/>
	<g>
		<rect x="332.8" y="290.133" style="fill:#F48B00;" width="85.333" height="68.267"/>
		<path style="fill:#F48B00;" d="M418.133,358.4v59.733c-0.014,4.707-3.826,8.519-8.533,8.533H187.733V358.4H418.133z"/>
	</g>
	<path style="fill:#FFA300;" d="M384,93.867V153.6H153.6V85.333h221.867C380.174,85.347,383.986,89.16,384,93.867L384,93.867z"/>
	<rect x="298.667" y="153.6" style="fill:#FFBA00;" width="85.333" height="68.267"/>
	<rect x="153.6" y="221.867" style="fill:#FFA300;" width="230.4" height="68.267"/>
	<g>
		<rect x="298.667" y="290.133" style="fill:#FFBA00;" width="85.333" height="68.267"/>
		<path style="fill:#FFBA00;" d="M187.733,358.4v68.267H102.4c-4.707-0.014-8.519-3.826-8.533-8.533V358.4H187.733z"/>
	</g>
	<circle style="fill:#FFE749;" cx="59.733" cy="59.733" r="17.067"/>
	<path style="fill:#FFA300;" d="M384,358.4v59.733c-0.014,4.707-3.826,8.519-8.533,8.533H153.6V358.4H384z"/>
	<g>
		<circle style="fill:#FFE749;" cx="452.267" cy="59.733" r="17.067"/>
		<circle style="fill:#FFE749;" cx="59.733" cy="452.267" r="17.067"/>
		<circle style="fill:#FFE749;" cx="452.267" cy="452.267" r="17.067"/>
	</g>
	<g>
		<path d="M486.4,0H25.6C11.468,0.015,0.015,11.468,0,25.6v460.8c0.015,14.132,11.468,25.585,25.6,25.6h460.8
			c14.132-0.015,25.585-11.468,25.6-25.6V25.6C511.985,11.468,500.532,0.015,486.4,0z M494.933,486.4
			c-0.005,4.711-3.822,8.529-8.533,8.533H25.6c-4.711-0.005-8.529-3.822-8.533-8.533V25.6c0.005-4.711,3.822-8.529,8.533-8.533
			h460.8c4.711,0.005,8.529,3.822,8.533,8.533V486.4z"/>
		<path d="M426.667,93.867c-0.011-9.421-7.645-17.056-17.067-17.067H102.4c-9.421,0.011-17.056,7.645-17.067,17.067v324.267
			c0.011,9.421,7.645,17.056,17.067,17.067h307.2c9.421-0.011,17.056-7.645,17.067-17.067V93.867z M102.4,349.867v-51.2h221.867
			v51.2H102.4z M324.267,162.133v51.2H102.4v-51.2H324.267z M409.6,162.133v51.2h-68.267v-51.2H409.6z M196.267,281.6v-51.2H409.6
			v51.2H196.267z M102.4,281.6v-51.2h76.8v51.2H102.4z M341.333,298.667H409.6v51.2h-68.267V298.667z M409.6,145.067H196.267v-51.2
			H409.6V145.067z M179.2,93.867v51.2h-76.8v-51.2H179.2z M102.4,366.933h76.8v51.209l-76.8,0.003V366.933z M196.267,418.142
			v-51.209H409.6v51.2L196.267,418.142z"/>
		<path d="M59.733,85.333c14.138,0,25.6-11.462,25.6-25.6s-11.462-25.6-25.6-25.6s-25.6,11.462-25.6,25.6
			C34.149,73.865,45.601,85.318,59.733,85.333L59.733,85.333z M59.733,51.2c4.713,0,8.533,3.821,8.533,8.533
			s-3.821,8.533-8.533,8.533S51.2,64.446,51.2,59.733C51.205,55.022,55.022,51.205,59.733,51.2L59.733,51.2z"/>
		<path d="M452.267,34.133c-14.138,0-25.6,11.462-25.6,25.6s11.462,25.6,25.6,25.6s25.6-11.462,25.6-25.6
			C477.851,45.601,466.399,34.149,452.267,34.133z M452.267,68.267c-4.713,0-8.533-3.821-8.533-8.533s3.82-8.533,8.533-8.533
			s8.533,3.821,8.533,8.533C460.795,64.444,456.978,68.262,452.267,68.267L452.267,68.267z"/>
		<path d="M59.733,426.667c-14.138,0-25.6,11.462-25.6,25.6s11.462,25.6,25.6,25.6s25.6-11.462,25.6-25.6
			C85.318,438.135,73.865,426.682,59.733,426.667L59.733,426.667z M59.733,460.8c-4.713,0-8.533-3.82-8.533-8.533
			s3.821-8.533,8.533-8.533s8.533,3.82,8.533,8.533C68.262,456.978,64.444,460.795,59.733,460.8L59.733,460.8z"/>
		<path d="M452.267,426.667c-14.138,0-25.6,11.462-25.6,25.6s11.462,25.6,25.6,25.6s25.6-11.462,25.6-25.6
			C477.851,438.135,466.399,426.682,452.267,426.667L452.267,426.667z M452.267,460.8c-4.713,0-8.533-3.82-8.533-8.533
			s3.82-8.533,8.533-8.533s8.533,3.82,8.533,8.533C460.795,456.978,456.978,460.795,452.267,460.8z"/>
	</g>
</g>
<g>
</g>
<g>
</g>
<g>
</g>
<g>
</g>
<g>
</g>
<g>
</g>
<g>
</g>
<g>
</g>
<g>
</g>
<g>
</g>
<g>
</g>
<g>
</g>
<g>
</g>
<g>
</g>
<g>
</g>
</svg>
