<?xml version="1.0" encoding="iso-8859-1"?>
<!-- Generator: Adobe Illustrator 19.0.0, SVG Export Plug-In . SVG Version: 6.00 Build 0)  -->
<svg version="1.1" id="Capa_1" xmlns="http://www.w3.org/2000/svg" xmlns:xlink="http://www.w3.org/1999/xlink" x="0px" y="0px"
	 viewBox="0 0 512 512" style="enable-background:new 0 0 512 512;" xml:space="preserve">
<g>
	<path style="fill:#FFBA00;" d="M238.933,59.733h34.133c84.831,0,153.6,68.769,153.6,153.6v187.733H85.333V213.333
		C85.333,128.502,154.102,59.733,238.933,59.733z"/>
	<path style="fill:#EC9130;" d="M76.8,401.067h358.4c18.851,0,34.133,15.282,34.133,34.133v17.067H42.667V435.2
		C42.667,416.349,57.949,401.067,76.8,401.067z"/>
	<g>
		<path style="fill:#EB3A76;" d="M256,8.533L256,8.533c18.851,0,34.133,15.282,34.133,34.133v17.067h-68.267V42.667
			C221.867,23.815,237.149,8.533,256,8.533z"/>
		<path style="fill:#EB3A76;" d="M204.8,452.267c0,28.277,22.923,51.2,51.2,51.2s51.2-22.923,51.2-51.2"/>
	</g>
	<path style="fill:#B82B6A;" d="M426.667,213.333v197.291H85.333V213.333c0.007-84.828,68.772-153.593,153.6-153.6h34.133
		C357.895,59.74,426.66,128.505,426.667,213.333z"/>
	<path style="fill:#EB3A76;" d="M392.533,213.333v197.291h-307.2V213.333c0-84.831,68.769-153.6,153.6-153.6
		S392.533,128.502,392.533,213.333z"/>
	<path style="fill:#7F34A5;" d="M469.333,435.2v17.067H42.667V435.2c-0.003-9.053,3.593-17.737,9.995-24.139
		s15.085-9.997,24.139-9.995h358.4c9.054-0.003,17.737,3.593,24.139,9.995C465.741,417.463,469.336,426.147,469.333,435.2
		L469.333,435.2z"/>
	<path style="fill:#AA44B9;" d="M426.667,435.2v17.067h-384V435.2c-0.003-9.053,3.593-17.737,9.995-24.139
		s15.085-9.997,24.139-9.995h315.733c9.053-0.003,17.737,3.593,24.139,9.995S426.669,426.147,426.667,435.2L426.667,435.2z"/>
	<rect x="85.333" y="298.667" style="fill:#583EAB;" width="341.333" height="59.733"/>
	<rect x="85.333" y="298.667" style="fill:#7B54BF;" width="307.2" height="59.733"/>
	<path d="M42.667,460.8h154.282C201.155,490.18,226.32,512,256,512s54.846-21.819,59.052-51.2h154.281
		c2.263,0.001,4.434-0.898,6.035-2.499c1.6-1.6,2.499-3.771,2.499-6.035V435.2c-0.028-23.553-19.114-42.639-42.667-42.667v-179.2
		c-0.141-79.572-57.967-147.299-136.533-159.91V42.667C298.667,19.103,279.564,0,256,0s-42.667,19.103-42.667,42.667v10.757
		C134.767,66.034,76.941,133.761,76.8,213.333v179.2c-23.553,0.028-42.639,19.114-42.667,42.667v17.067
		c-0.001,2.263,0.898,4.434,2.499,6.035C38.232,459.902,40.403,460.801,42.667,460.8z M256,494.933
		c-20.265-0.028-37.724-14.283-41.804-34.133h83.608C293.724,480.65,276.265,494.906,256,494.933z M93.867,307.2h324.267v42.667
		H93.867V307.2z M230.4,51.2v-8.533c0-14.138,11.462-25.6,25.6-25.6s25.6,11.462,25.6,25.6V51.2H230.4z M238.933,68.267h34.133
		c80.081,0.089,144.977,64.986,145.067,145.067v76.8H93.867v-76.8C93.956,133.252,158.852,68.356,238.933,68.267z M93.867,366.933
		h324.267v25.6H93.867V366.933z M51.2,435.2c0.015-14.132,11.468-25.585,25.6-25.6h358.4c14.132,0.015,25.585,11.468,25.6,25.6
		v8.533H51.2V435.2z"/>
</g>
<g>
</g>
<g>
</g>
<g>
</g>
<g>
</g>
<g>
</g>
<g>
</g>
<g>
</g>
<g>
</g>
<g>
</g>
<g>
</g>
<g>
</g>
<g>
</g>
<g>
</g>
<g>
</g>
<g>
</g>
</svg>
