<?xml version="1.0" encoding="iso-8859-1"?>
<!-- Generator: Adobe Illustrator 19.0.0, SVG Export Plug-In . SVG Version: 6.00 Build 0)  -->
<svg version="1.1" id="Capa_1" xmlns="http://www.w3.org/2000/svg" xmlns:xlink="http://www.w3.org/1999/xlink" x="0px" y="0px"
	 viewBox="0 0 512 512" style="enable-background:new 0 0 512 512;" xml:space="preserve">
<g>
	<path style="fill:#147CC7;" d="M486.4,93.867v51.2c9.414,0.027,17.039,7.652,17.067,17.067v51.2
		c-0.028,9.414-7.653,17.039-17.067,17.067v51.2c9.414,0.028,17.039,7.652,17.067,17.067v51.2
		c-0.028,9.414-7.653,17.039-17.067,17.067v51.2c9.414,0.027,17.039,7.652,17.067,17.067v51.2
		c-0.028,9.414-7.653,17.039-17.067,17.067H187.733c-9.414-0.028-17.039-7.653-17.067-17.067h-51.2
		c-0.028,9.414-7.653,17.039-17.067,17.067H25.6c-9.414-0.028-17.039-7.653-17.067-17.067v-51.2
		c0.028-9.414,7.652-17.039,17.067-17.067v-51.2c-9.414-0.028-17.039-7.652-17.067-17.067v-51.2
		c0.028-9.414,7.652-17.039,17.067-17.067v-51.2c-9.414-0.028-17.039-7.653-17.067-17.067v-51.2
		c0.028-9.414,7.652-17.039,17.067-17.067v-51.2C16.186,93.839,8.561,86.214,8.533,76.8V25.6C8.561,16.186,16.186,8.561,25.6,8.533
		h298.667c9.414,0.028,17.039,7.652,17.067,17.067h51.2c0.027-9.414,7.652-17.039,17.067-17.067h76.8
		c9.414,0.028,17.039,7.652,17.067,17.067v51.2C503.439,86.214,495.814,93.839,486.4,93.867z"/>
	<path style="fill:#00B3F2;" d="M452.267,93.867v51.2c9.414,0.027,17.039,7.652,17.067,17.067v51.2
		c-0.028,9.414-7.652,17.039-17.067,17.067v51.2c9.414,0.028,17.039,7.652,17.067,17.067v51.2
		c-0.028,9.414-7.652,17.039-17.067,17.067v51.2c9.414,0.027,17.039,7.652,17.067,17.067v51.2
		c-0.028,9.414-7.652,17.039-17.067,17.067H187.733c-9.414-0.028-17.039-7.653-17.067-17.067H85.333
		c-0.028,9.414-7.653,17.039-17.067,17.067H25.6c-9.414-0.028-17.039-7.653-17.067-17.067v-51.2
		c0.028-9.414,7.652-17.039,17.067-17.067v-51.2c-9.414-0.028-17.039-7.652-17.067-17.067v-51.2
		c0.028-9.414,7.652-17.039,17.067-17.067v-51.2c-9.414-0.028-17.039-7.653-17.067-17.067v-51.2
		c0.028-9.414,7.652-17.039,17.067-17.067v-51.2C16.186,93.839,8.561,86.214,8.533,76.8V25.6C8.561,16.186,16.186,8.561,25.6,8.533
		h264.533c9.414,0.028,17.039,7.652,17.067,17.067h85.333c0.027-9.414,7.652-17.039,17.067-17.067h42.667
		c9.414,0.028,17.039,7.652,17.067,17.067v51.2C469.306,86.214,461.681,93.839,452.267,93.867z"/>
	<path style="fill:#CD4F38;" d="M25.6,8.533h298.667c9.426,0,17.067,7.641,17.067,17.067v51.2c0,9.426-7.641,17.067-17.067,17.067
		H25.6c-9.426,0-17.067-7.641-17.067-17.067V25.6C8.533,16.174,16.174,8.533,25.6,8.533z"/>
	<path style="fill:#DC6C33;" d="M409.6,8.533h76.8c9.426,0,17.067,7.641,17.067,17.067v51.2c0,9.426-7.641,17.067-17.067,17.067
		h-76.8c-9.426,0-17.067-7.641-17.067-17.067V25.6C392.533,16.174,400.174,8.533,409.6,8.533z"/>
	<path style="fill:#CD4F38;" d="M187.733,418.133H486.4c9.426,0,17.067,7.641,17.067,17.067v51.2
		c0,9.426-7.641,17.067-17.067,17.067H187.733c-9.426,0-17.067-7.641-17.067-17.067v-51.2
		C170.667,425.774,178.308,418.133,187.733,418.133z"/>
	<g>
		<path style="fill:#DC6C33;" d="M25.6,418.133h76.8c9.426,0,17.067,7.641,17.067,17.067v51.2c0,9.426-7.641,17.067-17.067,17.067
			H25.6c-9.426,0-17.067-7.641-17.067-17.067v-51.2C8.533,425.774,16.174,418.133,25.6,418.133z"/>
		<path style="fill:#DC6C33;" d="M25.6,281.6h298.667c9.426,0,17.067,7.641,17.067,17.067v51.2c0,9.426-7.641,17.067-17.067,17.067
			H25.6c-9.426,0-17.067-7.641-17.067-17.067v-51.2C8.533,289.241,16.174,281.6,25.6,281.6z"/>
	</g>
	<path style="fill:#CD4F38;" d="M409.6,281.6h76.8c9.426,0,17.067,7.641,17.067,17.067v51.2c0,9.426-7.641,17.067-17.067,17.067
		h-76.8c-9.426,0-17.067-7.641-17.067-17.067v-51.2C392.533,289.241,400.174,281.6,409.6,281.6z"/>
	<path style="fill:#ED634C;" d="M187.733,145.067H486.4c9.426,0,17.067,7.641,17.067,17.067v51.2
		c0,9.426-7.641,17.067-17.067,17.067H187.733c-9.426,0-17.067-7.641-17.067-17.067v-51.2
		C170.667,152.708,178.308,145.067,187.733,145.067z"/>
	<path style="fill:#EC9130;" d="M25.6,145.067h76.8c9.426,0,17.067,7.641,17.067,17.067v51.2c0,9.426-7.641,17.067-17.067,17.067
		H25.6c-9.426,0-17.067-7.641-17.067-17.067v-51.2C8.533,152.708,16.174,145.067,25.6,145.067z"/>
	<path style="fill:#007B6F;" d="M25.6,8.533h298.667c9.426,0,17.067,7.641,17.067,17.067v51.2c0,9.426-7.641,17.067-17.067,17.067
		H25.6c-9.426,0-17.067-7.641-17.067-17.067V25.6C8.533,16.174,16.174,8.533,25.6,8.533z"/>
	<path style="fill:#7F34A5;" d="M409.6,8.533h76.8c9.426,0,17.067,7.641,17.067,17.067v51.2c0,9.426-7.641,17.067-17.067,17.067
		h-76.8c-9.426,0-17.067-7.641-17.067-17.067V25.6C392.533,16.174,400.174,8.533,409.6,8.533z"/>
	<path style="fill:#007B6F;" d="M187.733,418.133H486.4c9.426,0,17.067,7.641,17.067,17.067v51.2
		c0,9.426-7.641,17.067-17.067,17.067H187.733c-9.426,0-17.067-7.641-17.067-17.067v-51.2
		C170.667,425.774,178.308,418.133,187.733,418.133z"/>
	<path style="fill:#7F34A5;" d="M25.6,418.133h76.8c9.426,0,17.067,7.641,17.067,17.067v51.2c0,9.426-7.641,17.067-17.067,17.067
		H25.6c-9.426,0-17.067-7.641-17.067-17.067v-51.2C8.533,425.774,16.174,418.133,25.6,418.133z"/>
	<path style="fill:#007B6F;" d="M25.6,281.6h298.667c9.426,0,17.067,7.641,17.067,17.067v51.2c0,9.426-7.641,17.067-17.067,17.067
		H25.6c-9.426,0-17.067-7.641-17.067-17.067v-51.2C8.533,289.241,16.174,281.6,25.6,281.6z"/>
	<path style="fill:#7F34A5;" d="M409.6,281.6h76.8c9.426,0,17.067,7.641,17.067,17.067v51.2c0,9.426-7.641,17.067-17.067,17.067
		h-76.8c-9.426,0-17.067-7.641-17.067-17.067v-51.2C392.533,289.241,400.174,281.6,409.6,281.6z"/>
	<path style="fill:#007B6F;" d="M187.733,145.067H486.4c9.426,0,17.067,7.641,17.067,17.067v51.2
		c0,9.426-7.641,17.067-17.067,17.067H187.733c-9.426,0-17.067-7.641-17.067-17.067v-51.2
		C170.667,152.708,178.308,145.067,187.733,145.067z"/>
	<g>
		<path style="fill:#00A095;" d="M298.667,25.6v51.2c0.535,8.798-6.09,16.397-14.879,17.067H23.412
			C14.623,93.197,7.998,85.598,8.533,76.8V25.6c-0.535-8.798,6.09-16.397,14.879-17.067h260.376
			C292.577,9.203,299.202,16.802,298.667,25.6L298.667,25.6z"/>
		<path style="fill:#00A095;" d="M460.8,435.2v51.2c0.535,8.798-6.09,16.397-14.879,17.067H185.545
			c-8.789-0.669-15.414-8.269-14.879-17.067v-51.2c-0.535-8.798,6.09-16.397,14.879-17.067h260.376
			C454.71,418.803,461.335,426.402,460.8,435.2L460.8,435.2z"/>
		<path style="fill:#00A095;" d="M298.667,298.667v51.2c0.535,8.798-6.09,16.397-14.879,17.067H23.412
			c-8.789-0.669-15.414-8.269-14.879-17.067v-51.2c-0.535-8.798,6.09-16.397,14.879-17.067h260.376
			C292.577,282.269,299.202,289.869,298.667,298.667L298.667,298.667z"/>
		<path style="fill:#00A095;" d="M460.8,162.133v51.2c0.535,8.798-6.09,16.397-14.879,17.067H185.545
			c-8.789-0.669-15.414-8.269-14.879-17.067v-51.2c-0.535-8.798,6.09-16.397,14.879-17.067h260.376
			C454.71,145.736,461.335,153.335,460.8,162.133z"/>
	</g>
	<path style="fill:#7F34A5;" d="M25.6,145.067h76.8c9.426,0,17.067,7.641,17.067,17.067v51.2c0,9.426-7.641,17.067-17.067,17.067
		H25.6c-9.426,0-17.067-7.641-17.067-17.067v-51.2C8.533,152.708,16.174,145.067,25.6,145.067z"/>
	<g>
		<path style="fill:#7B54BF;" d="M469.333,25.6v51.2c0,9.387-5.317,17.067-11.815,17.067h-53.169
			c-6.498,0-11.815-7.68-11.815-17.067V25.6c0-9.387,5.317-17.067,11.815-17.067h53.169C464.016,8.533,469.333,16.213,469.333,25.6z
			"/>
		<path style="fill:#7B54BF;" d="M85.333,435.2v51.2c0,9.387-5.317,17.067-11.815,17.067H20.349c-6.498,0-11.815-7.68-11.815-17.067
			v-51.2c0-9.387,5.317-17.067,11.815-17.067h53.169C80.016,418.133,85.333,425.813,85.333,435.2z"/>
		<path style="fill:#7B54BF;" d="M469.333,298.667v51.2c0,9.387-5.317,17.067-11.815,17.067h-53.169
			c-6.498,0-11.815-7.68-11.815-17.067v-51.2c0-9.387,5.317-17.067,11.815-17.067h53.169
			C464.016,281.6,469.333,289.28,469.333,298.667z"/>
		<path style="fill:#7B54BF;" d="M85.333,162.133v51.2c0,9.387-5.317,17.067-11.815,17.067H20.349
			c-6.498,0-11.815-7.68-11.815-17.067v-51.2c0-9.387,5.317-17.067,11.815-17.067h53.169
			C80.016,145.067,85.333,152.747,85.333,162.133z"/>
	</g>
	<path d="M512,76.8V25.6C511.985,11.468,500.532,0.015,486.4,0h-76.8c-10.813,0.033-20.435,6.868-24.027,17.067h-37.279
		C344.702,6.868,335.08,0.033,324.267,0H25.6C11.468,0.015,0.015,11.468,0,25.6v51.2c0.033,10.813,6.868,20.435,17.067,24.027
		v37.279C6.868,141.698,0.033,151.32,0,162.133v51.2c0.033,10.813,6.868,20.435,17.067,24.027v37.279
		C6.868,278.232,0.033,287.854,0,298.667v51.2c0.033,10.813,6.868,20.435,17.067,24.027v37.279C6.868,414.765,0.033,424.387,0,435.2
		v51.2c0.015,14.132,11.468,25.585,25.6,25.6h76.8c10.813-0.033,20.435-6.868,24.027-17.067h37.279
		c3.592,10.199,13.214,17.034,24.027,17.067H486.4c14.132-0.015,25.585-11.468,25.6-25.6v-51.2
		c-0.033-10.813-6.868-20.435-17.067-24.028v-37.278c10.199-3.592,17.033-13.214,17.067-24.028v-51.2
		c-0.033-10.813-6.868-20.435-17.067-24.028v-37.278c10.199-3.592,17.033-13.214,17.067-24.028v-51.2
		c-0.033-10.813-6.868-20.435-17.067-24.028v-37.278C505.132,97.235,511.967,87.613,512,76.8z M409.6,17.067h76.8
		c4.711,0.005,8.529,3.822,8.533,8.533v51.2c-0.005,4.711-3.822,8.529-8.533,8.533h-76.8c-4.711-0.005-8.529-3.822-8.533-8.533V25.6
		C401.071,20.889,404.889,17.071,409.6,17.067L409.6,17.067z M187.733,136.533c-14.132,0.015-25.585,11.468-25.6,25.6v51.2
		c0.015,14.132,11.468,25.585,25.6,25.6h290.133v34.133H409.6c-14.132,0.015-25.585,11.468-25.6,25.6v51.2
		c0.015,14.132,11.468,25.585,25.6,25.6h68.267V409.6H187.733c-14.132,0.015-25.585,11.468-25.6,25.6v42.667H128V435.2
		c-0.015-14.132-11.468-25.585-25.6-25.6H34.133v-34.133h290.133c14.132-0.015,25.585-11.468,25.6-25.6v-51.2
		c-0.015-14.132-11.468-25.585-25.6-25.6H34.133v-34.133H102.4c14.132-0.015,25.585-11.468,25.6-25.6v-51.2
		c-0.015-14.132-11.468-25.585-25.6-25.6H34.133V102.4h290.133c14.132-0.015,25.585-11.468,25.6-25.6V34.133H384V76.8
		c0.015,14.132,11.468,25.585,25.6,25.6h68.267v34.133H187.733z M17.067,25.6c0.005-4.711,3.822-8.529,8.533-8.533h298.667
		c4.711,0.005,8.529,3.822,8.533,8.533v51.2c-0.005,4.711-3.822,8.529-8.533,8.533H25.6c-4.711-0.005-8.529-3.822-8.533-8.533V25.6z
		 M17.067,162.133c0.005-4.711,3.822-8.529,8.533-8.533h76.8c4.711,0.005,8.529,3.822,8.533,8.533v51.2
		c-0.005,4.711-3.822,8.529-8.533,8.533H25.6c-4.711-0.005-8.529-3.822-8.533-8.533V162.133z M17.067,298.667
		c0.005-4.711,3.822-8.529,8.533-8.533h298.667c4.711,0.005,8.529,3.822,8.533,8.533v51.2c-0.005,4.711-3.822,8.529-8.533,8.533
		H25.6c-4.711-0.005-8.529-3.822-8.533-8.533V298.667z M102.4,494.933H25.6c-4.711-0.005-8.529-3.822-8.533-8.533v-51.2
		c0.005-4.711,3.822-8.529,8.533-8.533h76.8c4.711,0.005,8.529,3.822,8.533,8.533v51.2
		C110.929,491.111,107.111,494.929,102.4,494.933L102.4,494.933z M494.933,486.4c-0.005,4.711-3.822,8.529-8.533,8.533H187.733
		c-4.711-0.005-8.529-3.822-8.533-8.533v-51.2c0.005-4.711,3.822-8.529,8.533-8.533H486.4c4.711,0.005,8.529,3.822,8.533,8.533
		V486.4z M494.933,349.867c-0.005,4.711-3.822,8.529-8.533,8.533h-76.8c-4.711-0.005-8.529-3.822-8.533-8.533v-51.2
		c0.005-4.711,3.822-8.529,8.533-8.533h76.8c4.711,0.005,8.529,3.822,8.533,8.533V349.867z M494.933,213.333
		c-0.005,4.711-3.822,8.529-8.533,8.533H187.733c-4.711-0.005-8.529-3.822-8.533-8.533v-51.2c0.005-4.711,3.822-8.529,8.533-8.533
		H486.4c4.711,0.005,8.529,3.822,8.533,8.533V213.333z"/>
</g>
<g>
</g>
<g>
</g>
<g>
</g>
<g>
</g>
<g>
</g>
<g>
</g>
<g>
</g>
<g>
</g>
<g>
</g>
<g>
</g>
<g>
</g>
<g>
</g>
<g>
</g>
<g>
</g>
<g>
</g>
</svg>
