<?xml version="1.0" encoding="iso-8859-1"?>
<!-- Generator: Adobe Illustrator 19.0.0, SVG Export Plug-In . SVG Version: 6.00 Build 0)  -->
<svg version="1.1" id="Capa_1" xmlns="http://www.w3.org/2000/svg" xmlns:xlink="http://www.w3.org/1999/xlink" x="0px" y="0px"
	 viewBox="0 0 512 512" style="enable-background:new 0 0 512 512;" xml:space="preserve">
<g>
	<ellipse style="fill:#F6AB27;" cx="256" cy="256" rx="179.2" ry="247.467"/>
	<g>
		
			<ellipse style="fill:none;stroke:#000000;stroke-width:2;stroke-linecap:round;stroke-linejoin:round;" cx="256" cy="256" rx="128" ry="196.267"/>
		<path style="fill:none;stroke:#000000;stroke-width:2;stroke-linecap:round;stroke-linejoin:round;" d="M256,119.467L256,119.467
			c18.851,0,34.133,15.282,34.133,34.133v204.8c0,18.851-15.282,34.133-34.133,34.133l0,0c-18.851,0-34.133-15.282-34.133-34.133
			V153.6C221.867,134.749,237.149,119.467,256,119.467z"/>
	</g>
	<g>
		<ellipse style="fill:#A9A62F;" cx="256" cy="256" rx="179.2" ry="247.467"/>
		<ellipse style="fill:#66953E;" cx="256" cy="256" rx="128" ry="196.267"/>
		<ellipse style="fill:#96C65C;" cx="234.667" cy="256" rx="106.667" ry="196.267"/>
		<path style="fill:#A9A62F;" d="M256,119.467L256,119.467c18.851,0,34.133,15.282,34.133,34.133v204.8
			c0,18.851-15.282,34.133-34.133,34.133l0,0c-18.851,0-34.133-15.282-34.133-34.133V153.6
			C221.867,134.749,237.149,119.467,256,119.467z"/>
		<g>
			<path d="M256,0C152.483,0,68.267,114.842,68.267,256S152.483,512,256,512s187.733-114.842,187.733-256S359.517,0,256,0z
				 M256,494.933C161.896,494.933,85.333,387.75,85.333,256S161.896,17.067,256,17.067S426.667,124.25,426.667,256
				S350.104,494.933,256,494.933z"/>
			<path d="M256,51.2c-74.008,0-136.533,93.787-136.533,204.8S181.992,460.8,256,460.8S392.533,367.013,392.533,256
				S330.008,51.2,256,51.2z M256,443.733c-64.758,0-119.467-85.971-119.467-187.733S191.242,68.267,256,68.267
				S375.467,154.238,375.467,256S320.758,443.733,256,443.733z"/>
			<path d="M256,110.933c-23.553,0.028-42.639,19.114-42.667,42.667v204.8c0,23.564,19.103,42.667,42.667,42.667
				s42.667-19.103,42.667-42.667V153.6C298.639,130.047,279.553,110.961,256,110.933L256,110.933z M281.6,358.4
				c0,14.138-11.461,25.6-25.6,25.6c-14.138,0-25.6-11.462-25.6-25.6V153.6c0-14.138,11.462-25.6,25.6-25.6
				c14.139,0,25.6,11.462,25.6,25.6V358.4z"/>
		</g>
	</g>
</g>
<g>
</g>
<g>
</g>
<g>
</g>
<g>
</g>
<g>
</g>
<g>
</g>
<g>
</g>
<g>
</g>
<g>
</g>
<g>
</g>
<g>
</g>
<g>
</g>
<g>
</g>
<g>
</g>
<g>
</g>
</svg>
