<?xml version="1.0" encoding="iso-8859-1"?>
<!-- Generator: Adobe Illustrator 19.0.0, SVG Export Plug-In . SVG Version: 6.00 Build 0)  -->
<svg version="1.1" id="Capa_1" xmlns="http://www.w3.org/2000/svg" xmlns:xlink="http://www.w3.org/1999/xlink" x="0px" y="0px"
	 viewBox="0 0 512.037 512.037" style="enable-background:new 0 0 512.037 512.037;" xml:space="preserve">
<g>
	<g>
		<path style="fill:#A9A62F;" d="M460.819,464.896c-0.095,10.432-4.625,20.331-12.459,27.221
			c-8.323,7.383-19.083,11.425-30.208,11.349H93.885C82.76,503.543,72,499.5,63.677,492.117c-0.939-0.853-1.877-1.792-2.731-2.731
			c-6.185-6.664-9.655-15.399-9.728-24.491c0-139.008,170.667-285.696,170.667-285.696c-9.414-0.028-17.039-7.653-17.067-17.067
			v-17.067c0.028-9.414,7.652-17.039,17.067-17.067c0,0-51.2-8.533-51.2-59.733V25.6c0-9.426,7.641-17.067,17.067-17.067
			c9.426,0,17.067,7.641,17.067,17.067s7.641,17.067,17.067,17.067c9.426,0,17.067-7.641,17.067-17.067s7.641-17.067,17.067-17.067
			c9.426,0,17.067,7.641,17.067,17.067s7.641,17.067,17.067,17.067s17.067-7.641,17.067-17.067s7.641-17.067,17.067-17.067
			s17.067,7.641,17.067,17.067v42.667c0,51.2-51.2,59.733-51.2,59.733c9.414,0.028,17.039,7.652,17.067,17.067v17.067
			c-0.028,9.414-7.653,17.039-17.067,17.067c0,0,13.483,11.605,32.939,31.403c18.483,18.845,35.972,38.641,52.395,59.307
			C418.152,323.925,460.819,395.435,460.819,464.896z"/>
		<path style="fill:#D1DB48;" d="M409.619,464.896c-0.095,10.432-4.625,20.331-12.459,27.221
			c-8.323,7.383-19.083,11.425-30.208,11.349H93.885C82.76,503.543,72,499.5,63.677,492.117c-0.939-0.853-1.877-1.792-2.731-2.731
			c-6.185-6.664-9.655-15.399-9.728-24.491c0-139.008,170.667-285.696,170.667-285.696c-9.414-0.028-17.039-7.653-17.067-17.067
			v-17.067c0.028-9.414,7.652-17.039,17.067-17.067c0,0-51.2-8.533-51.2-59.733v-25.6c9.414-0.028,17.039-7.653,17.067-17.067
			c0-6.093,3.254-11.722,8.533-14.763c5.28,3.041,8.534,8.67,8.533,14.763c-0.009,6.101,3.244,11.74,8.529,14.788
			c5.285,3.048,11.795,3.038,17.071-0.025c5.276,3.063,11.786,3.073,17.071,0.025s8.538-8.687,8.529-14.788
			c0-6.093,3.254-11.722,8.533-14.763c5.28,3.041,8.534,8.67,8.533,14.763c0.028,9.414,7.653,17.039,17.067,17.067v25.6
			c0,51.2-51.2,59.733-51.2,59.733c9.414,0.028,17.039,7.652,17.067,17.067v17.067c-0.028,9.414-7.653,17.039-17.067,17.067
			c0,0,13.483,11.605,32.939,31.403c18.483,18.845,35.972,38.641,52.395,59.307C366.952,323.925,409.619,395.435,409.619,464.896z"
			/>
	</g>
	<path id="SVGCleanerId_0" style="fill:#3A3E48;" d="M221.885,128h68.267c9.426,0,17.067,7.641,17.067,17.067v17.067
		c0,9.426-7.641,17.067-17.067,17.067h-68.267c-9.426,0-17.067-7.641-17.067-17.067v-17.067C204.819,135.641,212.46,128,221.885,128
		z"/>
	<g>
		<path style="fill:#A9A62F;" d="M341.352,25.6v42.667c0,51.2-51.2,59.733-51.2,59.733h-68.267c0,0-51.2-8.533-51.2-59.733V25.6
			c0.028-9.414,7.652-17.039,17.067-17.067c4.528-0.024,8.871,1.793,12.032,5.035c3.241,3.161,5.059,7.504,5.035,12.032
			c-0.024,4.528,1.793,8.871,5.035,12.032c3.175,3.221,7.509,5.035,12.032,5.035s8.857-1.814,12.032-5.035
			c3.242-3.161,5.059-7.504,5.035-12.032c-0.024-4.528,1.793-8.871,5.035-12.032c3.175-3.221,7.509-5.034,12.032-5.034
			c4.523,0,8.857,1.813,12.032,5.034c3.241,3.161,5.059,7.504,5.035,12.032c-0.024,4.528,1.793,8.871,5.035,12.032
			c3.175,3.221,7.509,5.035,12.032,5.035c4.523,0,8.857-1.814,12.032-5.035c3.242-3.161,5.059-7.504,5.035-12.032
			c-0.024-4.528,1.793-8.871,5.035-12.032c3.161-3.241,7.504-5.059,12.032-5.035C333.7,8.561,341.324,16.186,341.352,25.6
			L341.352,25.6z"/>
		<path style="fill:#D1DB48;" d="M307.219,25.6v42.667c0,51.2-51.2,59.733-51.2,59.733h-34.133c0,0-51.2-8.533-51.2-59.733V25.6
			c-0.024,4.528,1.793,8.871,5.035,12.032c3.175,3.221,7.509,5.035,12.032,5.035c4.523,0,8.857-1.814,12.032-5.035
			c3.242-3.161,5.059-7.504,5.035-12.032c-0.024,4.528,1.793,8.871,5.035,12.032c3.175,3.221,7.509,5.035,12.032,5.035
			s8.857-1.814,12.032-5.035c3.242-3.161,5.059-7.504,5.035-12.032c-0.024,4.528,1.793,8.871,5.035,12.032
			c3.175,3.221,7.509,5.035,12.032,5.035c4.523,0,8.857-1.814,12.032-5.035c3.242-3.161,5.059-7.504,5.035-12.032
			c-0.024,4.528,1.793,8.871,5.035,12.032c3.175,3.221,7.509,5.035,12.032,5.035c4.523,0,8.857-1.814,12.032-5.035
			C305.425,34.471,307.243,30.128,307.219,25.6z"/>
	</g>
	
		<ellipse style="fill:none;stroke:#000000;stroke-width:2;stroke-linecap:round;stroke-linejoin:round;" cx="256.019" cy="358.4" rx="17.067" ry="50.961"/>
	<g>
		<path id="SVGCleanerId_0_1_" style="fill:#3A3E48;" d="M221.885,128h68.267c9.426,0,17.067,7.641,17.067,17.067v17.067
			c0,9.426-7.641,17.067-17.067,17.067h-68.267c-9.426,0-17.067-7.641-17.067-17.067v-17.067
			C204.819,135.641,212.46,128,221.885,128z"/>
	</g>
	<g>
		<ellipse style="fill:#FFBA00;" cx="256.019" cy="358.4" rx="51.2" ry="85.333"/>
		<ellipse style="fill:#FFE749;" cx="256.019" cy="358.4" rx="17.067" ry="50.961"/>
		<g>
			<path d="M42.685,464.862c1.197,27.12,24.073,48.182,51.2,47.138h324.267c27.127,1.044,50.003-20.017,51.2-47.138
				c0-122.722-125.645-248.044-163.289-282.834c6.094-4.808,9.662-12.133,9.689-19.895v-17.067
				c-0.013-5.408-1.754-10.67-4.968-15.019c24.26-10.871,39.659-35.203,39.101-61.781V25.6c0-14.138-11.462-25.6-25.6-25.6
				s-25.6,11.462-25.6,25.6c0,4.713-3.82,8.533-8.533,8.533s-8.533-3.821-8.533-8.533c0-14.138-11.462-25.6-25.6-25.6
				s-25.6,11.462-25.6,25.6c0,4.713-3.821,8.533-8.533,8.533c-4.713,0-8.533-3.821-8.533-8.533c0-14.138-11.462-25.6-25.6-25.6
				c-14.138,0-25.6,11.462-25.6,25.6v42.667c-0.558,26.578,14.842,50.91,39.101,61.781c-3.214,4.349-4.954,9.611-4.968,15.019
				v17.067c0.027,7.762,3.595,15.088,9.689,19.895C168.33,216.819,42.685,342.14,42.685,464.862z M221.885,170.667
				c-4.71-0.006-8.527-3.823-8.533-8.533v-17.067c0.006-4.71,3.823-8.527,8.533-8.533h68.267c4.71,0.006,8.527,3.823,8.533,8.533
				v17.067c-0.006,4.71-3.823,8.527-8.533,8.533H221.885z M179.219,68.267V25.6c0-4.713,3.821-8.533,8.533-8.533
				c4.713,0,8.533,3.821,8.533,8.533c0,14.138,11.462,25.6,25.6,25.6c14.138,0,25.6-11.462,25.6-25.6
				c0-4.713,3.821-8.533,8.533-8.533s8.533,3.821,8.533,8.533c0,14.138,11.462,25.6,25.6,25.6s25.6-11.462,25.6-25.6
				c0-4.713,3.82-8.533,8.533-8.533s8.533,3.821,8.533,8.533v42.667c0,40.883-37.946,50.079-43.462,51.2h-66.7
				C217.056,118.367,179.219,109.396,179.219,68.267z M225.116,187.733h61.805c20.18,18.057,165.364,152.361,165.364,277.129
				c-1.211,17.686-16.436,31.099-34.133,30.071H93.885c-17.697,1.028-32.922-12.385-34.133-30.071
				C59.752,340.095,204.936,205.79,225.116,187.733z"/>
			<path d="M256.019,452.267c33.496,0,59.733-41.229,59.733-93.867s-26.238-93.867-59.733-93.867s-59.733,41.229-59.733,93.867
				S222.523,452.267,256.019,452.267z M256.019,281.6c23.129,0,42.667,35.171,42.667,76.8s-19.538,76.8-42.667,76.8
				s-42.667-35.171-42.667-76.8S232.889,281.6,256.019,281.6z"/>
			<path d="M251.748,416.75c2.642,1.528,5.9,1.528,8.542,0c8.858-5.121,21.329-26.613,21.329-58.35s-12.471-53.229-21.329-58.35
				c-2.643-1.525-5.899-1.525-8.542,0c-8.858,5.121-21.329,26.612-21.329,58.35S242.889,411.629,251.748,416.75z M256.006,320.717
				c6.01,11.629,8.952,24.6,8.546,37.683c0.404,13.075-2.533,26.038-8.533,37.662c-6-11.624-8.937-24.587-8.533-37.662
				C247.084,345.32,250.016,332.352,256.006,320.717L256.006,320.717z"/>
		</g>
	</g>
</g>
<g>
</g>
<g>
</g>
<g>
</g>
<g>
</g>
<g>
</g>
<g>
</g>
<g>
</g>
<g>
</g>
<g>
</g>
<g>
</g>
<g>
</g>
<g>
</g>
<g>
</g>
<g>
</g>
<g>
</g>
</svg>
