<?xml version="1.0" encoding="iso-8859-1"?>
<!-- Generator: Adobe Illustrator 19.0.0, SVG Export Plug-In . SVG Version: 6.00 Build 0)  -->
<svg version="1.1" id="Capa_1" xmlns="http://www.w3.org/2000/svg" xmlns:xlink="http://www.w3.org/1999/xlink" x="0px" y="0px"
	 viewBox="0 0 512.006 512.006" style="enable-background:new 0 0 512.006 512.006;" xml:space="preserve">
<g transform="translate(-1 -1)">
	<path style="fill:#B4B4B3;" d="M137.536,436.206H376.47v25.6c0,23.564-19.103,42.667-42.667,42.667h-153.6
		c-23.564,0-42.667-19.103-42.667-42.667V436.206z"/>
	<g>
		<path style="fill:none;stroke:#000000;stroke-width:2;stroke-linecap:round;stroke-linejoin:round;" d="M197.902,188.739H144.1
			c-13.585,0.565-24.152,12.013-23.631,25.6v34.133c-0.522,13.587,10.046,25.035,23.631,25.6h31.508
			c13.585-0.565,24.153-12.013,23.631-25.6v-0.004c-0.163-4.199,2.403-8.023,6.35-9.465c11.741-4.123,18.883-16.02,17.002-28.32
			C220.71,198.384,210.338,189.165,197.902,188.739L197.902,188.739z"/>
		<path style="fill:none;stroke:#000000;stroke-width:2;stroke-linecap:round;stroke-linejoin:round;" d="M316.104,188.739h53.801
			c13.585,0.565,24.153,12.013,23.631,25.6v34.133c0.522,13.587-10.046,25.035-23.631,25.6h-31.508
			c-13.585-0.565-24.152-12.013-23.631-25.6v-0.004c0.163-4.199-2.403-8.023-6.35-9.465c-11.741-4.123-18.883-16.02-17.002-28.32
			C293.296,198.384,303.668,189.165,316.104,188.739L316.104,188.739z"/>
	</g>
	<path id="SVGCleanerId_0" style="fill:#717275;" d="M171.67,461.806c-2.263,0.001-4.434-0.898-6.035-2.499
		c-1.6-1.6-2.499-3.771-2.499-6.035v-42.667c0-4.713,3.821-8.533,8.533-8.533c4.713,0,8.533,3.82,8.533,8.533v42.667
		c0.001,2.263-0.898,4.434-2.499,6.035C176.104,460.908,173.933,461.807,171.67,461.806z"/>
	<path id="SVGCleanerId_1" style="fill:#717275;" d="M205.803,461.806c-2.263,0.001-4.434-0.898-6.035-2.499
		c-1.6-1.6-2.499-3.771-2.499-6.035v-42.667c0-4.713,3.821-8.533,8.533-8.533s8.533,3.82,8.533,8.533v42.667
		c0.001,2.263-0.898,4.434-2.499,6.035C210.237,460.908,208.066,461.807,205.803,461.806L205.803,461.806z"/>
	<path id="SVGCleanerId_2" style="fill:#717275;" d="M239.936,461.806c-2.263,0.001-4.434-0.898-6.035-2.499
		c-1.6-1.6-2.499-3.771-2.499-6.035v-42.667c0-4.713,3.82-8.533,8.533-8.533s8.533,3.82,8.533,8.533v42.667
		c0.001,2.263-0.898,4.434-2.499,6.035C244.371,460.908,242.2,461.807,239.936,461.806L239.936,461.806z"/>
	<path id="SVGCleanerId_3" style="fill:#717275;" d="M274.07,461.806c-2.263,0.001-4.434-0.898-6.035-2.499
		c-1.6-1.6-2.499-3.771-2.499-6.035v-42.667c0-4.713,3.821-8.533,8.533-8.533s8.533,3.82,8.533,8.533v42.667
		c0.001,2.263-0.898,4.434-2.499,6.035C278.504,460.908,276.333,461.807,274.07,461.806z"/>
	<path id="SVGCleanerId_4" style="fill:#717275;" d="M308.203,461.806c-2.263,0.001-4.434-0.898-6.035-2.499
		c-1.6-1.6-2.499-3.771-2.499-6.035v-42.667c0-4.713,3.82-8.533,8.533-8.533s8.533,3.82,8.533,8.533v42.667
		c0.001,2.263-0.898,4.434-2.499,6.035C312.637,460.908,310.466,461.807,308.203,461.806L308.203,461.806z"/>
	<path id="SVGCleanerId_5" style="fill:#717275;" d="M342.336,461.806c-2.263,0.001-4.434-0.898-6.035-2.499
		c-1.6-1.6-2.499-3.771-2.499-6.035v-42.667c0-4.713,3.82-8.533,8.533-8.533s8.533,3.82,8.533,8.533v42.667
		c0.001,2.263-0.898,4.434-2.499,6.035C346.771,460.908,344.6,461.807,342.336,461.806z"/>
	<path style="fill:none;stroke:#000000;stroke-width:2;stroke-linecap:round;stroke-linejoin:round;" d="M257.003,274.073
		L257.003,274.073c18.851,0,34.133,15.282,34.133,34.133v42.667H222.87v-42.667C222.87,289.355,238.152,274.073,257.003,274.073z"/>
	<g>
		<path style="fill:#007B6F;" d="M487.403,316.739c0.329,18.254-0.956,36.501-3.84,54.528c-1.579,8.021-8.636,13.788-16.811,13.739
			h-56.149c-9.053-0.003-17.737,3.593-24.139,9.995s-9.997,15.085-9.995,24.139v17.067H137.536v-17.067
			c0.003-9.053-3.593-17.737-9.995-24.139c-6.402-6.402-15.085-9.997-24.139-9.995H47.254c-8.175,0.049-15.231-5.718-16.811-13.739
			c-2.884-18.027-4.169-36.274-3.84-54.528c0.937-24.099,13.337-46.298,33.365-59.733c0.235-0.225,0.492-0.425,0.768-0.597v-50.603
			c0-108.395,87.872-196.267,196.267-196.267S453.27,97.411,453.27,205.806v50.603c0.256,0.171,0.427,0.341,0.683,0.512
			c0.023,0,0.045,0.008,0.061,0.024c0.016,0.016,0.025,0.038,0.025,0.061C474.066,270.441,486.466,292.641,487.403,316.739z"/>
		<path style="fill:#00A095;" d="M453.27,316.739c0.282,18.232-0.811,36.46-3.271,54.528c-0.755,7.473-6.822,13.294-14.32,13.739
			h-47.831c-17.402,1.499-30.363,16.714-29.076,34.133v17.067H155.235v-17.067c1.286-17.419-11.674-32.634-29.076-34.133H78.328
			c-7.498-0.445-13.565-6.266-14.32-13.739c-2.46-18.068-3.553-36.296-3.271-54.528c0.282-23.11,10.668-44.937,28.422-59.733
			c0.196-0.222,0.416-0.422,0.654-0.597v-50.603c0-108.373,74.872-196.267,167.19-196.267
			c45.967,0.744,89.245,21.803,118.196,57.515c32.219,39.006,49.577,88.164,48.994,138.752v50.603
			c0.218,0.171,0.363,0.341,0.582,0.512c0.021,0.001,0.041,0.01,0.055,0.027c0.014,0.016,0.02,0.038,0.018,0.059
			C442.602,271.802,452.988,293.63,453.27,316.739z"/>
		<path style="fill:#008F9B;" d="M137.536,436.206H376.47v25.6c0,23.564-19.103,42.667-42.667,42.667h-153.6
			c-23.564,0-42.667-19.103-42.667-42.667V436.206z"/>
		<path style="fill:#00C2D7;" d="M163.136,436.206H350.87v30.447c0,10.03-3.985,19.65-11.077,26.743
			c-7.093,7.093-16.712,11.077-26.743,11.077H200.956c-20.887,0-37.82-16.932-37.82-37.82V436.206z"/>
		<g>
			<path style="fill:#475962;" d="M197.902,188.739H144.1c-13.585,0.565-24.152,12.013-23.631,25.6v34.133
				c-0.522,13.587,10.046,25.035,23.631,25.6h31.508c13.585-0.565,24.153-12.013,23.631-25.6v-0.004
				c-0.163-4.199,2.403-8.023,6.35-9.465c11.741-4.123,18.883-16.02,17.002-28.32C220.71,198.384,210.338,189.165,197.902,188.739
				L197.902,188.739z"/>
			<path style="fill:#475962;" d="M316.104,188.739h53.801c13.585,0.565,24.153,12.013,23.631,25.6v34.133
				c0.522,13.587-10.046,25.035-23.631,25.6h-31.508c-13.585-0.565-24.152-12.013-23.631-25.6v-0.004
				c0.163-4.199-2.403-8.023-6.35-9.465c-11.741-4.123-18.883-16.02-17.002-28.32C293.296,198.384,303.668,189.165,316.104,188.739
				L316.104,188.739z"/>
		</g>
	</g>
	<g>
		<path id="SVGCleanerId_0_1_" style="fill:#717275;" d="M171.67,461.806c-2.263,0.001-4.434-0.898-6.035-2.499
			c-1.6-1.6-2.499-3.771-2.499-6.035v-42.667c0-4.713,3.821-8.533,8.533-8.533c4.713,0,8.533,3.82,8.533,8.533v42.667
			c0.001,2.263-0.898,4.434-2.499,6.035C176.104,460.908,173.933,461.807,171.67,461.806z"/>
	</g>
	<g>
		<path id="SVGCleanerId_1_1_" style="fill:#717275;" d="M205.803,461.806c-2.263,0.001-4.434-0.898-6.035-2.499
			c-1.6-1.6-2.499-3.771-2.499-6.035v-42.667c0-4.713,3.821-8.533,8.533-8.533s8.533,3.82,8.533,8.533v42.667
			c0.001,2.263-0.898,4.434-2.499,6.035C210.237,460.908,208.066,461.807,205.803,461.806L205.803,461.806z"/>
	</g>
	<g>
		<path id="SVGCleanerId_2_1_" style="fill:#717275;" d="M239.936,461.806c-2.263,0.001-4.434-0.898-6.035-2.499
			c-1.6-1.6-2.499-3.771-2.499-6.035v-42.667c0-4.713,3.82-8.533,8.533-8.533s8.533,3.82,8.533,8.533v42.667
			c0.001,2.263-0.898,4.434-2.499,6.035C244.371,460.908,242.2,461.807,239.936,461.806L239.936,461.806z"/>
	</g>
	<g>
		<path id="SVGCleanerId_3_1_" style="fill:#717275;" d="M274.07,461.806c-2.263,0.001-4.434-0.898-6.035-2.499
			c-1.6-1.6-2.499-3.771-2.499-6.035v-42.667c0-4.713,3.821-8.533,8.533-8.533s8.533,3.82,8.533,8.533v42.667
			c0.001,2.263-0.898,4.434-2.499,6.035C278.504,460.908,276.333,461.807,274.07,461.806z"/>
	</g>
	<g>
		<path id="SVGCleanerId_4_1_" style="fill:#717275;" d="M308.203,461.806c-2.263,0.001-4.434-0.898-6.035-2.499
			c-1.6-1.6-2.499-3.771-2.499-6.035v-42.667c0-4.713,3.82-8.533,8.533-8.533s8.533,3.82,8.533,8.533v42.667
			c0.001,2.263-0.898,4.434-2.499,6.035C312.637,460.908,310.466,461.807,308.203,461.806L308.203,461.806z"/>
	</g>
	<g>
		<path id="SVGCleanerId_5_1_" style="fill:#717275;" d="M342.336,461.806c-2.263,0.001-4.434-0.898-6.035-2.499
			c-1.6-1.6-2.499-3.771-2.499-6.035v-42.667c0-4.713,3.82-8.533,8.533-8.533s8.533,3.82,8.533,8.533v42.667
			c0.001,2.263-0.898,4.434-2.499,6.035C346.771,460.908,344.6,461.807,342.336,461.806z"/>
	</g>
	<g>
		<path style="fill:#475962;" d="M257.003,274.073L257.003,274.073c18.851,0,34.133,15.282,34.133,34.133v25.6
			c0,9.426-7.641,17.067-17.067,17.067h-34.133c-9.426,0-17.067-7.641-17.067-17.067v-25.6
			C222.87,289.355,238.152,274.073,257.003,274.073z"/>
		<g>
			<path d="M401.786,61.023C343.231,2.431,255.142-15.108,178.61,16.588S52.185,122.971,52.203,205.806v46.33
				c-20.834,15.03-33.458,38.923-34.133,64.603c-0.319,18.79,1.028,37.572,4.025,56.125c2.307,12.04,12.865,20.729,25.125,20.675
				h56.183c14.132,0.015,25.585,11.468,25.6,25.6v42.667c0.031,28.264,22.936,51.169,51.2,51.2h153.6
				c28.264-0.031,51.169-22.936,51.2-51.2v-42.667c0.015-14.132,11.468-25.585,25.6-25.6h56.183
				c12.257,0.054,22.814-8.63,25.125-20.667c2.997-18.556,4.344-37.34,4.025-56.133c-0.676-25.68-13.3-49.573-34.133-64.603v-46.33
				C461.938,151.466,440.326,99.331,401.786,61.023z M367.936,461.806c-0.02,18.843-15.29,34.113-34.133,34.133h-153.6
				c-18.843-0.02-34.113-15.29-34.133-34.133v-17.067h17.067v8.533c0,4.713,3.821,8.533,8.533,8.533
				c4.713,0,8.533-3.821,8.533-8.533v-8.533h17.067v8.533c0,4.713,3.821,8.533,8.533,8.533s8.533-3.821,8.533-8.533v-8.533h17.067
				v8.533c0,4.713,3.82,8.533,8.533,8.533s8.533-3.821,8.533-8.533v-8.533h17.067v8.533c0,4.713,3.821,8.533,8.533,8.533
				s8.533-3.821,8.533-8.533v-8.533h17.067v8.533c0,4.713,3.82,8.533,8.533,8.533s8.533-3.821,8.533-8.533v-8.533h17.067v8.533
				c0,4.713,3.82,8.533,8.533,8.533s8.533-3.821,8.533-8.533v-8.533h17.067V461.806z M478.87,316.739
				c0.347,17.743-0.905,35.482-3.742,53c-0.797,3.96-4.303,6.789-8.341,6.733h-56.183c-23.553,0.028-42.639,19.114-42.667,42.667
				v8.533H350.87v-17.067c0-4.713-3.82-8.533-8.533-8.533s-8.533,3.82-8.533,8.533v17.067h-17.067v-17.067
				c0-4.713-3.82-8.533-8.533-8.533s-8.533,3.82-8.533,8.533v17.067h-17.067v-17.067c0-4.713-3.82-8.533-8.533-8.533
				s-8.533,3.82-8.533,8.533v17.067H248.47v-17.067c0-4.713-3.821-8.533-8.533-8.533s-8.533,3.82-8.533,8.533v17.067h-17.067
				v-17.067c0-4.713-3.821-8.533-8.533-8.533s-8.533,3.82-8.533,8.533v17.067h-17.067v-17.067c0-4.713-3.821-8.533-8.533-8.533
				c-4.713,0-8.533,3.82-8.533,8.533v17.067H146.07v-8.533c-0.028-23.553-19.114-42.639-42.667-42.667H47.22
				c-4.041,0.056-7.548-2.778-8.342-6.741c-2.837-17.516-4.089-35.251-3.742-52.992c0-46.971,57.375-68.571,57.95-68.783
				c4.429-1.613,6.711-6.511,5.098-10.94c-1.613-4.429-6.511-6.711-10.94-5.098c-6.209,2.409-12.219,5.303-17.975,8.654v-34.767
				c0-103.682,84.051-187.733,187.733-187.733s187.733,84.051,187.733,187.733v34.767c-5.756-3.351-11.766-6.245-17.975-8.654
				c-4.423-1.584-9.294,0.703-10.899,5.118c-1.605,4.415,0.659,9.297,5.066,10.923C421.511,248.169,478.87,269.573,478.87,316.739z"
				/>
			<path d="M231.361,212.552c-0.722-17.988-15.456-32.233-33.458-32.346h-53.8c-18.291,0.581-32.671,15.84-32.167,34.133v34.133
				c-0.504,18.294,13.875,33.553,32.167,34.133h31.508c18.291-0.582,32.668-15.844,32.158-34.138
				c0.032-0.441,0.125-0.876,0.275-1.292C222.851,242.366,232.471,228.081,231.361,212.552z M203.128,230.835
				c-7.551,2.532-12.583,9.675-12.425,17.637c0.503,8.866-6.231,16.481-15.092,17.067h-31.508
				c-8.862-0.585-15.599-8.199-15.1-17.067v-34.133c-0.499-8.867,6.238-16.482,15.1-17.067h53.8
				c8.851,0.223,16.02,7.259,16.408,16.104C214.946,221.052,210.365,228.203,203.128,230.835L203.128,230.835z"/>
			<path d="M369.903,180.206h-53.8c-16.632,0.42-30.578,12.686-33.116,29.129c-2.538,16.442,7.059,32.344,22.791,37.759
				c0.32,0.386,0.484,0.878,0.459,1.379c-0.508,18.292,13.869,33.552,32.158,34.133h31.508c18.291-0.581,32.671-15.84,32.167-34.133
				v-34.133C402.574,196.046,388.194,180.787,369.903,180.206L369.903,180.206z M385.003,248.473
				c0.499,8.867-6.238,16.482-15.1,17.067h-31.508c-8.861-0.588-15.595-8.204-15.092-17.071c0.156-7.959-4.871-15.098-12.417-17.633
				c-7.241-2.632-11.825-9.784-11.192-17.463c0.39-8.844,7.558-15.878,16.408-16.1h53.8c8.862,0.585,15.599,8.199,15.1,17.067
				V248.473z"/>
			<path d="M257.003,265.539c-23.553,0.028-42.639,19.114-42.667,42.667v42.667c-0.001,2.263,0.898,4.434,2.499,6.035
				c1.6,1.6,3.771,2.499,6.035,2.499h68.267c2.263,0.001,4.434-0.898,6.035-2.499c1.6-1.6,2.499-3.771,2.499-6.035v-42.667
				C299.642,284.653,280.556,265.567,257.003,265.539L257.003,265.539z M282.603,342.339h-51.2v-34.133
				c0-14.138,11.462-25.6,25.6-25.6s25.6,11.462,25.6,25.6V342.339z"/>
		</g>
	</g>
</g>
<g>
</g>
<g>
</g>
<g>
</g>
<g>
</g>
<g>
</g>
<g>
</g>
<g>
</g>
<g>
</g>
<g>
</g>
<g>
</g>
<g>
</g>
<g>
</g>
<g>
</g>
<g>
</g>
<g>
</g>
</svg>
