<?xml version="1.0" encoding="iso-8859-1"?>
<!-- Generator: Adobe Illustrator 19.0.0, SVG Export Plug-In . SVG Version: 6.00 Build 0)  -->
<svg version="1.1" id="Capa_1" xmlns="http://www.w3.org/2000/svg" xmlns:xlink="http://www.w3.org/1999/xlink" x="0px" y="0px"
	 viewBox="0 0 512.002 512.002" style="enable-background:new 0 0 512.002 512.002;" xml:space="preserve">
<g>
	<g>
		<path style="fill:#D5BFA3;" d="M162.135,256.002h187.733v162.133c0,22.632-8.99,44.337-24.994,60.34
			c-16.003,16.003-37.708,24.994-60.34,24.994h-17.067c-47.128,0-85.333-38.205-85.333-85.333V256.002z"/>
		<path style="fill:#CD4F38;" d="M503.468,256.002c0.035,11.326-4.45,22.199-12.459,30.208
			c-8.009,8.009-18.882,12.493-30.208,12.459h-409.6c-23.561-0.009-42.658-19.106-42.667-42.667
			c0.052-75.936,34.941-147.65,94.654-194.561S240.835-2.391,314.625,15.533c-18.04,24.304-21.058,56.627-7.827,83.851
			c13.23,27.223,40.51,44.822,70.766,45.654c30.256,0.832,58.462-15.242,73.168-41.697
			C485.001,146.838,503.582,200.629,503.468,256.002z"/>
	</g>
	<g>
		
			<circle style="fill:none;stroke:#000000;stroke-width:2;stroke-linecap:round;stroke-linejoin:round;" cx="196.268" cy="145.069" r="59.733"/>
		
			<circle style="fill:none;stroke:#000000;stroke-width:2;stroke-linecap:round;stroke-linejoin:round;" cx="85.335" cy="230.402" r="34.133"/>
	</g>
	<g>
		<path style="fill:#007B6F;" d="M349.868,256.002v162.133c-0.017,47.121-38.212,85.316-85.333,85.333h-17.067
			c-4.231,0.005-8.455-0.337-12.629-1.024c-0.085,0.085-0.171,0.085-0.341,0c-41.616-6.405-72.342-42.203-72.363-84.309V256.002
			H349.868z"/>
		<path style="fill:#00A095;" d="M307.201,256.002v162.133c-0.021,42.106-30.747,77.905-72.363,84.309
			c-0.085,0.085-0.171,0.085-0.341,0c-41.616-6.405-72.342-42.203-72.363-84.309V256.002H307.201z"/>
		<path style="fill:#7F34A5;" d="M503.468,256.002c0.035,11.326-4.45,22.199-12.459,30.208
			c-8.009,8.009-18.882,12.493-30.208,12.459h-20.224c0.768-2.459,1.367-4.968,1.793-7.509c0.93-4.549,1.388-9.181,1.365-13.824
			c-0.027-40.048-32.485-72.507-72.533-72.533c-23.005,0.046-44.629,10.98-58.303,29.48s-17.78,42.381-11.073,64.387H51.201
			c-23.561-0.009-42.658-19.106-42.667-42.667C8.451,127.444,106.905,20.273,235.009,9.474c6.912-0.683,13.909-0.939,20.992-0.939
			c19.752-0.033,39.435,2.316,58.624,6.997c-15.961,21.549-20.26,49.586-11.489,74.927c8.771,25.341,29.483,44.722,55.35,51.793
			c6.923,1.896,14.071,2.843,21.248,2.816c16.727,0.039,33.047-5.152,46.677-14.848c10.037-7.004,18.353-16.195,24.321-26.88
			C485.001,146.838,503.582,200.629,503.468,256.002z"/>
		<path style="fill:#AA44B9;" d="M460.801,256.002c0,11.32-4.479,22.179-12.459,30.208c-1.852,1.811-3.85,3.467-5.973,4.949
			c-7.142,4.877-15.586,7.494-24.235,7.509h-20.224c6.816-22.011,2.754-45.953-10.942-64.484s-35.391-29.44-58.434-29.383
			c-40.048,0.027-72.507,32.485-72.533,72.533c-0.005,7.228,1.059,14.417,3.157,21.333H51.201
			c-23.561-0.009-42.658-19.106-42.667-42.667C8.451,127.444,106.905,20.273,235.009,9.474c12.455,1.055,24.809,3.08,36.949,6.059
			c-18.245,24.624-21.072,57.422-7.309,84.805c13.763,27.382,41.771,44.682,72.418,44.731c7.231-0.015,14.43-0.962,21.419-2.816
			c21.077-5.795,38.942-19.816,49.579-38.912c6.743,8.515,12.874,17.498,18.346,26.88
			C449.021,168.274,460.905,211.739,460.801,256.002L460.801,256.002z"/>
		<g>
			<circle style="fill:#00A095;" cx="196.268" cy="145.069" r="59.733"/>
			<path style="fill:#00A095;" d="M450.732,103.341c-14.717,26.432-42.915,42.484-73.156,41.645s-57.506-18.428-70.736-45.635
				c-13.23-27.207-10.229-59.514,7.785-83.819c44.079,10.698,84.353,33.345,116.395,65.451
				C438.062,88.007,444.647,95.474,450.732,103.341z"/>
			<path style="fill:#00A095;" d="M443.735,277.336c0.005,7.228-1.059,14.417-3.157,21.333H301.825
				c-2.098-6.917-3.162-14.105-3.157-21.333c0-40.059,32.474-72.533,72.533-72.533S443.735,237.277,443.735,277.336L443.735,277.336
				z"/>
			<circle style="fill:#00A095;" cx="85.335" cy="230.402" r="34.133"/>
		</g>
		<g>
			<path d="M196.268,76.802c-37.703,0-68.267,30.564-68.267,68.267s30.564,68.267,68.267,68.267s68.267-30.564,68.267-68.267
				C264.491,107.384,233.953,76.845,196.268,76.802L196.268,76.802z M196.268,196.269c-28.277,0-51.2-22.923-51.2-51.2
				s22.923-51.2,51.2-51.2s51.2,22.923,51.2,51.2C247.437,173.333,224.532,196.238,196.268,196.269z"/>
			<path d="M456.874,97.586c-35.31-44.783-84.541-76.519-139.907-90.19c-0.27-0.078-0.528-0.135-0.801-0.185
				c-76.285-18.501-156.841-0.962-218.529,47.58S-0.042,177.506,0.001,256.002c0.031,28.264,22.936,51.169,51.2,51.2h102.4v110.933
				c0.059,51.817,42.05,93.808,93.867,93.867h17.067c51.817-0.059,93.808-42.05,93.867-93.867V307.202h82.148l0.027,0.004
				l0.026-0.004h20.199c28.264-0.031,51.169-22.936,51.2-51.2c0.041-56.992-19.038-112.351-54.183-157.216
				C457.541,98.358,457.225,97.956,456.874,97.586L456.874,97.586z M440.178,103.958c-21.819,33.274-66.397,42.71-99.828,21.131
				s-43.188-66.087-21.851-99.672C366.194,38.41,408.698,65.845,440.178,103.958L440.178,103.958z M341.335,418.136
				c-0.048,42.396-34.404,76.752-76.8,76.8h-17.067c-42.396-0.048-76.752-34.404-76.8-76.8V307.202h170.667V418.136z
				 M307.201,277.336c0-35.346,28.654-64,64-64s64,28.654,64,64c-0.051,4.304-0.531,8.591-1.432,12.8H308.634
				C307.732,285.927,307.252,281.639,307.201,277.336z M460.801,290.136h-9.583c0.683-4.233,1.034-8.512,1.05-12.8
				c0-44.772-36.295-81.067-81.067-81.067s-81.067,36.295-81.067,81.067c0.016,4.288,0.367,8.567,1.05,12.8H51.201
				c-18.843-0.02-34.113-15.29-34.133-34.133c-0.049-71.25,31.724-138.799,86.639-184.195S230.943,7.912,300.912,21.362
				c-22.261,41.172-9.089,92.541,30.236,117.921s91.56,16.224,119.908-21.019c28.581,40.239,43.918,88.382,43.879,137.738
				C494.914,274.845,479.644,290.116,460.801,290.136z"/>
			<path d="M85.335,187.736c-23.564,0-42.667,19.103-42.667,42.667s19.103,42.667,42.667,42.667s42.667-19.103,42.667-42.667
				C127.974,206.85,108.887,187.763,85.335,187.736L85.335,187.736z M85.335,256.002c-14.138,0-25.6-11.462-25.6-25.6
				c0-14.138,11.462-25.6,25.6-25.6s25.6,11.462,25.6,25.6C110.919,244.534,99.467,255.987,85.335,256.002L85.335,256.002z"/>
		</g>
	</g>
</g>
<g>
</g>
<g>
</g>
<g>
</g>
<g>
</g>
<g>
</g>
<g>
</g>
<g>
</g>
<g>
</g>
<g>
</g>
<g>
</g>
<g>
</g>
<g>
</g>
<g>
</g>
<g>
</g>
<g>
</g>
</svg>
