<?xml version="1.0" encoding="iso-8859-1"?>
<!-- Generator: Adobe Illustrator 19.0.0, SVG Export Plug-In . SVG Version: 6.00 Build 0)  -->
<svg version="1.1" id="Capa_1" xmlns="http://www.w3.org/2000/svg" xmlns:xlink="http://www.w3.org/1999/xlink" x="0px" y="0px"
	 viewBox="0 0 512 512" style="enable-background:new 0 0 512 512;" xml:space="preserve">
<g>
	<g>
		<rect x="8.678" y="91.119" style="fill:#F9D842;" width="164.881" height="164.881"/>
		<polygon style="fill:#F9D842;" points="173.559,91.119 173.559,256 130.169,212.61 130.169,134.508 		"/>
		<polygon style="fill:#F9D842;" points="52.068,134.508 52.068,212.61 8.678,256 8.678,91.119 		"/>
	</g>
	<rect x="52.068" y="134.508" style="fill:#FFFFFF;" width="78.102" height="78.102"/>
	<rect x="173.559" y="91.119" style="fill:#388841;" width="164.881" height="164.881"/>
	<g>
		<polygon style="fill:#5AB462;" points="216.949,134.508 216.949,212.61 173.559,256 173.559,91.119 		"/>
		<polygon style="fill:#5AB462;" points="338.441,91.119 338.441,256 295.051,212.61 295.051,134.508 		"/>
	</g>
	<rect x="216.949" y="134.508" style="fill:#FFFFFF;" width="78.102" height="78.102"/>
	<rect x="338.441" y="256" style="fill:#B82B6A;" width="164.881" height="164.881"/>
	<g>
		<polygon style="fill:#EB3A76;" points="381.831,299.39 381.831,377.492 338.441,420.881 338.441,256 		"/>
		<polygon style="fill:#EB3A76;" points="503.322,256 503.322,420.881 459.932,377.492 459.932,299.39 		"/>
	</g>
	<rect x="381.831" y="299.39" style="fill:#FFFFFF;" width="78.102" height="78.102"/>
	<rect x="173.559" y="256" style="fill:#0086C3;" width="164.881" height="164.881"/>
	<g>
		<polygon style="fill:#00B3F2;" points="216.949,299.39 216.949,377.492 173.559,420.881 173.559,256 		"/>
		<polygon style="fill:#00B3F2;" points="338.441,256 338.441,420.881 295.051,377.492 295.051,299.39 		"/>
	</g>
	<rect x="216.949" y="299.39" style="fill:#FFFFFF;" width="78.102" height="78.102"/>
	<path d="M506.638,247.991c-1.051-0.438-2.177-0.666-3.316-0.669H347.119V91.119c-0.018-4.785-3.893-8.66-8.678-8.678H8.678
		C3.893,82.46,0.019,86.334,0,91.119V256c0.018,4.785,3.893,8.66,8.678,8.678h156.203v156.203c0.018,4.785,3.893,8.66,8.678,8.678
		h329.763c4.785-0.018,8.66-3.893,8.678-8.678V256C511.987,252.495,509.874,249.339,506.638,247.991z M303.729,373.898v-70.915
		l26.034-26.034v122.983L303.729,373.898z M60.746,143.186h60.746v60.746H60.746V143.186z M138.847,138.102l26.034-26.034v122.983
		l-26.034-26.034V138.102z M208.271,138.102v70.915l-26.034,26.034V112.068L208.271,138.102z M220.542,221.288h70.915l26.034,26.034
		H194.508L220.542,221.288z M286.373,203.932h-60.746v-60.746h60.746V203.932z M317.492,264.678l-26.034,26.034h-70.915
		l-26.034-26.034H317.492z M225.627,308.068h60.746v60.746h-60.746V308.068z M373.153,373.898l-26.034,26.034V276.949l26.034,26.034
		V373.898z M390.508,308.068h60.746v60.746h-60.746V308.068z M456.339,290.712h-70.915l-26.034-26.034h122.983L456.339,290.712z
		 M303.729,209.017v-70.915l26.034-26.034v122.983L303.729,209.017z M291.458,125.831h-70.915l-26.034-26.034h122.983
		L291.458,125.831z M126.576,125.831H55.661L29.627,99.797H152.61L126.576,125.831z M43.39,138.102v70.915l-26.034,26.034V112.068
		L43.39,138.102z M55.661,221.288h70.915l26.034,26.034H29.627L55.661,221.288z M208.271,302.983v70.915l-26.034,26.034V276.949
		L208.271,302.983z M220.542,386.169h70.915l26.034,26.034H194.508L220.542,386.169z M385.424,386.169h70.915l26.034,26.034H359.39
		L385.424,386.169z M468.61,373.898v-70.915l26.034-26.034v122.983L468.61,373.898z"/>
</g>
<g>
</g>
<g>
</g>
<g>
</g>
<g>
</g>
<g>
</g>
<g>
</g>
<g>
</g>
<g>
</g>
<g>
</g>
<g>
</g>
<g>
</g>
<g>
</g>
<g>
</g>
<g>
</g>
<g>
</g>
</svg>
