<?xml version="1.0" encoding="iso-8859-1"?>
<!-- Generator: Adobe Illustrator 19.0.0, SVG Export Plug-In . SVG Version: 6.00 Build 0)  -->
<svg version="1.1" id="Capa_1" xmlns="http://www.w3.org/2000/svg" xmlns:xlink="http://www.w3.org/1999/xlink" x="0px" y="0px"
	 viewBox="0 0 512 512" style="enable-background:new 0 0 512 512;" xml:space="preserve">
<g>
	<rect x="256" y="173.559" style="fill:#007B6F;" width="164.881" height="164.881"/>
	<g>
		<polygon style="fill:#00A095;" points="299.39,216.949 299.39,295.051 256,338.441 256,173.559 		"/>
		<polygon style="fill:#00A095;" points="420.881,173.559 420.881,338.441 377.492,295.051 377.492,216.949 		"/>
	</g>
	<rect x="299.39" y="216.949" style="fill:#FFFFFF;" width="78.102" height="78.102"/>
	<rect x="91.119" y="338.441" style="fill:#B82B6A;" width="164.881" height="164.881"/>
	<g>
		<polygon style="fill:#EB3A76;" points="134.508,381.831 134.508,459.932 91.119,503.322 91.119,338.441 		"/>
		<polygon style="fill:#EB3A76;" points="256,338.441 256,503.322 212.61,459.932 212.61,381.831 		"/>
	</g>
	<rect x="134.508" y="381.831" style="fill:#FFFFFF;" width="78.102" height="78.102"/>
	<rect x="256" y="338.441" style="fill:#F9D842;" width="164.881" height="164.881"/>
	<g>
		<polygon style="fill:#FFE749;" points="299.39,381.831 299.39,459.932 256,503.322 256,338.441 		"/>
		<polygon style="fill:#FFE749;" points="420.881,338.441 420.881,503.322 377.492,459.932 377.492,381.831 		"/>
	</g>
	<rect x="299.39" y="381.831" style="fill:#FFFFFF;" width="78.102" height="78.102"/>
	<rect x="256" y="8.678" style="fill:#583EAB;" width="164.881" height="164.881"/>
	<g>
		<polygon style="fill:#7B54BF;" points="420.881,8.678 420.881,173.559 377.492,130.169 377.492,52.068 		"/>
		<polygon style="fill:#7B54BF;" points="299.39,52.068 299.39,130.169 256,173.559 256,8.678 		"/>
	</g>
	<rect x="299.39" y="52.068" style="fill:#FFFFFF;" width="78.102" height="78.102"/>
	<path d="M424.198,0.67c-1.051-0.439-2.178-0.667-3.316-0.67H256c-4.785,0.019-8.659,3.893-8.678,8.678v321.085H91.119
		c-4.785,0.019-8.659,3.893-8.678,8.678v164.881c0.019,4.785,3.893,8.659,8.678,8.678h329.763c4.785-0.019,8.659-3.893,8.678-8.678
		V8.678C429.545,5.173,427.433,2.018,424.198,0.67z M221.288,456.339v-70.915l26.034-26.034v122.983L221.288,456.339z
		 M143.186,390.508h60.746v60.746h-60.746V390.508z M308.068,225.627h60.746v60.746h-60.746V225.627z M373.898,208.271h-70.915
		l-26.034-26.034h122.983L373.898,208.271z M302.983,303.729h70.915l26.034,26.034H276.949L302.983,303.729z M290.712,385.424
		v70.915l-26.034,26.034V359.39L290.712,385.424z M308.068,390.508h60.746v60.746h-60.746V390.508z M373.898,373.153h-70.915
		l-26.034-26.034h122.983L373.898,373.153z M386.169,291.458v-70.915l26.034-26.034v122.983L386.169,291.458z M276.949,164.881
		l26.034-26.034h70.915l26.034,26.034H276.949z M368.814,121.492h-60.746V60.746h60.746V121.492z M373.898,43.39h-70.915
		l-26.034-26.034h122.983L373.898,43.39z M290.712,55.661v70.915l-26.034,26.034V29.627L290.712,55.661z M290.712,220.542v70.915
		l-26.034,26.034V194.508L290.712,220.542z M209.017,373.153h-70.915l-26.034-26.034h122.983L209.017,373.153z M125.831,385.424
		v70.915l-26.034,26.034V359.39L125.831,385.424z M138.102,468.61h70.915l26.034,26.034H112.068L138.102,468.61z M302.983,468.61
		h70.915l26.034,26.034H276.949L302.983,468.61z M386.169,456.339v-70.915l26.034-26.034v122.983L386.169,456.339z M386.169,126.576
		V55.661l26.034-26.034V152.61L386.169,126.576z"/>
</g>
<g>
</g>
<g>
</g>
<g>
</g>
<g>
</g>
<g>
</g>
<g>
</g>
<g>
</g>
<g>
</g>
<g>
</g>
<g>
</g>
<g>
</g>
<g>
</g>
<g>
</g>
<g>
</g>
<g>
</g>
</svg>
