<?xml version="1.0" encoding="iso-8859-1"?>
<!-- Generator: Adobe Illustrator 19.0.0, SVG Export Plug-In . SVG Version: 6.00 Build 0)  -->
<svg version="1.1" id="Capa_1" xmlns="http://www.w3.org/2000/svg" xmlns:xlink="http://www.w3.org/1999/xlink" x="0px" y="0px"
	 viewBox="0 0 512 512" style="enable-background:new 0 0 512 512;" xml:space="preserve">
<g>
	<rect x="8.678" y="256" style="fill:#66953E;" width="164.881" height="164.881"/>
	<g>
		<polygon style="fill:#5AB462;" points="52.068,299.39 52.068,377.492 8.678,420.881 8.678,256 		"/>
		<polygon style="fill:#5AB462;" points="173.559,256 173.559,420.881 130.169,377.492 130.169,299.39 		"/>
	</g>
	<rect x="52.068" y="299.39" style="fill:#FFFFFF;" width="78.102" height="78.102"/>
	<rect x="173.559" y="256" style="fill:#7F34A5;" width="164.881" height="164.881"/>
	<g>
		<polygon style="fill:#AA44B9;" points="216.949,299.39 216.949,377.492 173.559,420.881 173.559,256 		"/>
		<polygon style="fill:#AA44B9;" points="338.441,256 338.441,420.881 295.051,377.492 295.051,299.39 		"/>
	</g>
	<rect x="216.949" y="299.39" style="fill:#FFFFFF;" width="78.102" height="78.102"/>
	<rect x="338.441" y="256" style="fill:#0086C3;" width="164.881" height="164.881"/>
	<g>
		<polygon style="fill:#25A4F1;" points="503.322,256 503.322,420.881 459.932,377.492 459.932,299.39 		"/>
		<polygon style="fill:#25A4F1;" points="381.831,299.39 381.831,377.492 338.441,420.881 338.441,256 		"/>
	</g>
	<rect x="381.831" y="299.39" style="fill:#FFFFFF;" width="78.102" height="78.102"/>
	<rect x="173.559" y="91.119" style="fill:#DD5919;" width="164.881" height="164.881"/>
	<g>
		<polygon style="fill:#FFA300;" points="216.949,134.508 216.949,212.61 173.559,256 173.559,91.119 		"/>
		<polygon style="fill:#FFA300;" points="338.441,91.119 338.441,256 295.051,212.61 295.051,134.508 		"/>
	</g>
	<rect x="216.949" y="134.508" style="fill:#FFFFFF;" width="78.102" height="78.102"/>
	<path d="M5.362,428.889c1.051,0.439,2.178,0.667,3.316,0.67h494.644c4.785-0.019,8.659-3.893,8.678-8.678V256
		c-0.019-4.785-3.893-8.659-8.678-8.678H347.119V91.119c-0.019-4.785-3.893-8.659-8.678-8.678H173.559
		c-4.785,0.019-8.659,3.893-8.678,8.678v156.203H8.678C3.893,247.341,0.019,251.215,0,256v164.881
		C0.014,424.386,2.127,427.541,5.362,428.889L5.362,428.889z M286.373,203.932h-60.746v-60.746h60.746V203.932z M220.542,221.288
		h70.915l26.034,26.034H194.508L220.542,221.288z M451.254,368.814h-60.746v-60.746h60.746V368.814z M373.153,373.898
		l-26.034,26.034V276.949l26.034,26.034V373.898z M303.729,373.898v-70.915l26.034-26.034v122.983L303.729,373.898z
		 M291.458,290.712h-70.915l-26.034-26.034h122.983L291.458,290.712z M208.271,302.983v70.915l-26.034,26.034V276.949
		L208.271,302.983z M225.627,308.068h60.746v60.746h-60.746V308.068z M138.847,373.898v-70.915l26.034-26.034v122.983
		L138.847,373.898z M121.492,368.814H60.746v-60.746h60.746V368.814z M55.661,386.169h70.915l26.034,26.034H29.627L55.661,386.169z
		 M220.542,386.169h70.915l26.034,26.034H194.508L220.542,386.169z M385.424,386.169h70.915l26.034,26.034H359.39L385.424,386.169z
		 M468.61,373.898v-70.915l26.034-26.034v122.983L468.61,373.898z M456.339,290.712h-70.915l-26.034-26.034h122.983L456.339,290.712
		z M303.729,209.017v-70.915l26.034-26.034v122.983L303.729,209.017z M291.458,125.831h-70.915l-26.034-26.034h122.983
		L291.458,125.831z M208.271,138.102v70.915l-26.034,26.034V112.068L208.271,138.102z M126.576,290.712H55.661l-26.034-26.034
		H152.61L126.576,290.712z M43.39,302.983v70.915l-26.034,26.034V276.949L43.39,302.983z"/>
</g>
<g>
</g>
<g>
</g>
<g>
</g>
<g>
</g>
<g>
</g>
<g>
</g>
<g>
</g>
<g>
</g>
<g>
</g>
<g>
</g>
<g>
</g>
<g>
</g>
<g>
</g>
<g>
</g>
<g>
</g>
</svg>
