<?xml version="1.0" encoding="iso-8859-1"?>
<!-- Generator: Adobe Illustrator 19.0.0, SVG Export Plug-In . SVG Version: 6.00 Build 0)  -->
<svg version="1.1" id="Capa_1" xmlns="http://www.w3.org/2000/svg" xmlns:xlink="http://www.w3.org/1999/xlink" x="0px" y="0px"
	 viewBox="0 0 512 512" style="enable-background:new 0 0 512 512;" xml:space="preserve">
<g>
	<rect x="12.8" y="256" style="fill:#007B6F;" width="243.2" height="243.2"/>
	<g>
		<polygon style="fill:#00A095;" points="76.8,320 76.8,435.2 12.8,499.2 12.8,256 		"/>
		<polygon style="fill:#00A095;" points="256,256 256,499.2 192,435.2 192,320 		"/>
	</g>
	<rect x="76.8" y="320" style="fill:#FFFFFF;" width="115.2" height="115.2"/>
	<rect x="12.8" y="12.8" style="fill:#B82B6A;" width="243.2" height="243.2"/>
	<g>
		<polygon style="fill:#EB3A76;" points="76.8,76.8 76.8,192 12.8,256 12.8,12.8 		"/>
		<polygon style="fill:#EB3A76;" points="256,12.8 256,256 192,192 192,76.8 		"/>
	</g>
	<rect x="76.8" y="76.8" style="fill:#FFFFFF;" width="115.2" height="115.2"/>
	<rect x="256" y="256" style="fill:#F9D842;" width="243.2" height="243.2"/>
	<g>
		<polygon style="fill:#FFE749;" points="320,320 320,435.2 256,499.2 256,256 		"/>
		<polygon style="fill:#FFE749;" points="499.2,256 499.2,499.2 435.2,435.2 435.2,320 		"/>
	</g>
	<rect x="320" y="320" style="fill:#FFFFFF;" width="115.2" height="115.2"/>
	<rect x="256" y="12.8" style="fill:#583EAB;" width="243.2" height="243.2"/>
	<g>
		<polygon style="fill:#7B54BF;" points="499.2,12.8 499.2,256 435.2,192 435.2,76.8 		"/>
		<polygon style="fill:#7B54BF;" points="320,76.8 320,192 256,256 256,12.8 		"/>
	</g>
	<rect x="320" y="76.8" style="fill:#FFFFFF;" width="115.2" height="115.2"/>
	<path d="M504.091,0.988C502.542,0.341,500.88,0.005,499.2,0H12.8C5.742,0.028,0.028,5.742,0,12.8v486.4
		c0.028,7.058,5.742,12.772,12.8,12.8h486.4c7.058-0.028,12.772-5.742,12.8-12.8V12.8C511.979,7.63,508.863,2.976,504.091,0.988z
		 M204.8,429.9V325.3l38.4-38.4v181.4L204.8,429.9z M307.2,82.1v104.6l-38.4,38.4V43.7L307.2,82.1z M422.4,179.2h-89.6V89.6h89.6
		V179.2z M204.8,186.7V82.1l38.4-38.4v181.4L204.8,186.7z M179.2,179.2H89.6V89.6h89.6V179.2z M82.1,204.8h104.6l38.4,38.4H43.7
		L82.1,204.8z M225.1,268.8l-38.4,38.4H82.1l-38.4-38.4H225.1z M89.6,332.8h89.6v89.6H89.6V332.8z M307.2,325.3v104.6l-38.4,38.4
		V286.9L307.2,325.3z M332.8,332.8h89.6v89.6h-89.6V332.8z M429.9,307.2H325.3l-38.4-38.4h181.4L429.9,307.2z M286.9,243.2
		l38.4-38.4h104.6l38.4,38.4H286.9z M429.9,64H325.3l-38.4-38.4h181.4L429.9,64z M186.7,64H82.1L43.7,25.6h181.4L186.7,64z M64,82.1
		v104.6l-38.4,38.4V43.7L64,82.1z M64,325.3v104.6l-38.4,38.4V286.9L64,325.3z M82.1,448h104.6l38.4,38.4H43.7L82.1,448z M325.3,448
		h104.6l38.4,38.4H286.9L325.3,448z M448,429.9V325.3l38.4-38.4v181.4L448,429.9z M448,186.7V82.1l38.4-38.4v181.4L448,186.7z"/>
</g>
<g>
</g>
<g>
</g>
<g>
</g>
<g>
</g>
<g>
</g>
<g>
</g>
<g>
</g>
<g>
</g>
<g>
</g>
<g>
</g>
<g>
</g>
<g>
</g>
<g>
</g>
<g>
</g>
<g>
</g>
</svg>
