<?xml version="1.0" encoding="iso-8859-1"?>
<!-- Generator: Adobe Illustrator 19.0.0, SVG Export Plug-In . SVG Version: 6.00 Build 0)  -->
<svg version="1.1" id="Capa_1" xmlns="http://www.w3.org/2000/svg" xmlns:xlink="http://www.w3.org/1999/xlink" x="0px" y="0px"
	 viewBox="0 0 512 512" style="enable-background:new 0 0 512 512;" xml:space="preserve">
<g>
	<rect x="173.559" y="8.678" style="fill:#B82B6A;" width="164.881" height="164.881"/>
	<g>
		<polygon style="fill:#EB3A76;" points="216.949,52.068 216.949,130.169 173.559,173.559 173.559,8.678 		"/>
		<polygon style="fill:#EB3A76;" points="338.441,8.678 338.441,173.559 295.051,130.169 295.051,52.068 		"/>
	</g>
	<rect x="216.949" y="52.068" style="fill:#FFFFFF;" width="78.102" height="78.102"/>
	<rect x="173.559" y="338.441" style="fill:#F9D842;" width="164.881" height="164.881"/>
	<g>
		<polygon style="fill:#FFE749;" points="216.949,381.831 216.949,459.932 173.559,503.322 173.559,338.441 		"/>
		<polygon style="fill:#FFE749;" points="338.441,338.441 338.441,503.322 295.051,459.932 295.051,381.831 		"/>
	</g>
	<rect x="216.949" y="381.831" style="fill:#FFFFFF;" width="78.102" height="78.102"/>
	<rect x="173.559" y="173.559" style="fill:#583EAB;" width="164.881" height="164.881"/>
	<g>
		<polygon style="fill:#7B54BF;" points="338.441,173.559 338.441,338.441 295.051,295.051 295.051,216.949 		"/>
		<polygon style="fill:#7B54BF;" points="216.949,216.949 216.949,295.051 173.559,338.441 173.559,173.559 		"/>
	</g>
	<rect x="216.949" y="216.949" style="fill:#FFFFFF;" width="78.102" height="78.102"/>
	<path d="M341.757,0.67c-1.051-0.439-2.178-0.667-3.316-0.67H173.559c-4.785,0.019-8.659,3.893-8.678,8.678v494.644
		c0.019,4.785,3.893,8.659,8.678,8.678h164.881c4.785-0.019,8.659-3.893,8.678-8.678V8.678
		C347.105,5.173,344.992,2.018,341.757,0.67z M225.627,390.508h60.746v60.746h-60.746V390.508z M291.458,373.153h-70.915
		l-26.034-26.034h122.983L291.458,373.153z M286.373,286.373h-60.746v-60.746h60.746V286.373z M220.542,303.729h70.915
		l26.034,26.034H194.508L220.542,303.729z M291.458,208.271h-70.915l-26.034-26.034h122.983L291.458,208.271z M208.271,220.542
		v70.915l-26.034,26.034V194.508L208.271,220.542z M303.729,291.458v-70.915l26.034-26.034v122.983L303.729,291.458z
		 M194.508,164.881l26.034-26.034h70.915l26.034,26.034H194.508z M286.373,121.492h-60.746V60.746h60.746V121.492z M291.458,43.39
		h-70.915l-26.034-26.034h122.983L291.458,43.39z M208.271,55.661v70.915l-26.034,26.034V29.627L208.271,55.661z M208.271,385.424
		v70.915l-26.034,26.034V359.39L208.271,385.424z M220.542,468.61h70.915l26.034,26.034H194.508L220.542,468.61z M303.729,456.339
		v-70.915l26.034-26.034v122.983L303.729,456.339z M303.729,126.576V55.661l26.034-26.034V152.61L303.729,126.576z"/>
</g>
<g>
</g>
<g>
</g>
<g>
</g>
<g>
</g>
<g>
</g>
<g>
</g>
<g>
</g>
<g>
</g>
<g>
</g>
<g>
</g>
<g>
</g>
<g>
</g>
<g>
</g>
<g>
</g>
<g>
</g>
</svg>
