<?xml version="1.0" encoding="iso-8859-1"?>
<!-- Generator: Adobe Illustrator 19.0.0, SVG Export Plug-In . SVG Version: 6.00 Build 0)  -->
<svg version="1.1" id="Capa_1" xmlns="http://www.w3.org/2000/svg" xmlns:xlink="http://www.w3.org/1999/xlink" x="0px" y="0px"
	 viewBox="0 0 512.19 512.19" style="enable-background:new 0 0 512.19 512.19;" xml:space="preserve">
<g>
	<path id="SVGCleanerId_0" style="fill:#FFBA00;" d="M393.566,135.596c-3.451-0.001-6.562-2.08-7.882-5.268
		c-1.32-3.188-0.591-6.858,1.849-9.298l24.658-24.663c2.149-2.188,5.307-3.055,8.271-2.27c2.965,0.785,5.28,3.1,6.065,6.065
		c0.785,2.965-0.082,6.122-2.27,8.271l-24.658,24.663C398.001,134.699,395.829,135.598,393.566,135.596z"/>
	<path id="SVGCleanerId_1" style="fill:#FFBA00;" d="M435.291,128c-2.264,0.003-4.435-0.897-6.033-2.5l-34.133-34.133
		c-3.281-3.341-3.256-8.701,0.054-12.012s8.671-3.335,12.012-0.054l34.133,34.133c2.44,2.44,3.169,6.11,1.849,9.298
		C441.852,125.92,438.742,127.999,435.291,128z"/>
	<path id="SVGCleanerId_2" style="fill:#FFBA00;" d="M118.616,135.596c-2.264,0.003-4.435-0.897-6.033-2.5l-24.658-24.663
		c-3.281-3.341-3.256-8.701,0.054-12.012c3.311-3.311,8.671-3.335,12.012-0.054l24.658,24.663c2.44,2.44,3.169,6.11,1.849,9.298
		C125.177,133.516,122.067,135.595,118.616,135.596L118.616,135.596z"/>
	<path id="SVGCleanerId_3" style="fill:#FFBA00;" d="M76.891,128c-3.451-0.001-6.562-2.08-7.882-5.268
		c-1.32-3.188-0.591-6.858,1.849-9.298L104.991,79.3c3.341-3.281,8.701-3.256,12.012,0.054s3.335,8.671,0.054,12.012L82.924,125.5
		C81.326,127.103,79.154,128.003,76.891,128L76.891,128z"/>
	<circle style="fill:#F6AB27;" cx="256.091" cy="290.133" r="213.333"/>
	
		<circle style="fill:none;stroke:#000000;stroke-width:2;stroke-linecap:round;stroke-linejoin:round;" cx="256.091" cy="290.133" r="179.2"/>
	<g>
		<polyline style="fill:#EC9130;" points="273.157,77.568 273.157,42.667 239.024,42.667 239.024,77.568 		"/>
		<path style="fill:#F6AB27;" d="M221.957,8.533h68.267c9.426,0,17.067,7.641,17.067,17.067v17.067h-102.4V25.6
			C204.891,16.174,212.532,8.533,221.957,8.533z"/>
	</g>
	<g>
		
			<circle style="fill:none;stroke:#000000;stroke-width:2;stroke-linecap:round;stroke-linejoin:round;" cx="256.091" cy="290.133" r="25.6"/>
		<path style="fill:none;stroke:#000000;stroke-width:2;stroke-linecap:round;stroke-linejoin:round;" d="M256.091,110.933v25.6"/>
		<path style="fill:none;stroke:#000000;stroke-width:2;stroke-linecap:round;stroke-linejoin:round;" d="M256.091,443.733v25.6"/>
		<path style="fill:none;stroke:#000000;stroke-width:2;stroke-linecap:round;stroke-linejoin:round;" d="M382.804,163.42
			l-18.102,18.102"/>
		<path style="fill:none;stroke:#000000;stroke-width:2;stroke-linecap:round;stroke-linejoin:round;" d="M147.479,398.745
			l-18.102,18.102"/>
		<path style="fill:none;stroke:#000000;stroke-width:2;stroke-linecap:round;stroke-linejoin:round;" d="M435.291,290.133h-25.6"/>
		<path style="fill:none;stroke:#000000;stroke-width:2;stroke-linecap:round;stroke-linejoin:round;" d="M102.491,290.133h-25.6"/>
		<path style="fill:none;stroke:#000000;stroke-width:2;stroke-linecap:round;stroke-linejoin:round;" d="M382.804,416.847
			l-18.102-18.102"/>
		<path style="fill:none;stroke:#000000;stroke-width:2;stroke-linecap:round;stroke-linejoin:round;" d="M147.479,181.522
			l-18.102-18.102"/>
		<path style="fill:none;stroke:#000000;stroke-width:2;stroke-linecap:round;stroke-linejoin:round;" d="M256.091,230.4v-59.733"/>
		<path style="fill:none;stroke:#000000;stroke-width:2;stroke-linecap:round;stroke-linejoin:round;" d="M340.571,205.653
			l-42.24,42.24"/>
		<path style="fill:none;stroke:#000000;stroke-width:2;stroke-linecap:round;stroke-linejoin:round;" d="M340.571,205.653
			c-22.403-22.409-52.793-34.995-84.48-34.987"/>
		<path style="fill:none;stroke:#000000;stroke-width:2;stroke-linecap:round;stroke-linejoin:round;" d="M298.331,247.893
			c-11.19-11.221-26.393-17.517-42.24-17.493"/>
	</g>
	<g>
		<path id="SVGCleanerId_0_1_" style="fill:#FFBA00;" d="M393.566,135.596c-3.451-0.001-6.562-2.08-7.882-5.268
			c-1.32-3.188-0.591-6.858,1.849-9.298l24.658-24.663c2.149-2.188,5.307-3.055,8.271-2.27c2.965,0.785,5.28,3.1,6.065,6.065
			c0.785,2.965-0.082,6.122-2.27,8.271l-24.658,24.663C398.001,134.699,395.829,135.598,393.566,135.596z"/>
	</g>
	<g>
		<path id="SVGCleanerId_1_1_" style="fill:#FFBA00;" d="M435.291,128c-2.264,0.003-4.435-0.897-6.033-2.5l-34.133-34.133
			c-3.281-3.341-3.256-8.701,0.054-12.012s8.671-3.335,12.012-0.054l34.133,34.133c2.44,2.44,3.169,6.11,1.849,9.298
			C441.852,125.92,438.742,127.999,435.291,128z"/>
	</g>
	<g>
		<path id="SVGCleanerId_2_1_" style="fill:#FFBA00;" d="M118.616,135.596c-2.264,0.003-4.435-0.897-6.033-2.5l-24.658-24.663
			c-3.281-3.341-3.256-8.701,0.054-12.012c3.311-3.311,8.671-3.335,12.012-0.054l24.658,24.663c2.44,2.44,3.169,6.11,1.849,9.298
			C125.177,133.516,122.067,135.595,118.616,135.596L118.616,135.596z"/>
	</g>
	<g>
		<path id="SVGCleanerId_3_1_" style="fill:#FFBA00;" d="M76.891,128c-3.451-0.001-6.562-2.08-7.882-5.268
			c-1.32-3.188-0.591-6.858,1.849-9.298L104.991,79.3c3.341-3.281,8.701-3.256,12.012,0.054s3.335,8.671,0.054,12.012L82.924,125.5
			C81.326,127.103,79.154,128.003,76.891,128L76.891,128z"/>
	</g>
	<g>
		<g>
			<rect x="239.024" y="35.089" style="fill:#CD3D34;" width="34.133" height="44.911"/>
			<circle style="fill:#CD3D34;" cx="256.091" cy="290.133" r="213.333"/>
		</g>
		<path style="fill:#728B98;" d="M435.291,290.133c0,2.901-0.085,5.717-0.256,8.533c-1.94,41.576-18.327,81.171-46.336,111.957
			c-3.925,4.181-7.936,8.192-12.117,12.117h-0.085c-30.732,28.041-70.313,44.435-111.872,46.336
			c-2.816,0.171-5.632,0.256-8.533,0.256c-2.901,0-5.717-0.085-8.533-0.256c-2.901-0.085-5.717-0.341-8.533-0.597
			c-38.501-3.614-74.777-19.67-103.339-45.739H135.6c-4.181-3.925-8.192-7.936-12.117-12.117
			c-28.009-30.786-44.396-70.382-46.336-111.957c-0.171-2.816-0.256-5.632-0.256-8.533s0.085-5.717,0.256-8.533
			c1.94-41.576,18.327-81.171,46.336-111.957c3.925-4.181,7.936-8.192,12.117-12.117c28.638-26.004,64.918-42.049,103.424-45.739
			c2.816-0.256,5.632-0.512,8.533-0.597c2.816-0.171,5.632-0.256,8.533-0.256c2.901,0,5.717,0.085,8.533,0.256
			c41.576,1.94,81.171,18.328,111.957,46.336c4.181,3.925,8.192,7.936,12.117,12.117c28.009,30.786,44.396,70.382,46.336,111.957
			C435.205,284.416,435.291,287.232,435.291,290.133z"/>
		<path style="fill:#D3DADE;" d="M401.157,290.133c0,2.901-0.085,5.717-0.256,8.533c-1.94,41.576-18.327,81.171-46.336,111.957
			c-3.925,4.181-7.936,8.192-12.117,12.117h-0.085c-28.562,26.069-64.838,42.125-103.339,45.739
			c-38.501-3.614-74.777-19.67-103.339-45.739H135.6c-4.181-3.925-8.192-7.936-12.117-12.117
			c-28.009-30.786-44.396-70.382-46.336-111.957c-0.171-2.816-0.256-5.632-0.256-8.533s0.085-5.717,0.256-8.533
			c1.94-41.576,18.327-81.171,46.336-111.957c3.925-4.181,7.936-8.192,12.117-12.117c28.638-26.004,64.918-42.049,103.424-45.739
			c38.506,3.69,74.786,19.735,103.424,45.739c4.181,3.925,8.192,7.936,12.117,12.117c28.009,30.786,44.396,70.382,46.336,111.957
			C401.072,284.416,401.157,287.232,401.157,290.133z"/>
		<path style="fill:#F45B44;" d="M221.957,8.533h68.267c9.426,0,17.067,7.641,17.067,17.067v17.067h-102.4V25.6
			C204.891,16.174,212.532,8.533,221.957,8.533z"/>
		<circle style="fill:#FFE749;" cx="256.091" cy="290.133" r="25.6"/>
		<g>
			<path style="fill:#36B6D6;" d="M264.624,111.189v25.344c0,4.713-3.821,8.533-8.533,8.533c-4.713,0-8.533-3.821-8.533-8.533
				v-25.344c2.816-0.171,5.632-0.256,8.533-0.256C258.992,110.933,261.808,111.019,264.624,111.189z"/>
			<path style="fill:#36B6D6;" d="M264.624,443.733v25.344c-2.816,0.171-5.632,0.256-8.533,0.256c-2.901,0-5.717-0.085-8.533-0.256
				v-25.344c0-4.713,3.821-8.533,8.533-8.533C260.803,435.2,264.624,439.021,264.624,443.733z"/>
			<path style="fill:#36B6D6;" d="M388.699,169.643l-18.005,17.92c-1.59,1.576-3.735,2.464-5.973,2.475
				c-2.264-0.009-4.436-0.896-6.059-2.475c-3.328-3.353-3.328-8.764,0-12.117l17.92-17.92
				C380.763,161.451,384.773,165.461,388.699,169.643z"/>
			<path style="fill:#36B6D6;" d="M153.52,404.821l-17.835,17.92H135.6c-4.181-3.925-8.192-7.936-12.117-12.117l18.005-17.92
				c1.594-1.598,3.759-2.496,6.016-2.496c2.257,0,4.422,0.898,6.016,2.496C156.848,396.058,156.848,401.468,153.52,404.821z"/>
			<path style="fill:#36B6D6;" d="M435.291,290.133c0,2.901-0.085,5.717-0.256,8.533h-25.344c-4.713,0-8.533-3.821-8.533-8.533
				c0-4.713,3.82-8.533,8.533-8.533h25.344C435.205,284.416,435.291,287.232,435.291,290.133z"/>
			<path style="fill:#36B6D6;" d="M111.024,290.133c-0.014,4.707-3.826,8.519-8.533,8.533H77.147
				c-0.171-2.816-0.256-5.632-0.256-8.533s0.085-5.717,0.256-8.533h25.344C107.198,281.614,111.01,285.426,111.024,290.133
				L111.024,290.133z"/>
			<path style="fill:#36B6D6;" d="M388.699,410.624c-3.925,4.181-7.936,8.192-12.117,12.117h-0.085l-17.835-17.92
				c-3.328-3.354-3.328-8.764,0-12.117c1.594-1.598,3.759-2.496,6.016-2.496c2.257,0,4.422,0.898,6.016,2.496L388.699,410.624z"/>
			<path style="fill:#36B6D6;" d="M153.52,187.563c-1.623,1.579-3.795,2.466-6.059,2.475c-2.238-0.01-4.383-0.899-5.973-2.475
				l-18.005-17.92c3.925-4.181,7.936-8.192,12.117-12.117l17.92,17.92C156.848,178.799,156.848,184.209,153.52,187.563z"/>
		</g>
		<g>
			<path style="fill:#FFE749;" d="M340.571,205.653l-42.24,42.24c-11.19-11.221-26.393-17.517-42.24-17.493v-59.733
				C287.777,170.659,318.168,183.245,340.571,205.653z"/>
			<path style="fill:#FFE749;" d="M375.557,290.133h-59.733c-0.036-32.975-26.759-59.697-59.733-59.733v-59.733
				C322.065,170.679,375.545,224.159,375.557,290.133L375.557,290.133z"/>
		</g>
		<g>
			<path d="M34.224,290.133c-0.077,101.641,68.922,190.336,167.46,215.261s201.411-20.296,249.67-109.75
				s29.562-200.261-45.379-268.926l12.249-12.252l11.033,11.033c2.149,2.188,5.307,3.055,8.271,2.27s5.28-3.1,6.065-6.065
				c0.785-2.965-0.082-6.122-2.27-8.271L407.19,79.3c-3.341-3.281-8.701-3.256-12.012,0.054s-3.335,8.671-0.054,12.012
				l11.034,11.034L392.9,115.661c-32.108-25.292-70.607-41.172-111.209-45.871V51.2h25.6c2.263,0.001,4.434-0.898,6.035-2.499
				c1.6-1.6,2.499-3.771,2.499-6.035V25.6c-0.015-14.132-11.468-25.585-25.6-25.6h-68.267c-14.132,0.015-25.585,11.468-25.6,25.6
				v17.067c-0.001,2.263,0.898,4.434,2.499,6.035c1.6,1.6,3.771,2.499,6.035,2.499h25.6v18.59
				c-40.602,4.699-79.102,20.579-111.209,45.871L106.023,102.4l11.034-11.034c3.281-3.341,3.256-8.701-0.054-12.012
				s-8.671-3.335-12.012-0.054l-34.133,34.133c-2.188,2.149-3.055,5.307-2.27,8.271c0.785,2.965,3.1,5.28,6.065,6.065
				c2.965,0.785,6.122-0.082,8.271-2.27l11.033-11.033l12.249,12.252C60.326,168.663,34.202,227.97,34.224,290.133L34.224,290.133z
				 M460.891,290.133c0.029,110.897-88.216,201.67-199.069,204.773C150.968,498.01,57.784,412.316,51.608,301.591
				S128.511,95.342,239.022,86.099l0.002,0.001l0.003-0.001c5.633-0.467,11.312-0.766,17.064-0.766s11.431,0.299,17.064,0.766
				l0.003,0.001l0.002-0.001C379.205,95.083,460.749,183.708,460.891,290.133z M213.424,25.6c0.005-4.711,3.822-8.529,8.533-8.533
				h68.267c4.711,0.005,8.529,3.822,8.533,8.533v8.533h-85.333V25.6z M247.557,51.2h17.067v17.283
				c-2.836-0.108-5.672-0.216-8.533-0.216c-2.861,0-5.697,0.108-8.533,0.216V51.2z"/>
			<path d="M256.091,256c-18.851,0-34.133,15.282-34.133,34.133s15.282,34.133,34.133,34.133s34.133-15.282,34.133-34.133
				C290.204,271.29,274.934,256.02,256.091,256z M256.091,307.2c-9.426,0-17.067-7.641-17.067-17.067
				c0-9.426,7.641-17.067,17.067-17.067c9.426,0,17.067,7.641,17.067,17.067C273.147,299.555,265.512,307.189,256.091,307.2z"/>
			<path d="M388.841,157.388c-0.125-0.124-0.292-0.165-0.422-0.28c-73.141-72.943-191.516-72.943-264.656,0
				c-0.13,0.115-0.297,0.156-0.422,0.28c-0.125,0.125-0.165,0.292-0.28,0.422c-72.937,73.139-72.937,191.508,0,264.647
				c0.115,0.13,0.156,0.298,0.28,0.422c0.124,0.125,0.292,0.165,0.422,0.28c73.141,72.943,191.516,72.943,264.656,0
				c0.13-0.115,0.297-0.156,0.422-0.28c0.125-0.124,0.165-0.292,0.28-0.422c72.937-73.139,72.937-191.508,0-264.647
				C389.006,157.68,388.965,157.512,388.841,157.388z M409.691,298.667h16.634c-1.928,39.273-17.433,76.657-43.864,105.768
				l-11.728-11.722c-3.332-3.332-8.735-3.332-12.067,0c-3.332,3.332-3.332,8.735,0,12.067l11.728,11.723
				c-29.111,26.432-66.496,41.937-105.77,43.866v-16.634c0-4.713-3.821-8.533-8.533-8.533c-4.713,0-8.533,3.821-8.533,8.533v16.634
				c-39.273-1.929-76.659-17.433-105.77-43.866l11.728-11.723c3.332-3.332,3.332-8.734,0-12.067c-3.332-3.332-8.735-3.332-12.067,0
				l-11.728,11.722c-26.432-29.111-41.936-66.496-43.864-105.768h16.634c4.713,0,8.533-3.821,8.533-8.533
				c0-4.713-3.821-8.533-8.533-8.533H85.856c1.928-39.273,17.433-76.657,43.864-105.768l11.728,11.722
				c3.332,3.332,8.735,3.332,12.067,0c3.332-3.332,3.332-8.735,0-12.067l-11.728-11.723c29.111-26.432,66.496-41.937,105.77-43.866
				v16.634c0,4.713,3.821,8.533,8.533,8.533c4.713,0,8.533-3.821,8.533-8.533v-16.634c39.273,1.929,76.659,17.433,105.77,43.866
				l-11.728,11.723c-2.155,2.156-2.997,5.297-2.208,8.242c0.789,2.944,3.089,5.244,6.033,6.033c2.944,0.789,6.086-0.053,8.242-2.208
				l11.728-11.722c26.432,29.111,41.936,66.496,43.864,105.768h-16.634c-4.713,0-8.533,3.821-8.533,8.533
				C401.157,294.846,404.978,298.667,409.691,298.667z"/>
			<path d="M256.091,162.133c-2.263-0.001-4.434,0.898-6.035,2.499c-1.6,1.6-2.499,3.771-2.499,6.035V230.4
				c-0.001,2.263,0.898,4.434,2.499,6.035c1.6,1.6,3.771,2.499,6.035,2.499c28.264,0.031,51.169,22.936,51.2,51.2
				c-0.001,2.263,0.898,4.434,2.499,6.035c1.6,1.6,3.771,2.499,6.035,2.499h59.733c2.263,0.001,4.434-0.898,6.035-2.499
				c1.6-1.6,2.499-3.771,2.499-6.035C384.012,219.473,326.751,162.212,256.091,162.133L256.091,162.133z M264.624,222.459v-42.827
				c54.452,4.262,97.706,47.515,101.968,101.968h-42.827C319.828,250.714,295.51,226.396,264.624,222.459z"/>
		</g>
	</g>
</g>
<g>
</g>
<g>
</g>
<g>
</g>
<g>
</g>
<g>
</g>
<g>
</g>
<g>
</g>
<g>
</g>
<g>
</g>
<g>
</g>
<g>
</g>
<g>
</g>
<g>
</g>
<g>
</g>
<g>
</g>
</svg>
