<?xml version="1.0" encoding="iso-8859-1"?>
<!-- Generator: Adobe Illustrator 19.0.0, SVG Export Plug-In . SVG Version: 6.00 Build 0)  -->
<svg version="1.1" id="Capa_1" xmlns="http://www.w3.org/2000/svg" xmlns:xlink="http://www.w3.org/1999/xlink" x="0px" y="0px"
	 viewBox="0 0 512.128 512.128" style="enable-background:new 0 0 512.128 512.128;" xml:space="preserve">
<g transform="translate(0 -1)">
	<path style="fill:#3A3E48;" d="M256.064,359.528c-2.263,0.001-4.434-0.898-6.035-2.499c-1.6-1.6-2.499-3.771-2.499-6.035v-307.2
		c0-4.713,3.821-8.533,8.533-8.533s8.533,3.821,8.533,8.533v307.2c0.001,2.263-0.898,4.434-2.499,6.035
		C260.498,358.63,258.327,359.529,256.064,359.528L256.064,359.528z"/>
	<circle style="fill:#FFBA00;" cx="256.064" cy="26.728" r="17.067"/>
	<polygon style="fill:#CD4F38;" points="256.064,52.328 153.664,94.995 256.064,137.661 	"/>
	<path id="SVGCleanerId_0" style="fill:#D69564;" d="M51.264,461.928c-2.263,0.001-4.434-0.898-6.035-2.499
		c-1.6-1.6-2.499-3.771-2.499-6.035v-8.533c0-4.713,3.821-8.533,8.533-8.533s8.533,3.82,8.533,8.533v8.533
		c0.001,2.263-0.898,4.434-2.499,6.035S53.527,461.929,51.264,461.928L51.264,461.928z"/>
	<path id="SVGCleanerId_1" style="fill:#D69564;" d="M85.397,487.528c-2.263,0.001-4.434-0.898-6.035-2.499
		s-2.499-3.771-2.499-6.035v-8.533c0-4.713,3.821-8.533,8.533-8.533c4.713,0,8.533,3.82,8.533,8.533v8.533
		c0.001,2.263-0.898,4.434-2.499,6.035S87.661,487.529,85.397,487.528z"/>
	<path id="SVGCleanerId_2" style="fill:#D69564;" d="M119.531,461.928c-2.263,0.001-4.434-0.898-6.035-2.499
		c-1.6-1.6-2.499-3.771-2.499-6.035v-8.533c0-4.713,3.821-8.533,8.533-8.533c4.713,0,8.533,3.82,8.533,8.533v8.533
		c0.001,2.263-0.898,4.434-2.499,6.035S121.794,461.929,119.531,461.928L119.531,461.928z"/>
	<path id="SVGCleanerId_3" style="fill:#D69564;" d="M153.664,487.528c-2.263,0.001-4.434-0.898-6.035-2.499
		c-1.6-1.6-2.499-3.771-2.499-6.035v-8.533c0-4.713,3.821-8.533,8.533-8.533s8.533,3.82,8.533,8.533v8.533
		c0.001,2.263-0.898,4.434-2.499,6.035C158.098,486.63,155.927,487.529,153.664,487.528L153.664,487.528z"/>
	<path id="SVGCleanerId_4" style="fill:#D69564;" d="M187.797,461.928c-2.263,0.001-4.434-0.898-6.035-2.499
		c-1.6-1.6-2.499-3.771-2.499-6.035v-8.533c0-4.713,3.821-8.533,8.533-8.533s8.533,3.82,8.533,8.533v8.533
		c0.001,2.263-0.898,4.434-2.499,6.035C192.232,461.03,190.061,461.929,187.797,461.928z"/>
	<path id="SVGCleanerId_5" style="fill:#D69564;" d="M221.931,487.528c-2.263,0.001-4.434-0.898-6.035-2.499
		c-1.6-1.6-2.499-3.771-2.499-6.035v-8.533c0-4.713,3.821-8.533,8.533-8.533c4.713,0,8.533,3.82,8.533,8.533v8.533
		c0.001,2.263-0.898,4.434-2.499,6.035C226.365,486.63,224.194,487.529,221.931,487.528z"/>
	<path id="SVGCleanerId_6" style="fill:#D69564;" d="M256.064,461.928c-2.263,0.001-4.434-0.898-6.035-2.499
		s-2.499-3.771-2.499-6.035v-8.533c0-4.713,3.821-8.533,8.533-8.533s8.533,3.82,8.533,8.533v8.533
		c0.001,2.263-0.898,4.434-2.499,6.035C260.498,461.03,258.327,461.929,256.064,461.928z"/>
	<path id="SVGCleanerId_7" style="fill:#D69564;" d="M290.197,487.528c-2.263,0.001-4.434-0.898-6.035-2.499
		c-1.6-1.6-2.499-3.771-2.499-6.035v-8.533c0-4.713,3.82-8.533,8.533-8.533s8.533,3.82,8.533,8.533v8.533
		c0.001,2.263-0.898,4.434-2.499,6.035C294.632,486.63,292.461,487.529,290.197,487.528z"/>
	<path id="SVGCleanerId_8" style="fill:#D69564;" d="M324.331,461.928c-2.263,0.001-4.434-0.898-6.035-2.499
		c-1.6-1.6-2.499-3.771-2.499-6.035v-8.533c0-4.713,3.82-8.533,8.533-8.533s8.533,3.82,8.533,8.533v8.533
		c0.001,2.263-0.898,4.434-2.499,6.035C328.765,461.03,326.594,461.929,324.331,461.928z"/>
	<path id="SVGCleanerId_9" style="fill:#D69564;" d="M358.464,487.528c-2.263,0.001-4.434-0.898-6.035-2.499
		c-1.6-1.6-2.499-3.771-2.499-6.035v-8.533c0-4.713,3.82-8.533,8.533-8.533s8.533,3.82,8.533,8.533v8.533
		c0.001,2.263-0.898,4.434-2.499,6.035C362.898,486.63,360.727,487.529,358.464,487.528L358.464,487.528z"/>
	<path id="SVGCleanerId_10" style="fill:#D69564;" d="M392.597,461.928c-2.263,0.001-4.434-0.898-6.035-2.499
		c-1.6-1.6-2.499-3.771-2.499-6.035v-8.533c0-4.713,3.82-8.533,8.533-8.533s8.533,3.82,8.533,8.533v8.533
		c0.001,2.263-0.898,4.434-2.499,6.035C397.032,461.03,394.861,461.929,392.597,461.928z"/>
	<path id="SVGCleanerId_11" style="fill:#D69564;" d="M426.731,487.528c-2.263,0.001-4.434-0.898-6.035-2.499
		c-1.6-1.6-2.499-3.771-2.499-6.035v-8.533c0-4.713,3.821-8.533,8.533-8.533c4.713,0,8.533,3.82,8.533,8.533v8.533
		c0.001,2.263-0.898,4.434-2.499,6.035S428.994,487.529,426.731,487.528z"/>
	<path id="SVGCleanerId_12" style="fill:#D69564;" d="M460.864,461.928c-2.263,0.001-4.434-0.898-6.035-2.499
		s-2.499-3.771-2.499-6.035v-8.533c0-4.713,3.821-8.533,8.533-8.533c4.713,0,8.533,3.82,8.533,8.533v8.533
		c0.001,2.263-0.898,4.434-2.499,6.035S463.127,461.929,460.864,461.928z"/>
	<path style="fill:#5D9069;" d="M85.397,205.928v145.067H17.131V205.928c0.002-16.818,12.252-31.128,28.868-33.724
		c16.616-2.596,32.647,7.297,37.778,23.313C84.846,198.884,85.393,202.395,85.397,205.928z"/>
	<g>
		<path style="fill:#F6DB6D;" d="M119.531,248.595L119.531,248.595c18.851,0,34.133,15.282,34.133,34.133v68.267H85.397v-68.267
			C85.397,263.877,100.679,248.595,119.531,248.595z"/>
		<path style="fill:#F6DB6D;" d="M469.397,248.595L469.397,248.595c18.851,0,34.133,15.282,34.133,34.133v68.267h-68.267v-68.267
			C435.264,263.877,450.546,248.595,469.397,248.595z"/>
		<path style="fill:#F6DB6D;" d="M332.864,248.595L332.864,248.595c18.851,0,34.133,15.282,34.133,34.133v68.267h-68.267v-68.267
			C298.731,263.877,314.013,248.595,332.864,248.595z"/>
	</g>
	<path style="fill:#5D9069;" d="M401.131,137.661L401.131,137.661c18.851,0,34.133,15.282,34.133,34.133v179.2h-68.267v-179.2
		C366.997,152.943,382.279,137.661,401.131,137.661z"/>
	<path style="fill:#008F9B;" d="M59.797,9.661h392.533c28.277,0,51.2,22.923,51.2,51.2v341.333H8.597V60.861
		C8.597,32.584,31.52,9.661,59.797,9.661z"/>
	<path style="fill:#00C2D7;" d="M75.067,9.661h361.994c27.285,0,49.403,22.118,49.403,49.403v343.13h-460.8V59.064
		C25.664,31.78,47.782,9.661,75.067,9.661z"/>
	<polygon style="fill:#EB3A76;" points="256.064,52.328 153.664,94.995 256.064,137.661 	"/>
	<path style="fill:#FFFFFF;" d="M256.064,359.528c-2.263,0.001-4.434-0.898-6.035-2.499c-1.6-1.6-2.499-3.771-2.499-6.035v-307.2
		c0-4.713,3.821-8.533,8.533-8.533s8.533,3.821,8.533,8.533v307.2c0.001,2.263-0.898,4.434-2.499,6.035
		C260.498,358.63,258.327,359.529,256.064,359.528L256.064,359.528z"/>
	<circle style="fill:#FFE749;" cx="256.064" cy="26.728" r="17.067"/>
	<path style="fill:#F48B00;" d="M503.531,419.261v34.133c-0.022,28.268-22.932,51.178-51.2,51.2H59.797
		c-28.268-0.022-51.178-22.932-51.2-51.2v-51.2l25.259,12.629c5.356,2.542,11.625,2.254,16.725-0.768l8.704-5.803
		c5.571-3.328,12.519-3.328,18.091,0l7.509,4.949c5.571,3.328,12.52,3.328,18.091,0l7.509-4.949c5.571-3.328,12.519-3.328,18.091,0
		l7.509,4.949c5.571,3.328,12.52,3.328,18.091,0l7.509-4.949c5.571-3.328,12.52-3.328,18.091,0l7.509,4.949
		c5.571,3.328,12.52,3.328,18.091,0l7.509-4.949c5.571-3.328,12.519-3.328,18.091,0l7.509,4.949c5.571,3.328,12.52,3.328,18.091,0
		l7.509-4.949c5.571-3.328,12.519-3.328,18.091,0l7.509,4.949c5.571,3.328,12.52,3.328,18.091,0l7.509-4.949
		c5.571-3.328,12.52-3.328,18.091,0l7.509,4.949c5.571,3.328,12.52,3.328,18.091,0l7.509-4.949c5.571-3.328,12.52-3.328,18.091,0
		l7.509,4.949c5.571,3.328,12.52,3.328,18.091,0l7.509-4.949c5.571-3.328,12.519-3.328,18.091,0l7.509,4.949
		c5.571,3.328,12.52,3.328,18.091,0l7.509-4.949c5.571-3.328,12.52-3.328,18.091,0L503.531,419.261z"/>
	<path style="fill:#FFA300;" d="M503.531,444.861v8.533c-0.022,28.268-22.932,51.178-51.2,51.2H59.797
		c-28.268-0.022-51.178-22.932-51.2-51.2v-25.6l25.259,12.629c5.356,2.542,11.625,2.254,16.725-0.768l8.704-5.803
		c5.571-3.328,12.519-3.328,18.091,0l7.509,4.949c5.571,3.328,12.52,3.328,18.091,0l7.509-4.949c5.571-3.328,12.519-3.328,18.091,0
		l7.509,4.949c5.571,3.328,12.52,3.328,18.091,0l7.509-4.949c5.571-3.328,12.52-3.328,18.091,0l7.509,4.949
		c5.571,3.328,12.52,3.328,18.091,0l7.509-4.949c5.571-3.328,12.519-3.328,18.091,0l7.509,4.949c5.571,3.328,12.52,3.328,18.091,0
		l7.509-4.949c5.571-3.328,12.519-3.328,18.091,0l7.509,4.949c5.571,3.328,12.52,3.328,18.091,0l7.509-4.949
		c5.571-3.328,12.52-3.328,18.091,0l7.509,4.949c5.571,3.328,12.52,3.328,18.091,0l7.509-4.949c5.571-3.328,12.52-3.328,18.091,0
		l7.509,4.949c5.571,3.328,12.52,3.328,18.091,0l7.509-4.949c5.571-3.328,12.519-3.328,18.091,0l7.509,4.949
		c5.571,3.328,12.52,3.328,18.091,0l7.509-4.949c5.571-3.328,12.52-3.328,18.091,0L503.531,444.861z"/>
	<g>
		<path id="SVGCleanerId_0_1_" style="fill:#D69564;" d="M51.264,461.928c-2.263,0.001-4.434-0.898-6.035-2.499
			c-1.6-1.6-2.499-3.771-2.499-6.035v-8.533c0-4.713,3.821-8.533,8.533-8.533s8.533,3.82,8.533,8.533v8.533
			c0.001,2.263-0.898,4.434-2.499,6.035S53.527,461.929,51.264,461.928L51.264,461.928z"/>
	</g>
	<g>
		<path id="SVGCleanerId_1_1_" style="fill:#D69564;" d="M85.397,487.528c-2.263,0.001-4.434-0.898-6.035-2.499
			s-2.499-3.771-2.499-6.035v-8.533c0-4.713,3.821-8.533,8.533-8.533c4.713,0,8.533,3.82,8.533,8.533v8.533
			c0.001,2.263-0.898,4.434-2.499,6.035S87.661,487.529,85.397,487.528z"/>
	</g>
	<g>
		<path id="SVGCleanerId_2_1_" style="fill:#D69564;" d="M119.531,461.928c-2.263,0.001-4.434-0.898-6.035-2.499
			c-1.6-1.6-2.499-3.771-2.499-6.035v-8.533c0-4.713,3.821-8.533,8.533-8.533c4.713,0,8.533,3.82,8.533,8.533v8.533
			c0.001,2.263-0.898,4.434-2.499,6.035S121.794,461.929,119.531,461.928L119.531,461.928z"/>
	</g>
	<g>
		<path id="SVGCleanerId_3_1_" style="fill:#D69564;" d="M153.664,487.528c-2.263,0.001-4.434-0.898-6.035-2.499
			c-1.6-1.6-2.499-3.771-2.499-6.035v-8.533c0-4.713,3.821-8.533,8.533-8.533s8.533,3.82,8.533,8.533v8.533
			c0.001,2.263-0.898,4.434-2.499,6.035C158.098,486.63,155.927,487.529,153.664,487.528L153.664,487.528z"/>
	</g>
	<g>
		<path id="SVGCleanerId_4_1_" style="fill:#D69564;" d="M187.797,461.928c-2.263,0.001-4.434-0.898-6.035-2.499
			c-1.6-1.6-2.499-3.771-2.499-6.035v-8.533c0-4.713,3.821-8.533,8.533-8.533s8.533,3.82,8.533,8.533v8.533
			c0.001,2.263-0.898,4.434-2.499,6.035C192.232,461.03,190.061,461.929,187.797,461.928z"/>
	</g>
	<g>
		<path id="SVGCleanerId_5_1_" style="fill:#D69564;" d="M221.931,487.528c-2.263,0.001-4.434-0.898-6.035-2.499
			c-1.6-1.6-2.499-3.771-2.499-6.035v-8.533c0-4.713,3.821-8.533,8.533-8.533c4.713,0,8.533,3.82,8.533,8.533v8.533
			c0.001,2.263-0.898,4.434-2.499,6.035C226.365,486.63,224.194,487.529,221.931,487.528z"/>
	</g>
	<g>
		<path id="SVGCleanerId_6_1_" style="fill:#D69564;" d="M256.064,461.928c-2.263,0.001-4.434-0.898-6.035-2.499
			s-2.499-3.771-2.499-6.035v-8.533c0-4.713,3.821-8.533,8.533-8.533s8.533,3.82,8.533,8.533v8.533
			c0.001,2.263-0.898,4.434-2.499,6.035C260.498,461.03,258.327,461.929,256.064,461.928z"/>
	</g>
	<g>
		<path id="SVGCleanerId_7_1_" style="fill:#D69564;" d="M290.197,487.528c-2.263,0.001-4.434-0.898-6.035-2.499
			c-1.6-1.6-2.499-3.771-2.499-6.035v-8.533c0-4.713,3.82-8.533,8.533-8.533s8.533,3.82,8.533,8.533v8.533
			c0.001,2.263-0.898,4.434-2.499,6.035C294.632,486.63,292.461,487.529,290.197,487.528z"/>
	</g>
	<g>
		<path id="SVGCleanerId_8_1_" style="fill:#D69564;" d="M324.331,461.928c-2.263,0.001-4.434-0.898-6.035-2.499
			c-1.6-1.6-2.499-3.771-2.499-6.035v-8.533c0-4.713,3.82-8.533,8.533-8.533s8.533,3.82,8.533,8.533v8.533
			c0.001,2.263-0.898,4.434-2.499,6.035C328.765,461.03,326.594,461.929,324.331,461.928z"/>
	</g>
	<g>
		<path id="SVGCleanerId_9_1_" style="fill:#D69564;" d="M358.464,487.528c-2.263,0.001-4.434-0.898-6.035-2.499
			c-1.6-1.6-2.499-3.771-2.499-6.035v-8.533c0-4.713,3.82-8.533,8.533-8.533s8.533,3.82,8.533,8.533v8.533
			c0.001,2.263-0.898,4.434-2.499,6.035C362.898,486.63,360.727,487.529,358.464,487.528L358.464,487.528z"/>
	</g>
	<g>
		<path id="SVGCleanerId_10_1_" style="fill:#D69564;" d="M392.597,461.928c-2.263,0.001-4.434-0.898-6.035-2.499
			c-1.6-1.6-2.499-3.771-2.499-6.035v-8.533c0-4.713,3.82-8.533,8.533-8.533s8.533,3.82,8.533,8.533v8.533
			c0.001,2.263-0.898,4.434-2.499,6.035C397.032,461.03,394.861,461.929,392.597,461.928z"/>
	</g>
	<g>
		<path id="SVGCleanerId_11_1_" style="fill:#D69564;" d="M426.731,487.528c-2.263,0.001-4.434-0.898-6.035-2.499
			c-1.6-1.6-2.499-3.771-2.499-6.035v-8.533c0-4.713,3.821-8.533,8.533-8.533c4.713,0,8.533,3.82,8.533,8.533v8.533
			c0.001,2.263-0.898,4.434-2.499,6.035S428.994,487.529,426.731,487.528z"/>
	</g>
	<g>
		<path id="SVGCleanerId_12_1_" style="fill:#D69564;" d="M460.864,461.928c-2.263,0.001-4.434-0.898-6.035-2.499
			s-2.499-3.771-2.499-6.035v-8.533c0-4.713,3.821-8.533,8.533-8.533c4.713,0,8.533,3.82,8.533,8.533v8.533
			c0.001,2.263-0.898,4.434-2.499,6.035S463.127,461.929,460.864,461.928z"/>
	</g>
	<path style="fill:#388841;" d="M51.264,171.795L51.264,171.795c18.851,0,34.133,15.282,34.133,34.133v153.6H17.131v-153.6
		C17.131,187.077,32.413,171.795,51.264,171.795z"/>
	<g>
		<path style="fill:#B82B6A;" d="M119.531,248.595L119.531,248.595c18.851,0,34.133,15.282,34.133,34.133v76.8H85.397v-76.8
			C85.397,263.877,100.679,248.595,119.531,248.595z"/>
		<path style="fill:#B82B6A;" d="M469.397,248.595L469.397,248.595c18.851,0,34.133,15.282,34.133,34.133v76.8h-68.267v-76.8
			C435.264,263.877,450.546,248.595,469.397,248.595z"/>
	</g>
	<path style="fill:#388841;" d="M401.131,137.661L401.131,137.661c18.851,0,34.133,15.282,34.133,34.133v187.733h-68.267V171.795
		C366.997,152.943,382.279,137.661,401.131,137.661z"/>
	<path style="fill:#96C65C;" d="M85.397,205.928v12.117l-11.008,11.008c-3.365,3.3-8.752,3.3-12.117,0l-11.008-11.008
		l-11.008,11.008c-3.354,3.328-8.764,3.328-12.117,0l-11.008-11.008v-12.117c0.005-3.533,0.552-7.044,1.621-10.411l15.445,15.445
		l11.008-11.093c3.354-3.328,8.764-3.328,12.117,0l11.008,11.093l15.445-15.445C84.846,198.884,85.393,202.395,85.397,205.928
		L85.397,205.928z"/>
	<path style="fill:#EB3A76;" d="M153.664,282.707v12.117l-11.008,11.008c-3.365,3.3-8.752,3.3-12.117,0l-11.008-11.008
		l-11.008,11.008c-3.354,3.328-8.764,3.328-12.117,0l-11.008-11.008v-12.117c0.005-3.533,0.552-7.044,1.621-10.411l15.445,15.445
		l11.008-11.093c3.354-3.328,8.764-3.328,12.117,0l11.008,11.093l15.445-15.445C153.112,275.663,153.659,279.174,153.664,282.707z"
		/>
	<g>
		<path style="fill:#96C65C;" d="M85.397,245.096v24.149l-11.008,11.008c-3.365,3.3-8.752,3.3-12.117,0l-11.008-11.008
			l-11.008,11.008c-3.354,3.328-8.764,3.328-12.117,0l-11.008-11.008v-24.149l17.067,17.067l11.008-11.093
			c3.354-3.328,8.764-3.328,12.117,0l11.008,11.093L85.397,245.096z"/>
		<path style="fill:#96C65C;" d="M85.397,296.296v24.149l-11.008,11.008c-3.365,3.3-8.752,3.3-12.117,0l-11.008-11.008
			l-11.008,11.008c-3.354,3.328-8.764,3.328-12.117,0l-11.008-11.008v-24.149l17.067,17.067l11.008-11.093
			c3.354-3.328,8.764-3.328,12.117,0l11.008,11.093L85.397,296.296z"/>
	</g>
	<g>
		<path style="fill:#EB3A76;" d="M124.48,350.995l-4.949-4.949l-4.949,4.949H90.347l-4.949-4.949v-24.149l17.067,17.067
			l11.008-11.093c3.354-3.328,8.764-3.328,12.117,0l11.008,11.093l17.067-17.067v24.149l-4.949,4.949H124.48z"/>
		<path style="fill:#EB3A76;" d="M503.531,282.707v12.117l-11.008,11.008c-3.365,3.3-8.752,3.3-12.117,0l-11.008-11.008
			l-11.008,11.008c-3.354,3.328-8.764,3.328-12.117,0l-11.008-11.008v-12.117c0.005-3.533,0.552-7.044,1.621-10.411l15.445,15.445
			l11.008-11.093c3.354-3.328,8.764-3.328,12.117,0l11.008,11.093l15.445-15.445C502.979,275.663,503.526,279.174,503.531,282.707z"
			/>
		<path style="fill:#EB3A76;" d="M474.347,350.995l-4.949-4.949l-4.949,4.949h-24.235l-4.949-4.949v-24.149l17.067,17.067
			l11.008-11.093c3.354-3.328,8.764-3.328,12.117,0l11.008,11.093l17.067-17.067v24.149l-4.949,4.949H474.347z"/>
	</g>
	<path style="fill:#B82B6A;" d="M332.864,248.595L332.864,248.595c18.851,0,34.133,15.282,34.133,34.133v76.8h-68.267v-76.8
		C298.731,263.877,314.013,248.595,332.864,248.595z"/>
	<g>
		<path style="fill:#EB3A76;" d="M366.997,282.707v12.117l-11.008,11.008c-3.365,3.3-8.752,3.3-12.117,0l-11.008-11.008
			l-11.008,11.008c-3.354,3.328-8.764,3.328-12.117,0l-11.008-11.008v-12.117c0.005-3.533,0.552-7.044,1.621-10.411l15.445,15.445
			l11.008-11.093c3.354-3.328,8.764-3.328,12.117,0l11.008,11.093l15.445-15.445C366.446,275.663,366.992,279.174,366.997,282.707z"
			/>
		<path style="fill:#EB3A76;" d="M337.813,350.995l-4.949-4.949l-4.949,4.949H303.68l-4.949-4.949v-24.149l17.067,17.067
			l11.008-11.093c3.354-3.328,8.764-3.328,12.117,0l11.008,11.093l17.067-17.067v24.149l-4.949,4.949H337.813z"/>
	</g>
	<g>
		<path style="fill:#96C65C;" d="M435.264,171.774v12.117l-11.008,11.008c-3.365,3.3-8.752,3.3-12.117,0l-11.008-11.008
			l-11.008,11.008c-3.354,3.328-8.764,3.328-12.117,0l-11.008-11.008v-12.117c0.005-3.533,0.552-7.044,1.621-10.411l15.445,15.445
			l11.008-11.093c3.354-3.328,8.764-3.328,12.117,0l11.008,11.093l15.445-15.445C434.712,164.73,435.259,168.241,435.264,171.774
			L435.264,171.774z"/>
		<path style="fill:#96C65C;" d="M435.264,210.941v24.149l-11.008,11.008c-3.365,3.3-8.752,3.3-12.117,0l-11.008-11.008
			l-11.008,11.008c-3.354,3.328-8.764,3.328-12.117,0l-11.008-11.008v-24.149l17.067,17.067l11.008-11.093
			c3.354-3.328,8.764-3.328,12.117,0l11.008,11.093L435.264,210.941z"/>
		<path style="fill:#96C65C;" d="M435.264,262.141v24.149l-11.008,11.008c-3.365,3.3-8.752,3.3-12.117,0l-11.008-11.008
			l-11.008,11.008c-3.354,3.328-8.764,3.328-12.117,0l-11.008-11.008v-24.149l17.067,17.067l11.008-11.093
			c3.354-3.328,8.764-3.328,12.117,0l11.008,11.093L435.264,262.141z"/>
		<path style="fill:#96C65C;" d="M435.264,313.341v24.149l-11.008,11.008c-3.365,3.3-8.752,3.3-12.117,0l-11.008-11.008
			l-11.008,11.008c-3.354,3.328-8.764,3.328-12.117,0l-11.008-11.008v-24.149l17.067,17.067l11.008-11.093
			c3.354-3.328,8.764-3.328,12.117,0l11.008,11.093L435.264,313.341z"/>
	</g>
	<path style="fill:#388841;" d="M503.531,350.995v68.267l-16.555-11.008c-5.571-3.328-12.52-3.328-18.091,0l-7.509,4.949
		c-5.571,3.328-12.52,3.328-18.091,0l-7.509-4.949c-5.571-3.328-12.52-3.328-18.091,0l-7.509,4.949
		c-5.571,3.328-12.52,3.328-18.091,0l-7.509-4.949c-5.571-3.328-12.52-3.328-18.091,0l-7.509,4.949
		c-5.571,3.328-12.52,3.328-18.091,0l-7.509-4.949c-5.571-3.328-12.52-3.328-18.091,0l-7.509,4.949
		c-5.571,3.328-12.52,3.328-18.091,0l-7.509-4.949c-5.571-3.328-12.52-3.328-18.091,0l-7.509,4.949
		c-5.571,3.328-12.52,3.328-18.091,0l-7.509-4.949c-5.571-3.328-12.52-3.328-18.091,0l-7.509,4.949
		c-5.571,3.328-12.52,3.328-18.091,0l-7.509-4.949c-5.571-3.328-12.52-3.328-18.091,0l-7.509,4.949
		c-5.571,3.328-12.52,3.328-18.091,0l-7.509-4.949c-5.571-3.328-12.52-3.328-18.091,0l-7.509,4.949
		c-5.571,3.328-12.52,3.328-18.091,0l-7.509-4.949c-5.571-3.328-12.52-3.328-18.091,0l-8.704,5.803
		c-5.1,3.022-11.369,3.31-16.725,0.768L8.597,402.195v-51.2H503.531z"/>
	<path style="fill:#5AB462;" d="M503.531,350.995v42.667l-16.555-11.008c-5.571-3.328-12.52-3.328-18.091,0l-7.509,4.949
		c-5.571,3.328-12.52,3.328-18.091,0l-7.509-4.949c-5.571-3.328-12.52-3.328-18.091,0l-7.509,4.949
		c-5.571,3.328-12.52,3.328-18.091,0l-7.509-4.949c-5.571-3.328-12.52-3.328-18.091,0l-7.509,4.949
		c-5.571,3.328-12.52,3.328-18.091,0l-7.509-4.949c-5.571-3.328-12.52-3.328-18.091,0l-7.509,4.949
		c-5.571,3.328-12.52,3.328-18.091,0l-7.509-4.949c-5.571-3.328-12.52-3.328-18.091,0l-7.509,4.949
		c-5.571,3.328-12.52,3.328-18.091,0l-7.509-4.949c-5.571-3.328-12.52-3.328-18.091,0l-7.509,4.949
		c-5.571,3.328-12.52,3.328-18.091,0l-7.509-4.949c-5.571-3.328-12.52-3.328-18.091,0l-7.509,4.949
		c-5.571,3.328-12.52,3.328-18.091,0l-7.509-4.949c-5.571-3.328-12.52-3.328-18.091,0l-7.509,4.949
		c-5.571,3.328-12.52,3.328-18.091,0l-7.509-4.949c-5.571-3.328-12.52-3.328-18.091,0l-8.704,5.803
		c-5.1,3.022-11.369,3.31-16.725,0.768L8.597,376.595v-25.6H503.531z"/>
	<g>
		<path d="M51.264,436.328c-2.263-0.001-4.434,0.898-6.035,2.499c-1.6,1.6-2.499,3.771-2.499,6.035v8.533
			c0,4.713,3.821,8.533,8.533,8.533s8.533-3.821,8.533-8.533v-8.533c0.001-2.263-0.898-4.434-2.499-6.035
			C55.698,437.226,53.527,436.327,51.264,436.328L51.264,436.328z"/>
		<path d="M85.397,461.928c-2.263-0.001-4.434,0.898-6.035,2.499c-1.6,1.6-2.499,3.771-2.499,6.035v8.533
			c0,4.713,3.821,8.533,8.533,8.533c4.713,0,8.533-3.821,8.533-8.533v-8.533c0.001-2.263-0.898-4.434-2.499-6.035
			C89.832,462.826,87.661,461.927,85.397,461.928z"/>
		<path d="M119.531,436.328c-2.263-0.001-4.434,0.898-6.035,2.499c-1.6,1.6-2.499,3.771-2.499,6.035v8.533
			c0,4.713,3.821,8.533,8.533,8.533c4.713,0,8.533-3.821,8.533-8.533v-8.533c0.001-2.263-0.898-4.434-2.499-6.035
			C123.965,437.226,121.794,436.327,119.531,436.328L119.531,436.328z"/>
		<path d="M153.664,461.928c-2.263-0.001-4.434,0.898-6.035,2.499c-1.6,1.6-2.499,3.771-2.499,6.035v8.533
			c0,4.713,3.821,8.533,8.533,8.533s8.533-3.821,8.533-8.533v-8.533c0.001-2.263-0.898-4.434-2.499-6.035
			C158.098,462.826,155.927,461.927,153.664,461.928L153.664,461.928z"/>
		<path d="M187.797,436.328c-2.263-0.001-4.434,0.898-6.035,2.499c-1.6,1.6-2.499,3.771-2.499,6.035v8.533
			c0,4.713,3.821,8.533,8.533,8.533s8.533-3.821,8.533-8.533v-8.533c0.001-2.263-0.898-4.434-2.499-6.035
			C192.232,437.226,190.061,436.327,187.797,436.328L187.797,436.328z"/>
		<path d="M221.931,461.928c-2.263-0.001-4.434,0.898-6.035,2.499c-1.6,1.6-2.499,3.771-2.499,6.035v8.533
			c0,4.713,3.821,8.533,8.533,8.533c4.713,0,8.533-3.821,8.533-8.533v-8.533c0.001-2.263-0.898-4.434-2.499-6.035
			C226.365,462.826,224.194,461.927,221.931,461.928z"/>
		<path d="M256.064,436.328c-2.263-0.001-4.434,0.898-6.035,2.499c-1.6,1.6-2.499,3.771-2.499,6.035v8.533
			c0,4.713,3.821,8.533,8.533,8.533s8.533-3.821,8.533-8.533v-8.533c0.001-2.263-0.898-4.434-2.499-6.035
			C260.498,437.226,258.327,436.327,256.064,436.328L256.064,436.328z"/>
		<path d="M290.197,461.928c-2.263-0.001-4.434,0.898-6.035,2.499c-1.6,1.6-2.499,3.771-2.499,6.035v8.533
			c0,4.713,3.82,8.533,8.533,8.533s8.533-3.821,8.533-8.533v-8.533c0.001-2.263-0.898-4.434-2.499-6.035
			C294.632,462.826,292.461,461.927,290.197,461.928z"/>
		<path d="M324.331,436.328c-2.263-0.001-4.434,0.898-6.035,2.499c-1.6,1.6-2.499,3.771-2.499,6.035v8.533
			c0,4.713,3.82,8.533,8.533,8.533s8.533-3.821,8.533-8.533v-8.533c0.001-2.263-0.898-4.434-2.499-6.035
			C328.765,437.226,326.594,436.327,324.331,436.328L324.331,436.328z"/>
		<path d="M358.464,461.928c-2.263-0.001-4.434,0.898-6.035,2.499c-1.6,1.6-2.499,3.771-2.499,6.035v8.533
			c0,4.713,3.82,8.533,8.533,8.533s8.533-3.821,8.533-8.533v-8.533c0.001-2.263-0.898-4.434-2.499-6.035
			C362.898,462.826,360.727,461.927,358.464,461.928L358.464,461.928z"/>
		<path d="M392.597,436.328c-2.263-0.001-4.434,0.898-6.035,2.499c-1.6,1.6-2.499,3.771-2.499,6.035v8.533
			c0,4.713,3.82,8.533,8.533,8.533s8.533-3.821,8.533-8.533v-8.533c0.001-2.263-0.898-4.434-2.499-6.035
			C397.032,437.226,394.861,436.327,392.597,436.328L392.597,436.328z"/>
		<path d="M426.731,461.928c-2.263-0.001-4.434,0.898-6.035,2.499c-1.6,1.6-2.499,3.771-2.499,6.035v8.533
			c0,4.713,3.821,8.533,8.533,8.533c4.713,0,8.533-3.821,8.533-8.533v-8.533c0.001-2.263-0.898-4.434-2.499-6.035
			C431.165,462.826,428.994,461.927,426.731,461.928z"/>
		<path d="M460.864,436.328c-2.263-0.001-4.434,0.898-6.035,2.499c-1.6,1.6-2.499,3.771-2.499,6.035v8.533
			c0,4.713,3.821,8.533,8.533,8.533c4.713,0,8.533-3.821,8.533-8.533v-8.533c0.001-2.263-0.898-4.434-2.499-6.035
			C465.298,437.226,463.127,436.327,460.864,436.328L460.864,436.328z"/>
		<path d="M469.397,240.061c-9.262,0.032-18.257,3.107-25.6,8.752v-77.018c0-23.564-19.103-42.667-42.667-42.667
			c-23.564,0-42.667,19.103-42.667,42.667v77.018c-7.343-5.644-16.338-8.719-25.6-8.752c-23.553,0.028-42.639,19.114-42.667,42.667
			v59.733h-25.6V50.756c11.306-3.992,18.329-15.295,16.899-27.2c-1.43-11.905-10.928-21.224-22.858-22.426
			c-11.93-1.202-23.097,6.035-26.872,17.416s0.851,23.857,11.134,30.024l-92.52,38.55c-3.179,1.325-5.25,4.431-5.25,7.875
			s2.071,6.55,5.25,7.875l97.15,40.479v199.113h-85.333v-59.733c-0.028-23.553-19.114-42.639-42.667-42.667
			c-9.262,0.032-18.257,3.107-25.6,8.752v-42.885c0-23.564-19.103-42.667-42.667-42.667S8.597,182.364,8.597,205.928v136.533
			c-2.263-0.001-4.434,0.898-6.035,2.499c-1.6,1.6-2.499,3.771-2.499,6.035v102.4c0.038,32.974,26.759,59.695,59.733,59.733h392.533
			c32.974-0.039,59.695-26.759,59.733-59.733V282.728C512.036,259.175,492.95,240.089,469.397,240.061z M256.064,18.195
			c4.713,0,8.533,3.821,8.533,8.533s-3.82,8.533-8.533,8.533s-8.533-3.821-8.533-8.533
			C247.535,22.017,251.353,18.199,256.064,18.195z M175.852,94.995l71.679-29.867v59.733L175.852,94.995z M17.131,359.528h477.867
			v43.786l-3.279-2.186c-8.443-5.242-19.128-5.242-27.571,0l-7.504,5c-2.696,1.442-5.933,1.442-8.629,0l-7.496-5
			c-8.443-5.242-19.128-5.242-27.571,0l-7.504,5c-2.696,1.442-5.933,1.442-8.629,0l-7.496-5c-8.443-5.242-19.128-5.242-27.571,0
			l-7.504,5c-2.696,1.442-5.933,1.442-8.629,0l-7.496-5c-8.443-5.242-19.128-5.242-27.571,0l-7.504,5
			c-2.696,1.442-5.933,1.442-8.629,0l-7.496-5c-8.443-5.242-19.128-5.242-27.571,0l-7.504,5c-2.696,1.442-5.933,1.442-8.629,0
			l-7.496-5c-8.443-5.242-19.128-5.242-27.571,0l-7.504,5c-2.696,1.442-5.933,1.442-8.629,0l-7.496-5
			c-8.443-5.242-19.128-5.242-27.571,0l-7.504,5c-2.696,1.442-5.933,1.442-8.629,0l-7.496-5c-8.443-5.242-19.128-5.242-27.571,0
			l-7.504,5c-2.696,1.442-5.933,1.442-8.629,0l-7.495-5c-8.443-5.242-19.128-5.242-27.571,0l-8.695,5.8
			c-2.549,1.319-5.557,1.413-8.183,0.258l-20.538-10.267V359.528z M469.397,257.128c14.132,0.015,25.585,11.468,25.6,25.6v59.733
			h-51.2v-59.733C443.813,268.596,455.265,257.143,469.397,257.128L469.397,257.128z M375.531,171.795
			c0-14.139,11.462-25.6,25.6-25.6c14.138,0,25.6,11.462,25.6,25.6v170.667h-51.2V171.795z M307.264,282.728
			c0-14.138,11.462-25.6,25.6-25.6c14.138,0,25.6,11.462,25.6,25.6v59.733h-51.2V282.728z M119.531,257.128
			c14.132,0.015,25.585,11.468,25.6,25.6v59.733h-51.2v-59.733C93.946,268.596,105.399,257.143,119.531,257.128L119.531,257.128z
			 M25.664,205.928c0-14.139,11.462-25.6,25.6-25.6s25.6,11.462,25.6,25.6v136.533h-51.2V205.928z M452.331,496.061H59.797
			c-23.553-0.028-42.639-19.114-42.667-42.667v-37.393l12.904,6.451c8.101,3.896,17.629,3.396,25.279-1.325l8.704-5.8
			c2.699-1.429,5.93-1.429,8.629,0l7.496,5c8.443,5.242,19.128,5.242,27.571,0l7.504-5c2.699-1.429,5.93-1.429,8.629,0l7.496,5
			c8.443,5.242,19.128,5.242,27.571,0l7.504-5c2.699-1.429,5.93-1.429,8.629,0l7.496,5c8.443,5.242,19.128,5.242,27.571,0l7.504-5
			c2.699-1.429,5.93-1.429,8.629,0l7.496,5c8.443,5.242,19.128,5.242,27.571,0l7.504-5c2.699-1.429,5.93-1.429,8.629,0l7.496,5
			c8.443,5.242,19.128,5.242,27.571,0l7.504-5c2.699-1.429,5.93-1.429,8.629,0l7.496,5c8.443,5.242,19.128,5.242,27.571,0l7.504-5
			c2.699-1.429,5.93-1.429,8.629,0l7.496,5c8.443,5.242,19.128,5.242,27.571,0l7.504-5c2.699-1.429,5.93-1.429,8.629,0l7.496,5
			c8.443,5.242,19.128,5.242,27.571,0l7.504-5c2.699-1.429,5.93-1.429,8.629,0l12.747,8.5v29.567
			C494.97,476.947,475.883,496.034,452.331,496.061z"/>
	</g>
</g>
<g>
</g>
<g>
</g>
<g>
</g>
<g>
</g>
<g>
</g>
<g>
</g>
<g>
</g>
<g>
</g>
<g>
</g>
<g>
</g>
<g>
</g>
<g>
</g>
<g>
</g>
<g>
</g>
<g>
</g>
</svg>
