<?xml version="1.0" encoding="iso-8859-1"?>
<!-- Generator: Adobe Illustrator 19.0.0, SVG Export Plug-In . SVG Version: 6.00 Build 0)  -->
<svg version="1.1" id="Capa_1" xmlns="http://www.w3.org/2000/svg" xmlns:xlink="http://www.w3.org/1999/xlink" x="0px" y="0px"
	 viewBox="0 0 512 512" style="enable-background:new 0 0 512 512;" xml:space="preserve">
<g>
	<g>
		<path style="fill:#008F9B;" d="M59.733,8.533h392.533c28.277,0,51.2,22.923,51.2,51.2v341.333H8.533V59.733
			C8.533,31.456,31.456,8.533,59.733,8.533z"/>
		<path style="fill:#00C2D7;" d="M75.003,8.533h361.994c27.284,0,49.403,22.118,49.403,49.403v343.13H25.6V57.936
			C25.6,30.652,47.718,8.533,75.003,8.533z"/>
	</g>
	<g>
		<path style="fill:none;stroke:#000000;stroke-width:2;stroke-linecap:round;stroke-linejoin:round;" d="M162.133,153.6h187.733
			c9.426,0,17.067,7.641,17.067,17.067v25.6c0,9.426-7.641,17.067-17.067,17.067H162.133c-9.426,0-17.067-7.641-17.067-17.067v-25.6
			C145.067,161.241,152.708,153.6,162.133,153.6z"/>
		<path style="fill:none;stroke:#000000;stroke-width:2;stroke-linecap:round;stroke-linejoin:round;" d="M204.8,153.6h102.4
			c9.426,0,17.067,7.641,17.067,17.067v25.6c0,9.426-7.641,17.067-17.067,17.067H204.8c-9.426,0-17.067-7.641-17.067-17.067v-25.6
			C187.733,161.241,195.374,153.6,204.8,153.6z"/>
		<path style="fill:none;stroke:#000000;stroke-width:2;stroke-linecap:round;stroke-linejoin:round;" d="M247.467,153.6h17.067
			c9.426,0,17.067,7.641,17.067,17.067v25.6c0,9.426-7.641,17.067-17.067,17.067h-17.067c-9.426,0-17.067-7.641-17.067-17.067v-25.6
			C230.4,161.241,238.041,153.6,247.467,153.6z"/>
		<path style="fill:none;stroke:#000000;stroke-width:2;stroke-linecap:round;stroke-linejoin:round;" d="M256,247.467L256,247.467
			c18.851,0,34.133,15.282,34.133,34.133v68.267h-68.267V281.6C221.867,262.749,237.149,247.467,256,247.467z"/>
		<path style="fill:none;stroke:#000000;stroke-width:2;stroke-linecap:round;stroke-linejoin:round;" d="M170.667,110.933h42.667
			c4.713,0,8.533,3.821,8.533,8.533V153.6h-59.733v-34.133C162.133,114.754,165.954,110.933,170.667,110.933z"/>
		<path style="fill:none;stroke:#000000;stroke-width:2;stroke-linecap:round;stroke-linejoin:round;" d="M298.667,110.933h42.667
			c4.713,0,8.533,3.821,8.533,8.533V153.6h-59.733v-34.133C290.133,114.754,293.954,110.933,298.667,110.933z"/>
	</g>
	<path id="SVGCleanerId_0" style="fill:#3A3E48;" d="M136.533,273.067H102.4c-4.713,0-8.533-3.82-8.533-8.533S97.687,256,102.4,256
		h34.133v-8.533c0-4.713,3.821-8.533,8.533-8.533c4.713,0,8.533,3.821,8.533,8.533V256
		C153.589,265.421,145.955,273.056,136.533,273.067z"/>
	<path id="SVGCleanerId_1" style="fill:#3A3E48;" d="M85.333,273.067h34.133v8.533c0,4.713,3.821,8.533,8.533,8.533
		c4.713,0,8.533-3.821,8.533-8.533v-8.533c-0.008-7.482-4.885-14.087-12.032-16.299c-1.626-0.524-3.326-0.783-5.035-0.768H85.333
		V273.067z"/>
	<path id="SVGCleanerId_2" style="fill:#3A3E48;" d="M170.667,290.133c-2.263,0.001-4.434-0.898-6.035-2.499
		c-1.6-1.6-2.499-3.771-2.499-6.035v-8.533H128c-4.713,0-8.533-3.82-8.533-8.533S123.287,256,128,256h34.133
		c9.421,0.011,17.056,7.645,17.067,17.067v8.533c0.001,2.263-0.898,4.434-2.499,6.035
		C175.101,289.235,172.93,290.134,170.667,290.133L170.667,290.133z"/>
	<path id="SVGCleanerId_3" style="fill:#3A3E48;" d="M366.933,324.267c-2.263,0.001-4.434-0.898-6.035-2.499
		c-1.6-1.6-2.499-3.771-2.499-6.035V307.2c0.011-9.421,7.645-17.056,17.067-17.067H409.6c4.713,0,8.533,3.82,8.533,8.533
		s-3.821,8.533-8.533,8.533h-34.133v8.533c0.001,2.263-0.898,4.434-2.499,6.035C371.368,323.368,369.197,324.267,366.933,324.267
		L366.933,324.267z"/>
	<path id="SVGCleanerId_4" style="fill:#3A3E48;" d="M426.667,290.133h-34.133V281.6c0-4.713-3.82-8.533-8.533-8.533
		s-8.533,3.82-8.533,8.533v8.533c0.008,7.482,4.885,14.087,12.032,16.299c1.626,0.524,3.326,0.783,5.035,0.768h34.133V290.133z"/>
	<path id="SVGCleanerId_5" style="fill:#3A3E48;" d="M384,307.2h-34.133c-9.421-0.011-17.056-7.645-17.067-17.067V281.6
		c0-4.713,3.82-8.533,8.533-8.533s8.533,3.82,8.533,8.533v8.533H384c4.713,0,8.533,3.82,8.533,8.533S388.713,307.2,384,307.2z"/>
	<g>
		<g>
			<rect x="85.333" y="196.267" style="fill:#475962;" width="341.333" height="162.133"/>
			<rect x="119.467" y="59.733" style="fill:#475962;" width="273.067" height="102.4"/>
		</g>
		<g>
			<rect x="85.333" y="196.267" style="fill:#728B98;" width="307.2" height="162.133"/>
			<rect x="119.467" y="59.733" style="fill:#728B98;" width="238.933" height="102.4"/>
		</g>
		<path style="fill:#A9A9A9;" d="M76.8,153.6h358.4c9.426,0,17.067,7.641,17.067,17.067v25.6c0,9.426-7.641,17.067-17.067,17.067
			H76.8c-9.426,0-17.067-7.641-17.067-17.067v-25.6C59.733,161.241,67.374,153.6,76.8,153.6z"/>
		<path style="fill:#545454;" d="M119.467,153.6h273.067c9.426,0,17.067,7.641,17.067,17.067v25.6
			c0,9.426-7.641,17.067-17.067,17.067H119.467c-9.426,0-17.067-7.641-17.067-17.067v-25.6
			C102.4,161.241,110.041,153.6,119.467,153.6z"/>
		<path style="fill:#A9A9A9;" d="M162.133,153.6h187.733c9.426,0,17.067,7.641,17.067,17.067v25.6
			c0,9.426-7.641,17.067-17.067,17.067H162.133c-9.426,0-17.067-7.641-17.067-17.067v-25.6
			C145.067,161.241,152.708,153.6,162.133,153.6z"/>
		<path style="fill:#545454;" d="M204.8,153.6h102.4c9.426,0,17.067,7.641,17.067,17.067v25.6c0,9.426-7.641,17.067-17.067,17.067
			H204.8c-9.426,0-17.067-7.641-17.067-17.067v-25.6C187.733,161.241,195.374,153.6,204.8,153.6z"/>
		<path style="fill:#A9A9A9;" d="M247.467,153.6h17.067c9.426,0,17.067,7.641,17.067,17.067v25.6
			c0,9.426-7.641,17.067-17.067,17.067h-17.067c-9.426,0-17.067-7.641-17.067-17.067v-25.6
			C230.4,161.241,238.041,153.6,247.467,153.6z"/>
		<path style="fill:#545454;" d="M256,247.467L256,247.467c18.851,0,34.133,15.282,34.133,34.133v68.267h-68.267V281.6
			C221.867,262.749,237.149,247.467,256,247.467z"/>
		<path style="fill:#A9A9A9;" d="M119.467,8.533h273.067c9.426,0,17.067,7.641,17.067,17.067v25.6
			c0,9.426-7.641,17.067-17.067,17.067H119.467c-9.426,0-17.067-7.641-17.067-17.067V25.6C102.4,16.174,110.041,8.533,119.467,8.533
			z"/>
		<path style="fill:#545454;" d="M162.133,8.533h187.733c9.426,0,17.067,7.641,17.067,17.067v25.6
			c0,9.426-7.641,17.067-17.067,17.067H162.133c-9.426,0-17.067-7.641-17.067-17.067V25.6
			C145.067,16.174,152.708,8.533,162.133,8.533z"/>
		<path style="fill:#A9A9A9;" d="M204.8,8.533h102.4c9.426,0,17.067,7.641,17.067,17.067v25.6c0,9.426-7.641,17.067-17.067,17.067
			H204.8c-9.426,0-17.067-7.641-17.067-17.067V25.6C187.733,16.174,195.374,8.533,204.8,8.533z"/>
		<g>
			<path style="fill:#545454;" d="M247.467,8.533h17.067c9.426,0,17.067,7.641,17.067,17.067v25.6
				c0,9.426-7.641,17.067-17.067,17.067h-17.067c-9.426,0-17.067-7.641-17.067-17.067V25.6
				C230.4,16.174,238.041,8.533,247.467,8.533z"/>
			<path style="fill:#545454;" d="M170.667,110.933h42.667c4.713,0,8.533,3.821,8.533,8.533V153.6h-59.733v-34.133
				C162.133,114.754,165.954,110.933,170.667,110.933z"/>
			<path style="fill:#545454;" d="M298.667,110.933h42.667c4.713,0,8.533,3.821,8.533,8.533V153.6h-59.733v-34.133
				C290.133,114.754,293.954,110.933,298.667,110.933z"/>
		</g>
	</g>
	<g>
		<path id="SVGCleanerId_0_1_" style="fill:#3A3E48;" d="M136.533,273.067H102.4c-4.713,0-8.533-3.82-8.533-8.533
			S97.687,256,102.4,256h34.133v-8.533c0-4.713,3.821-8.533,8.533-8.533c4.713,0,8.533,3.821,8.533,8.533V256
			C153.589,265.421,145.955,273.056,136.533,273.067z"/>
	</g>
	<g>
		<path id="SVGCleanerId_1_1_" style="fill:#3A3E48;" d="M85.333,273.067h34.133v8.533c0,4.713,3.821,8.533,8.533,8.533
			c4.713,0,8.533-3.821,8.533-8.533v-8.533c-0.008-7.482-4.885-14.087-12.032-16.299c-1.626-0.524-3.326-0.783-5.035-0.768H85.333
			V273.067z"/>
	</g>
	<g>
		<path id="SVGCleanerId_2_1_" style="fill:#3A3E48;" d="M170.667,290.133c-2.263,0.001-4.434-0.898-6.035-2.499
			c-1.6-1.6-2.499-3.771-2.499-6.035v-8.533H128c-4.713,0-8.533-3.82-8.533-8.533S123.287,256,128,256h34.133
			c9.421,0.011,17.056,7.645,17.067,17.067v8.533c0.001,2.263-0.898,4.434-2.499,6.035
			C175.101,289.235,172.93,290.134,170.667,290.133L170.667,290.133z"/>
	</g>
	<g>
		<path id="SVGCleanerId_3_1_" style="fill:#3A3E48;" d="M366.933,324.267c-2.263,0.001-4.434-0.898-6.035-2.499
			c-1.6-1.6-2.499-3.771-2.499-6.035V307.2c0.011-9.421,7.645-17.056,17.067-17.067H409.6c4.713,0,8.533,3.82,8.533,8.533
			s-3.821,8.533-8.533,8.533h-34.133v8.533c0.001,2.263-0.898,4.434-2.499,6.035C371.368,323.368,369.197,324.267,366.933,324.267
			L366.933,324.267z"/>
	</g>
	<g>
		<path id="SVGCleanerId_4_1_" style="fill:#3A3E48;" d="M426.667,290.133h-34.133V281.6c0-4.713-3.82-8.533-8.533-8.533
			s-8.533,3.82-8.533,8.533v8.533c0.008,7.482,4.885,14.087,12.032,16.299c1.626,0.524,3.326,0.783,5.035,0.768h34.133V290.133z"/>
	</g>
	<g>
		<path id="SVGCleanerId_5_1_" style="fill:#3A3E48;" d="M384,307.2h-34.133c-9.421-0.011-17.056-7.645-17.067-17.067V281.6
			c0-4.713,3.82-8.533,8.533-8.533s8.533,3.82,8.533,8.533v8.533H384c4.713,0,8.533,3.82,8.533,8.533S388.713,307.2,384,307.2z"/>
	</g>
	<path id="SVGCleanerId_6" style="fill:#D69564;" d="M256,460.8c-2.263,0.001-4.434-0.898-6.035-2.499
		c-1.6-1.6-2.499-3.771-2.499-6.035v-8.533c0-4.713,3.821-8.533,8.533-8.533c4.713,0,8.533,3.821,8.533,8.533v8.533
		c0.001,2.263-0.898,4.434-2.499,6.035C260.434,459.902,258.263,460.801,256,460.8z"/>
	<path id="SVGCleanerId_7" style="fill:#D69564;" d="M290.133,486.4c-2.263,0.001-4.434-0.898-6.035-2.499
		c-1.6-1.6-2.499-3.771-2.499-6.035v-8.533c0-4.713,3.821-8.533,8.533-8.533c4.713,0,8.533,3.821,8.533,8.533v8.533
		c0.001,2.263-0.898,4.434-2.499,6.035C294.568,485.502,292.397,486.401,290.133,486.4z"/>
	<path id="SVGCleanerId_8" style="fill:#D69564;" d="M324.267,460.8c-2.263,0.001-4.434-0.898-6.035-2.499
		c-1.6-1.6-2.499-3.771-2.499-6.035v-8.533c0-4.713,3.821-8.533,8.533-8.533s8.533,3.821,8.533,8.533v8.533
		c0.001,2.263-0.898,4.434-2.499,6.035C328.701,459.902,326.53,460.801,324.267,460.8z"/>
	<path id="SVGCleanerId_9" style="fill:#D69564;" d="M358.4,486.4c-2.263,0.001-4.434-0.898-6.035-2.499
		c-1.6-1.6-2.499-3.771-2.499-6.035v-8.533c0-4.713,3.82-8.533,8.533-8.533s8.533,3.821,8.533,8.533v8.533
		c0.001,2.263-0.898,4.434-2.499,6.035C362.834,485.502,360.663,486.401,358.4,486.4L358.4,486.4z"/>
	<path id="SVGCleanerId_10" style="fill:#D69564;" d="M392.533,460.8c-2.263,0.001-4.434-0.898-6.035-2.499
		c-1.6-1.6-2.499-3.771-2.499-6.035v-8.533c0-4.713,3.82-8.533,8.533-8.533s8.533,3.821,8.533,8.533v8.533
		c0.001,2.263-0.898,4.434-2.499,6.035C396.968,459.902,394.797,460.801,392.533,460.8z"/>
	<path id="SVGCleanerId_11" style="fill:#D69564;" d="M426.667,486.4c-2.263,0.001-4.434-0.898-6.035-2.499
		c-1.6-1.6-2.499-3.771-2.499-6.035v-8.533c0-4.713,3.82-8.533,8.533-8.533s8.533,3.821,8.533,8.533v8.533
		c0.001,2.263-0.898,4.434-2.499,6.035C431.101,485.502,428.93,486.401,426.667,486.4z"/>
	<path id="SVGCleanerId_12" style="fill:#D69564;" d="M460.8,460.8c-2.263,0.001-4.434-0.898-6.035-2.499
		c-1.6-1.6-2.499-3.771-2.499-6.035v-8.533c0-4.713,3.82-8.533,8.533-8.533s8.533,3.821,8.533,8.533v8.533
		c0.001,2.263-0.898,4.434-2.499,6.035C465.234,459.902,463.063,460.801,460.8,460.8z"/>
	<g>
		<path style="fill:#F48B00;" d="M503.467,418.133v34.133c-0.022,28.268-22.932,51.178-51.2,51.2H59.733
			c-28.268-0.022-51.178-22.932-51.2-51.2v-51.2l25.259,12.629c5.356,2.542,11.625,2.254,16.725-0.768l8.704-5.803
			c5.571-3.328,12.519-3.328,18.091,0l7.509,4.949c5.571,3.328,12.52,3.328,18.091,0l7.509-4.949c5.571-3.328,12.52-3.328,18.091,0
			l7.509,4.949c5.571,3.328,12.52,3.328,18.091,0l7.509-4.949c5.571-3.328,12.519-3.328,18.091,0l7.509,4.949
			c5.571,3.328,12.52,3.328,18.091,0l7.509-4.949c5.571-3.328,12.52-3.328,18.091,0l7.509,4.949c5.571,3.328,12.52,3.328,18.091,0
			l7.509-4.949c5.571-3.328,12.519-3.328,18.091,0l7.509,4.949c5.571,3.328,12.52,3.328,18.091,0l7.509-4.949
			c5.571-3.328,12.52-3.328,18.091,0l7.509,4.949c5.571,3.328,12.52,3.328,18.091,0l7.509-4.949c5.571-3.328,12.519-3.328,18.091,0
			l7.509,4.949c5.571,3.328,12.52,3.328,18.091,0l7.509-4.949c5.571-3.328,12.52-3.328,18.091,0l7.509,4.949
			c5.571,3.328,12.52,3.328,18.091,0l7.509-4.949c5.571-3.328,12.52-3.328,18.091,0L503.467,418.133z"/>
		<path style="fill:#FFA300;" d="M503.467,443.733v8.533c-0.022,28.268-22.932,51.178-51.2,51.2H59.733
			c-28.268-0.022-51.178-22.932-51.2-51.2v-25.6l25.259,12.629c5.356,2.542,11.625,2.254,16.725-0.768l8.704-5.803
			c5.571-3.328,12.519-3.328,18.091,0l7.509,4.949c5.571,3.328,12.52,3.328,18.091,0l7.509-4.949c5.571-3.328,12.52-3.328,18.091,0
			l7.509,4.949c5.571,3.328,12.52,3.328,18.091,0l7.509-4.949c5.571-3.328,12.519-3.328,18.091,0l7.509,4.949
			c5.571,3.328,12.52,3.328,18.091,0l7.509-4.949c5.571-3.328,12.52-3.328,18.091,0l7.509,4.949c5.571,3.328,12.52,3.328,18.091,0
			l7.509-4.949c5.571-3.328,12.519-3.328,18.091,0l7.509,4.949c5.571,3.328,12.52,3.328,18.091,0l7.509-4.949
			c5.571-3.328,12.52-3.328,18.091,0l7.509,4.949c5.571,3.328,12.52,3.328,18.091,0l7.509-4.949c5.571-3.328,12.519-3.328,18.091,0
			l7.509,4.949c5.571,3.328,12.52,3.328,18.091,0l7.509-4.949c5.571-3.328,12.52-3.328,18.091,0l7.509,4.949
			c5.571,3.328,12.52,3.328,18.091,0l7.509-4.949c5.571-3.328,12.52-3.328,18.091,0L503.467,443.733z"/>
	</g>
	<g>
		<path id="SVGCleanerId_6_1_" style="fill:#D69564;" d="M256,460.8c-2.263,0.001-4.434-0.898-6.035-2.499
			c-1.6-1.6-2.499-3.771-2.499-6.035v-8.533c0-4.713,3.821-8.533,8.533-8.533c4.713,0,8.533,3.821,8.533,8.533v8.533
			c0.001,2.263-0.898,4.434-2.499,6.035C260.434,459.902,258.263,460.801,256,460.8z"/>
	</g>
	<g>
		<path id="SVGCleanerId_7_1_" style="fill:#D69564;" d="M290.133,486.4c-2.263,0.001-4.434-0.898-6.035-2.499
			c-1.6-1.6-2.499-3.771-2.499-6.035v-8.533c0-4.713,3.821-8.533,8.533-8.533c4.713,0,8.533,3.821,8.533,8.533v8.533
			c0.001,2.263-0.898,4.434-2.499,6.035C294.568,485.502,292.397,486.401,290.133,486.4z"/>
	</g>
	<g>
		<path id="SVGCleanerId_8_1_" style="fill:#D69564;" d="M324.267,460.8c-2.263,0.001-4.434-0.898-6.035-2.499
			c-1.6-1.6-2.499-3.771-2.499-6.035v-8.533c0-4.713,3.821-8.533,8.533-8.533s8.533,3.821,8.533,8.533v8.533
			c0.001,2.263-0.898,4.434-2.499,6.035C328.701,459.902,326.53,460.801,324.267,460.8z"/>
	</g>
	<g>
		<path id="SVGCleanerId_9_1_" style="fill:#D69564;" d="M358.4,486.4c-2.263,0.001-4.434-0.898-6.035-2.499
			c-1.6-1.6-2.499-3.771-2.499-6.035v-8.533c0-4.713,3.82-8.533,8.533-8.533s8.533,3.821,8.533,8.533v8.533
			c0.001,2.263-0.898,4.434-2.499,6.035C362.834,485.502,360.663,486.401,358.4,486.4L358.4,486.4z"/>
	</g>
	<g>
		<path id="SVGCleanerId_10_1_" style="fill:#D69564;" d="M392.533,460.8c-2.263,0.001-4.434-0.898-6.035-2.499
			c-1.6-1.6-2.499-3.771-2.499-6.035v-8.533c0-4.713,3.82-8.533,8.533-8.533s8.533,3.821,8.533,8.533v8.533
			c0.001,2.263-0.898,4.434-2.499,6.035C396.968,459.902,394.797,460.801,392.533,460.8z"/>
	</g>
	<g>
		<path id="SVGCleanerId_11_1_" style="fill:#D69564;" d="M426.667,486.4c-2.263,0.001-4.434-0.898-6.035-2.499
			c-1.6-1.6-2.499-3.771-2.499-6.035v-8.533c0-4.713,3.82-8.533,8.533-8.533s8.533,3.821,8.533,8.533v8.533
			c0.001,2.263-0.898,4.434-2.499,6.035C431.101,485.502,428.93,486.401,426.667,486.4z"/>
	</g>
	<g>
		<path id="SVGCleanerId_12_1_" style="fill:#D69564;" d="M460.8,460.8c-2.263,0.001-4.434-0.898-6.035-2.499
			c-1.6-1.6-2.499-3.771-2.499-6.035v-8.533c0-4.713,3.82-8.533,8.533-8.533s8.533,3.821,8.533,8.533v8.533
			c0.001,2.263-0.898,4.434-2.499,6.035C465.234,459.902,463.063,460.801,460.8,460.8z"/>
	</g>
	<g>
		<path style="fill:#388841;" d="M503.467,349.867v68.267l-16.555-11.008c-5.571-3.328-12.52-3.328-18.091,0l-7.509,4.949
			c-5.571,3.328-12.52,3.328-18.091,0l-7.509-4.949c-5.571-3.328-12.52-3.328-18.091,0l-7.509,4.949
			c-5.571,3.328-12.52,3.328-18.091,0l-7.509-4.949c-5.571-3.328-12.52-3.328-18.091,0l-7.509,4.949
			c-5.571,3.328-12.52,3.328-18.091,0l-7.509-4.949c-5.571-3.328-12.52-3.328-18.091,0l-7.509,4.949
			c-5.571,3.328-12.52,3.328-18.091,0l-7.509-4.949c-5.571-3.328-12.52-3.328-18.091,0l-7.509,4.949
			c-5.571,3.328-12.52,3.328-18.091,0l-7.509-4.949c-5.571-3.328-12.52-3.328-18.091,0l-7.509,4.949
			c-5.571,3.328-12.52,3.328-18.091,0l-7.509-4.949c-5.571-3.328-12.52-3.328-18.091,0l-7.509,4.949
			c-5.571,3.328-12.52,3.328-18.091,0l-7.509-4.949c-5.571-3.328-12.52-3.328-18.091,0l-7.509,4.949
			c-5.571,3.328-12.52,3.328-18.091,0l-7.509-4.949c-5.571-3.328-12.52-3.328-18.091,0l-8.704,5.803
			c-5.1,3.022-11.369,3.31-16.725,0.768L8.533,401.067v-51.2H503.467z"/>
		<path style="fill:#5AB462;" d="M503.467,349.867v42.667l-16.555-11.008c-5.571-3.328-12.52-3.328-18.091,0l-7.509,4.949
			c-5.571,3.328-12.52,3.328-18.091,0l-7.509-4.949c-5.571-3.328-12.52-3.328-18.091,0l-7.509,4.949
			c-5.571,3.328-12.52,3.328-18.091,0l-7.509-4.949c-5.571-3.328-12.52-3.328-18.091,0l-7.509,4.949
			c-5.571,3.328-12.52,3.328-18.091,0l-7.509-4.949c-5.571-3.328-12.52-3.328-18.091,0l-7.509,4.949
			c-5.571,3.328-12.52,3.328-18.091,0l-7.509-4.949c-5.571-3.328-12.52-3.328-18.091,0l-7.509,4.949
			c-5.571,3.328-12.52,3.328-18.091,0l-7.509-4.949c-5.571-3.328-12.52-3.328-18.091,0l-7.509,4.949
			c-5.571,3.328-12.52,3.328-18.091,0l-7.509-4.949c-5.571-3.328-12.52-3.328-18.091,0l-7.509,4.949
			c-5.571,3.328-12.52,3.328-18.091,0l-7.509-4.949c-5.571-3.328-12.52-3.328-18.091,0l-7.509,4.949
			c-5.571,3.328-12.52,3.328-18.091,0l-7.509-4.949c-5.571-3.328-12.52-3.328-18.091,0l-8.704,5.803
			c-5.1,3.022-11.369,3.31-16.725,0.768L8.533,375.467v-25.6H503.467z"/>
		<g>
			<path d="M503.467,341.333H435.2V221.867c14.132-0.015,25.585-11.468,25.6-25.6v-25.6c-0.015-14.132-11.468-25.585-25.6-25.6
				h-34.133V75.228c10.199-3.592,17.033-13.214,17.067-24.028V25.6c-0.015-14.132-11.468-25.585-25.6-25.6H119.467
				c-14.132,0.015-25.585,11.468-25.6,25.6v25.6c0.033,10.813,6.868,20.435,17.067,24.027v69.84H76.8
				c-14.132,0.015-25.585,11.468-25.6,25.6v25.6c0.015,14.132,11.468,25.585,25.6,25.6v119.467H8.533
				c-2.263-0.001-4.434,0.898-6.035,2.499s-2.499,3.771-2.499,6.035v102.4C0.038,485.241,26.759,511.962,59.733,512h392.533
				c32.974-0.038,59.695-26.759,59.733-59.733v-102.4c0.001-2.263-0.898-4.434-2.499-6.035
				C507.901,342.232,505.73,341.333,503.467,341.333z M443.733,170.667v25.6c-0.005,4.711-3.822,8.529-8.533,8.533h-18.639
				c1.012-2.733,1.544-5.62,1.572-8.533v-25.6c-0.029-2.914-0.561-5.801-1.572-8.533H435.2
				C439.911,162.138,443.729,165.956,443.733,170.667z M110.933,196.267v-25.6c0.005-4.711,3.822-8.529,8.533-8.533h18.639
				c-1.012,2.733-1.544,5.62-1.572,8.533v25.6c0.029,2.914,0.561,5.801,1.573,8.533h-18.64
				C114.756,204.795,110.938,200.978,110.933,196.267z M128,76.8h256v68.267h-25.6v-25.6c-0.011-9.421-7.645-17.056-17.067-17.067
				h-42.667c-9.421,0.011-17.056,7.645-17.067,17.067v25.6h-51.2v-25.6c-0.011-9.421-7.645-17.056-17.067-17.067h-42.667
				c-9.421,0.011-17.056,7.645-17.067,17.067v25.6H128V76.8z M307.2,145.067h-8.533v-25.6h42.667v25.6H307.2z M170.667,145.067
				v-25.6h42.667v25.6H170.667z M153.6,196.267v-25.6c0.005-4.711,3.822-8.529,8.533-8.533h18.639
				c-1.012,2.733-1.544,5.62-1.572,8.533v25.6c0.029,2.914,0.561,5.801,1.573,8.533h-18.64
				C157.422,204.795,153.605,200.978,153.6,196.267L153.6,196.267z M196.267,196.267v-25.6c0.005-4.711,3.822-8.529,8.533-8.533
				h18.639c-1.012,2.733-1.544,5.62-1.572,8.533v25.6c0.029,2.914,0.561,5.801,1.573,8.533H204.8
				C200.089,204.795,196.271,200.978,196.267,196.267L196.267,196.267z M238.933,196.267v-25.6c0.005-4.711,3.822-8.529,8.533-8.533
				h17.067c4.711,0.005,8.529,3.822,8.533,8.533v25.6c-0.005,4.711-3.822,8.529-8.533,8.533h-17.067
				C242.756,204.795,238.938,200.978,238.933,196.267L238.933,196.267z M288.561,162.133H307.2c4.711,0.005,8.529,3.822,8.533,8.533
				v25.6c-0.005,4.711-3.822,8.529-8.533,8.533h-18.639c1.012-2.733,1.544-5.62,1.572-8.533v-25.6
				C290.105,167.753,289.573,164.866,288.561,162.133z M331.228,162.133h18.639c4.711,0.005,8.529,3.822,8.533,8.533v25.6
				c-0.005,4.711-3.822,8.529-8.533,8.533h-18.639c1.012-2.733,1.544-5.62,1.572-8.533v-25.6
				C332.771,167.753,332.239,164.866,331.228,162.133z M373.894,162.133h18.639c4.711,0.005,8.529,3.822,8.533,8.533v25.6
				c-0.005,4.711-3.822,8.529-8.533,8.533h-18.639c1.012-2.733,1.544-5.62,1.572-8.533v-25.6
				C375.438,167.753,374.906,164.866,373.894,162.133z M401.067,25.6v25.6c-0.005,4.711-3.822,8.529-8.533,8.533h-18.639
				c1.012-2.733,1.544-5.62,1.572-8.533V25.6c-0.029-2.914-0.561-5.801-1.572-8.533h18.639
				C397.244,17.071,401.062,20.889,401.067,25.6z M358.4,25.6v25.6c-0.005,4.711-3.822,8.529-8.533,8.533h-18.639
				c1.012-2.733,1.544-5.62,1.572-8.533V25.6c-0.029-2.914-0.561-5.801-1.572-8.533h18.639
				C354.578,17.071,358.395,20.889,358.4,25.6L358.4,25.6z M315.733,25.6v25.6c-0.005,4.711-3.822,8.529-8.533,8.533h-18.639
				c1.012-2.733,1.544-5.62,1.572-8.533V25.6c-0.029-2.914-0.561-5.801-1.572-8.533H307.2
				C311.911,17.071,315.729,20.889,315.733,25.6z M264.533,17.067c4.711,0.005,8.529,3.822,8.533,8.533v25.6
				c-0.005,4.711-3.822,8.529-8.533,8.533h-17.067c-4.711-0.005-8.529-3.822-8.533-8.533V25.6c0.005-4.711,3.822-8.529,8.533-8.533
				H264.533z M223.439,17.067c-1.012,2.733-1.544,5.62-1.572,8.533v25.6c0.029,2.914,0.561,5.801,1.573,8.533H204.8
				c-4.711-0.005-8.529-3.822-8.533-8.533V25.6c0.005-4.711,3.822-8.529,8.533-8.533H223.439z M180.772,17.067
				c-1.012,2.733-1.544,5.62-1.572,8.533v25.6c0.029,2.914,0.561,5.801,1.573,8.533h-18.64c-4.711-0.005-8.529-3.822-8.533-8.533
				V25.6c0.005-4.711,3.822-8.529,8.533-8.533H180.772z M110.933,25.6c0.005-4.711,3.822-8.529,8.533-8.533h18.639
				c-1.012,2.733-1.544,5.62-1.572,8.533v25.6c0.029,2.914,0.561,5.801,1.573,8.533h-18.64c-4.711-0.005-8.529-3.822-8.533-8.533
				V25.6z M68.267,196.267v-25.6c0.005-4.711,3.822-8.529,8.533-8.533h18.639c-1.012,2.733-1.544,5.62-1.572,8.533v25.6
				c0.029,2.914,0.561,5.801,1.573,8.533H76.8C72.089,204.795,68.271,200.978,68.267,196.267L68.267,196.267z M93.867,273.067h25.6
				v8.533c0,4.713,3.821,8.533,8.533,8.533c4.713,0,8.533-3.821,8.533-8.533v-8.533h25.6v8.533c0,4.713,3.821,8.533,8.533,8.533
				c4.713,0,8.533-3.821,8.533-8.533v-8.533c-0.011-9.421-7.645-17.056-17.067-17.067H153.6v-8.533c0-4.713-3.821-8.533-8.533-8.533
				c-4.713,0-8.533,3.821-8.533,8.533V256H93.867v-34.133h324.267v68.267h-25.6V281.6c0-4.713-3.82-8.533-8.533-8.533
				s-8.533,3.82-8.533,8.533v8.533h-25.6V281.6c0-4.713-3.821-8.533-8.533-8.533s-8.533,3.82-8.533,8.533v8.533
				c0.011,9.421,7.645,17.056,17.067,17.067h8.533v8.533c0,4.713,3.82,8.533,8.533,8.533s8.533-3.821,8.533-8.533V307.2h42.667
				v34.133H298.667V281.6c0-23.564-19.103-42.667-42.667-42.667c-23.564,0-42.667,19.103-42.667,42.667v59.733H93.867V273.067z
				 M281.6,341.333h-51.2V281.6c0-14.138,11.462-25.6,25.6-25.6c14.139,0,25.6,11.462,25.6,25.6V341.333z M85.333,358.4h409.6
				v43.786L491.654,400c-8.443-5.242-19.128-5.242-27.571,0l-7.504,5c-2.696,1.442-5.933,1.442-8.629,0l-7.496-5
				c-8.443-5.242-19.128-5.242-27.571,0l-7.504,5c-2.696,1.442-5.933,1.442-8.629,0l-7.496-5c-8.443-5.242-19.128-5.242-27.571,0
				l-7.504,5c-2.696,1.442-5.933,1.442-8.629,0l-7.496-5c-8.443-5.242-19.128-5.242-27.571,0l-7.504,5
				c-2.696,1.442-5.933,1.442-8.629,0l-7.496-5c-8.443-5.242-19.128-5.242-27.571,0l-7.504,5c-2.696,1.442-5.933,1.442-8.629,0
				l-7.496-5c-8.443-5.242-19.128-5.242-27.571,0l-7.504,5c-2.696,1.442-5.933,1.442-8.629,0l-7.496-5
				c-8.443-5.242-19.128-5.242-27.571,0l-7.504,5c-2.696,1.442-5.933,1.442-8.629,0l-7.496-5c-8.443-5.242-19.128-5.242-27.571,0
				l-7.504,5c-2.696,1.442-5.933,1.442-8.629,0l-7.495-5c-8.443-5.242-19.128-5.242-27.571,0l-8.695,5.8
				c-2.549,1.319-5.557,1.413-8.183,0.258l-20.538-10.267V358.4H85.333z M452.267,494.933H59.733
				c-23.553-0.028-42.639-19.114-42.667-42.667v-37.393l12.904,6.451c8.101,3.896,17.629,3.396,25.279-1.325l8.704-5.8
				c2.699-1.429,5.93-1.429,8.629,0l7.496,5c8.443,5.242,19.128,5.242,27.571,0l7.504-5c2.699-1.429,5.93-1.429,8.629,0l7.496,5
				c8.443,5.242,19.128,5.242,27.571,0l7.504-5c2.699-1.429,5.93-1.429,8.629,0l7.496,5c8.443,5.242,19.128,5.242,27.571,0l7.504-5
				c2.699-1.429,5.93-1.429,8.629,0l7.496,5c8.443,5.242,19.128,5.242,27.571,0l7.504-5c2.699-1.429,5.93-1.429,8.629,0l7.496,5
				c8.443,5.242,19.128,5.242,27.571,0l7.504-5c2.699-1.429,5.93-1.429,8.629,0l7.496,5c8.443,5.242,19.128,5.242,27.571,0l7.504-5
				c2.699-1.429,5.93-1.429,8.629,0l7.496,5c8.443,5.242,19.128,5.242,27.571,0l7.504-5c2.699-1.429,5.93-1.429,8.629,0l7.496,5
				c8.443,5.242,19.128,5.242,27.571,0l7.504-5c2.699-1.429,5.93-1.429,8.629,0l12.747,8.5v29.567
				C494.906,475.819,475.819,494.906,452.267,494.933z"/>
			<path d="M51.2,435.2c-2.263-0.001-4.434,0.898-6.035,2.499s-2.499,3.771-2.499,6.035v8.533c0,4.713,3.821,8.533,8.533,8.533
				s8.533-3.82,8.533-8.533v-8.533c0.001-2.263-0.898-4.434-2.499-6.035C55.634,436.098,53.463,435.199,51.2,435.2L51.2,435.2z"/>
			<path d="M85.333,460.8c-2.263-0.001-4.434,0.898-6.035,2.499c-1.6,1.6-2.499,3.771-2.499,6.035v8.533
				c0,4.713,3.821,8.533,8.533,8.533s8.533-3.82,8.533-8.533v-8.533c0.001-2.263-0.898-4.434-2.499-6.035
				S87.597,460.799,85.333,460.8z"/>
			<path d="M119.467,435.2c-2.263-0.001-4.434,0.898-6.035,2.499s-2.499,3.771-2.499,6.035v8.533c0,4.713,3.821,8.533,8.533,8.533
				c4.713,0,8.533-3.82,8.533-8.533v-8.533c0.001-2.263-0.898-4.434-2.499-6.035C123.901,436.098,121.73,435.199,119.467,435.2
				L119.467,435.2z"/>
			<path d="M153.6,460.8c-2.263-0.001-4.434,0.898-6.035,2.499c-1.6,1.6-2.499,3.771-2.499,6.035v8.533
				c0,4.713,3.82,8.533,8.533,8.533s8.533-3.82,8.533-8.533v-8.533c0.001-2.263-0.898-4.434-2.499-6.035
				C158.034,461.698,155.863,460.799,153.6,460.8L153.6,460.8z"/>
			<path d="M187.733,435.2c-2.263-0.001-4.434,0.898-6.035,2.499s-2.499,3.771-2.499,6.035v8.533c0,4.713,3.821,8.533,8.533,8.533
				c4.713,0,8.533-3.82,8.533-8.533v-8.533c0.001-2.263-0.898-4.434-2.499-6.035S189.997,435.199,187.733,435.2L187.733,435.2z"/>
			<path d="M221.867,460.8c-2.263-0.001-4.434,0.898-6.035,2.499s-2.499,3.771-2.499,6.035v8.533c0,4.713,3.821,8.533,8.533,8.533
				c4.713,0,8.533-3.82,8.533-8.533v-8.533c0.001-2.263-0.898-4.434-2.499-6.035C226.301,461.698,224.13,460.799,221.867,460.8z"/>
			<path d="M256,435.2c-2.263-0.001-4.434,0.898-6.035,2.499c-1.6,1.6-2.499,3.771-2.499,6.035v8.533
				c0,4.713,3.821,8.533,8.533,8.533c4.713,0,8.533-3.82,8.533-8.533v-8.533c0.001-2.263-0.898-4.434-2.499-6.035
				S258.263,435.199,256,435.2L256,435.2z"/>
			<path d="M290.133,460.8c-2.263-0.001-4.434,0.898-6.035,2.499s-2.499,3.771-2.499,6.035v8.533c0,4.713,3.821,8.533,8.533,8.533
				c4.713,0,8.533-3.82,8.533-8.533v-8.533c0.001-2.263-0.898-4.434-2.499-6.035C294.568,461.698,292.397,460.799,290.133,460.8z"/>
			<path d="M324.267,435.2c-2.263-0.001-4.434,0.898-6.035,2.499s-2.499,3.771-2.499,6.035v8.533c0,4.713,3.821,8.533,8.533,8.533
				s8.533-3.82,8.533-8.533v-8.533c0.001-2.263-0.898-4.434-2.499-6.035C328.701,436.098,326.53,435.199,324.267,435.2
				L324.267,435.2z"/>
			<path d="M358.4,460.8c-2.263-0.001-4.434,0.898-6.035,2.499c-1.6,1.6-2.499,3.771-2.499,6.035v8.533
				c0,4.713,3.82,8.533,8.533,8.533s8.533-3.82,8.533-8.533v-8.533c0.001-2.263-0.898-4.434-2.499-6.035
				C362.834,461.698,360.663,460.799,358.4,460.8L358.4,460.8z"/>
			<path d="M392.533,435.2c-2.263-0.001-4.434,0.898-6.035,2.499c-1.6,1.6-2.499,3.771-2.499,6.035v8.533
				c0,4.713,3.82,8.533,8.533,8.533s8.533-3.82,8.533-8.533v-8.533c0.001-2.263-0.898-4.434-2.499-6.035
				C396.968,436.098,394.797,435.199,392.533,435.2L392.533,435.2z"/>
			<path d="M426.667,460.8c-2.263-0.001-4.434,0.898-6.035,2.499c-1.6,1.6-2.499,3.771-2.499,6.035v8.533
				c0,4.713,3.82,8.533,8.533,8.533s8.533-3.82,8.533-8.533v-8.533c0.001-2.263-0.898-4.434-2.499-6.035
				C431.101,461.698,428.93,460.799,426.667,460.8z"/>
			<path d="M460.8,435.2c-2.263-0.001-4.434,0.898-6.035,2.499c-1.6,1.6-2.499,3.771-2.499,6.035v8.533
				c0,4.713,3.82,8.533,8.533,8.533s8.533-3.82,8.533-8.533v-8.533c0.001-2.263-0.898-4.434-2.499-6.035
				C465.234,436.098,463.063,435.199,460.8,435.2L460.8,435.2z"/>
		</g>
	</g>
</g>
<g>
</g>
<g>
</g>
<g>
</g>
<g>
</g>
<g>
</g>
<g>
</g>
<g>
</g>
<g>
</g>
<g>
</g>
<g>
</g>
<g>
</g>
<g>
</g>
<g>
</g>
<g>
</g>
<g>
</g>
</svg>
