<?xml version="1.0" encoding="iso-8859-1"?>
<!-- Generator: Adobe Illustrator 19.0.0, SVG Export Plug-In . SVG Version: 6.00 Build 0)  -->
<svg version="1.1" id="Capa_1" xmlns="http://www.w3.org/2000/svg" xmlns:xlink="http://www.w3.org/1999/xlink" x="0px" y="0px"
	 viewBox="0 0 512.036 512.036" style="enable-background:new 0 0 512.036 512.036;" xml:space="preserve">
<g transform="translate(0 -1)">
	<path style="fill:#008F9B;" d="M59.751,9.569h392.533c28.277,0,51.2,22.923,51.2,51.2v341.333H8.551V60.769
		C8.551,32.492,31.474,9.569,59.751,9.569z"/>
	<path style="fill:#00C2D7;" d="M75.021,9.569h361.994c27.285,0,49.403,22.118,49.403,49.403v343.13h-460.8V58.972
		C25.618,31.688,47.736,9.569,75.021,9.569z"/>
	<rect x="426.685" y="316.769" style="fill:#F6AB27;" width="34.133" height="34.133"/>
	<path id="SVGCleanerId_0" style="fill:#FFFFFF;" d="M443.751,325.303c-2.263,0.001-4.434-0.898-6.035-2.499
		c-1.6-1.6-2.499-3.771-2.499-6.035V43.703c0-4.713,3.82-8.533,8.533-8.533s8.533,3.821,8.533,8.533v273.067
		c0.001,2.263-0.898,4.434-2.499,6.035C448.186,324.404,446.015,325.303,443.751,325.303z"/>
	<circle style="fill:#FFBA00;" cx="443.751" cy="26.636" r="17.067"/>
	<polygon style="fill:#CD4F38;" points="443.751,52.236 375.485,77.836 443.751,103.436 	"/>
	<polygon style="fill:#008F9B;" points="213.351,137.569 213.351,180.236 170.685,180.236 170.685,222.903 128.018,222.903 
		128.018,265.569 85.351,265.569 85.351,308.236 42.685,308.236 42.685,350.903 42.685,367.969 85.351,367.969 128.018,367.969 
		170.685,367.969 213.351,367.969 256.018,367.969 256.018,350.903 256.018,308.236 256.018,265.569 256.018,222.903 
		256.018,180.236 256.018,137.569 	"/>
	<g>
		<rect x="85.351" y="308.236" style="fill:#007B6F;" width="42.667" height="59.733"/>
		<rect x="170.685" y="308.236" style="fill:#007B6F;" width="42.667" height="59.733"/>
		<rect x="128.018" y="265.569" style="fill:#007B6F;" width="42.667" height="42.667"/>
		<rect x="170.685" y="222.903" style="fill:#007B6F;" width="42.667" height="42.667"/>
		<rect x="213.351" y="265.569" style="fill:#007B6F;" width="42.667" height="42.667"/>
		<rect x="213.351" y="180.236" style="fill:#007B6F;" width="42.667" height="42.667"/>
	</g>
	<polygon style="fill:#EB3A76;" points="443.751,52.236 375.485,77.836 443.751,103.436 	"/>
	<g>
		<path id="SVGCleanerId_0_1_" style="fill:#FFFFFF;" d="M443.751,325.303c-2.263,0.001-4.434-0.898-6.035-2.499
			c-1.6-1.6-2.499-3.771-2.499-6.035V43.703c0-4.713,3.82-8.533,8.533-8.533s8.533,3.821,8.533,8.533v273.067
			c0.001,2.263-0.898,4.434-2.499,6.035C448.186,324.404,446.015,325.303,443.751,325.303z"/>
	</g>
	<circle style="fill:#F9D842;" cx="443.751" cy="26.636" r="17.067"/>
	<path id="SVGCleanerId_1" style="fill:#D69564;" d="M256.018,461.836c-2.263,0.001-4.434-0.898-6.035-2.499
		c-1.6-1.6-2.499-3.771-2.499-6.035v-8.533c0-4.713,3.821-8.533,8.533-8.533c4.713,0,8.533,3.82,8.533,8.533v8.533
		c0.001,2.263-0.898,4.434-2.499,6.035S258.281,461.837,256.018,461.836z"/>
	<path id="SVGCleanerId_2" style="fill:#D69564;" d="M290.151,487.436c-2.263,0.001-4.434-0.898-6.035-2.499
		c-1.6-1.6-2.499-3.771-2.499-6.035v-8.533c0-4.713,3.82-8.533,8.533-8.533s8.533,3.82,8.533,8.533v8.533
		c0.001,2.263-0.898,4.434-2.499,6.035C294.586,486.538,292.415,487.437,290.151,487.436z"/>
	<path id="SVGCleanerId_3" style="fill:#D69564;" d="M324.285,461.836c-2.263,0.001-4.434-0.898-6.035-2.499
		c-1.6-1.6-2.499-3.771-2.499-6.035v-8.533c0-4.713,3.821-8.533,8.533-8.533c4.713,0,8.533,3.82,8.533,8.533v8.533
		c0.001,2.263-0.898,4.434-2.499,6.035S326.548,461.837,324.285,461.836z"/>
	<path id="SVGCleanerId_4" style="fill:#D69564;" d="M358.418,487.436c-2.263,0.001-4.434-0.898-6.035-2.499
		c-1.6-1.6-2.499-3.771-2.499-6.035v-8.533c0-4.713,3.821-8.533,8.533-8.533c4.713,0,8.533,3.82,8.533,8.533v8.533
		c0.001,2.263-0.898,4.434-2.499,6.035C362.852,486.538,360.681,487.437,358.418,487.436L358.418,487.436z"/>
	<path id="SVGCleanerId_5" style="fill:#D69564;" d="M392.551,461.836c-2.263,0.001-4.434-0.898-6.035-2.499
		s-2.499-3.771-2.499-6.035v-8.533c0-4.713,3.821-8.533,8.533-8.533s8.533,3.82,8.533,8.533v8.533
		c0.001,2.263-0.898,4.434-2.499,6.035C396.986,460.938,394.815,461.837,392.551,461.836z"/>
	<path id="SVGCleanerId_6" style="fill:#D69564;" d="M426.685,487.436c-2.263,0.001-4.434-0.898-6.035-2.499
		c-1.6-1.6-2.499-3.771-2.499-6.035v-8.533c0-4.713,3.82-8.533,8.533-8.533s8.533,3.82,8.533,8.533v8.533
		c0.001,2.263-0.898,4.434-2.499,6.035C431.119,486.538,428.948,487.437,426.685,487.436z"/>
	<path id="SVGCleanerId_7" style="fill:#D69564;" d="M460.818,461.836c-2.263,0.001-4.434-0.898-6.035-2.499
		c-1.6-1.6-2.499-3.771-2.499-6.035v-8.533c0-4.713,3.82-8.533,8.533-8.533s8.533,3.82,8.533,8.533v8.533
		c0.001,2.263-0.898,4.434-2.499,6.035C465.252,460.938,463.081,461.837,460.818,461.836z"/>
	<path style="fill:#F48B00;" d="M503.485,419.169v34.133c-0.022,28.268-22.932,51.178-51.2,51.2H59.751
		c-28.268-0.022-51.178-22.932-51.2-51.2v-51.2l25.259,12.629c5.356,2.542,11.625,2.254,16.725-0.768l8.704-5.803
		c5.571-3.328,12.519-3.328,18.091,0l7.509,4.949c5.571,3.328,12.52,3.328,18.091,0l7.509-4.949c5.571-3.328,12.52-3.328,18.091,0
		l7.509,4.949c5.571,3.328,12.52,3.328,18.091,0l7.509-4.949c5.571-3.328,12.52-3.328,18.091,0l7.509,4.949
		c5.571,3.328,12.52,3.328,18.091,0l7.509-4.949c5.571-3.328,12.52-3.328,18.091,0l7.509,4.949c5.571,3.328,12.52,3.328,18.091,0
		l7.509-4.949c5.571-3.328,12.52-3.328,18.091,0l7.509,4.949c5.571,3.328,12.52,3.328,18.091,0l7.509-4.949
		c5.571-3.328,12.519-3.328,18.091,0l7.509,4.949c5.571,3.328,12.52,3.328,18.091,0l7.509-4.949c5.571-3.328,12.52-3.328,18.091,0
		l7.509,4.949c5.571,3.328,12.52,3.328,18.091,0l7.509-4.949c5.571-3.328,12.52-3.328,18.091,0l7.509,4.949
		c5.571,3.328,12.52,3.328,18.091,0l7.509-4.949c5.571-3.328,12.52-3.328,18.091,0L503.485,419.169z"/>
	<path style="fill:#FFA300;" d="M503.485,444.769v8.533c-0.022,28.268-22.932,51.178-51.2,51.2H59.751
		c-28.268-0.022-51.178-22.932-51.2-51.2v-25.6l25.259,12.629c5.356,2.542,11.625,2.254,16.725-0.768l8.704-5.803
		c5.571-3.328,12.519-3.328,18.091,0l7.509,4.949c5.571,3.328,12.52,3.328,18.091,0l7.509-4.949c5.571-3.328,12.52-3.328,18.091,0
		l7.509,4.949c5.571,3.328,12.52,3.328,18.091,0l7.509-4.949c5.571-3.328,12.52-3.328,18.091,0l7.509,4.949
		c5.571,3.328,12.52,3.328,18.091,0l7.509-4.949c5.571-3.328,12.52-3.328,18.091,0l7.509,4.949c5.571,3.328,12.52,3.328,18.091,0
		l7.509-4.949c5.571-3.328,12.52-3.328,18.091,0l7.509,4.949c5.571,3.328,12.52,3.328,18.091,0l7.509-4.949
		c5.571-3.328,12.519-3.328,18.091,0l7.509,4.949c5.571,3.328,12.52,3.328,18.091,0l7.509-4.949c5.571-3.328,12.52-3.328,18.091,0
		l7.509,4.949c5.571,3.328,12.52,3.328,18.091,0l7.509-4.949c5.571-3.328,12.52-3.328,18.091,0l7.509,4.949
		c5.571,3.328,12.52,3.328,18.091,0l7.509-4.949c5.571-3.328,12.52-3.328,18.091,0L503.485,444.769z"/>
	<g>
		<path id="SVGCleanerId_1_1_" style="fill:#D69564;" d="M256.018,461.836c-2.263,0.001-4.434-0.898-6.035-2.499
			c-1.6-1.6-2.499-3.771-2.499-6.035v-8.533c0-4.713,3.821-8.533,8.533-8.533c4.713,0,8.533,3.82,8.533,8.533v8.533
			c0.001,2.263-0.898,4.434-2.499,6.035S258.281,461.837,256.018,461.836z"/>
	</g>
	<g>
		<path id="SVGCleanerId_2_1_" style="fill:#D69564;" d="M290.151,487.436c-2.263,0.001-4.434-0.898-6.035-2.499
			c-1.6-1.6-2.499-3.771-2.499-6.035v-8.533c0-4.713,3.82-8.533,8.533-8.533s8.533,3.82,8.533,8.533v8.533
			c0.001,2.263-0.898,4.434-2.499,6.035C294.586,486.538,292.415,487.437,290.151,487.436z"/>
	</g>
	<g>
		<path id="SVGCleanerId_3_1_" style="fill:#D69564;" d="M324.285,461.836c-2.263,0.001-4.434-0.898-6.035-2.499
			c-1.6-1.6-2.499-3.771-2.499-6.035v-8.533c0-4.713,3.821-8.533,8.533-8.533c4.713,0,8.533,3.82,8.533,8.533v8.533
			c0.001,2.263-0.898,4.434-2.499,6.035S326.548,461.837,324.285,461.836z"/>
	</g>
	<g>
		<path id="SVGCleanerId_4_1_" style="fill:#D69564;" d="M358.418,487.436c-2.263,0.001-4.434-0.898-6.035-2.499
			c-1.6-1.6-2.499-3.771-2.499-6.035v-8.533c0-4.713,3.821-8.533,8.533-8.533c4.713,0,8.533,3.82,8.533,8.533v8.533
			c0.001,2.263-0.898,4.434-2.499,6.035C362.852,486.538,360.681,487.437,358.418,487.436L358.418,487.436z"/>
	</g>
	<g>
		<path id="SVGCleanerId_5_1_" style="fill:#D69564;" d="M392.551,461.836c-2.263,0.001-4.434-0.898-6.035-2.499
			s-2.499-3.771-2.499-6.035v-8.533c0-4.713,3.821-8.533,8.533-8.533s8.533,3.82,8.533,8.533v8.533
			c0.001,2.263-0.898,4.434-2.499,6.035C396.986,460.938,394.815,461.837,392.551,461.836z"/>
	</g>
	<g>
		<path id="SVGCleanerId_6_1_" style="fill:#D69564;" d="M426.685,487.436c-2.263,0.001-4.434-0.898-6.035-2.499
			c-1.6-1.6-2.499-3.771-2.499-6.035v-8.533c0-4.713,3.82-8.533,8.533-8.533s8.533,3.82,8.533,8.533v8.533
			c0.001,2.263-0.898,4.434-2.499,6.035C431.119,486.538,428.948,487.437,426.685,487.436z"/>
	</g>
	<g>
		<path id="SVGCleanerId_7_1_" style="fill:#D69564;" d="M460.818,461.836c-2.263,0.001-4.434-0.898-6.035-2.499
			c-1.6-1.6-2.499-3.771-2.499-6.035v-8.533c0-4.713,3.82-8.533,8.533-8.533s8.533,3.82,8.533,8.533v8.533
			c0.001,2.263-0.898,4.434-2.499,6.035C465.252,460.938,463.081,461.837,460.818,461.836z"/>
	</g>
	<path style="fill:#388841;" d="M503.485,350.903v68.267l-16.555-11.008c-5.571-3.328-12.52-3.328-18.091,0l-7.509,4.949
		c-5.571,3.328-12.52,3.328-18.091,0l-7.509-4.949c-5.571-3.328-12.52-3.328-18.091,0l-7.509,4.949
		c-5.571,3.328-12.52,3.328-18.091,0l-7.509-4.949c-5.571-3.328-12.52-3.328-18.091,0l-7.509,4.949
		c-5.571,3.328-12.52,3.328-18.091,0l-7.509-4.949c-5.571-3.328-12.52-3.328-18.091,0l-7.509,4.949
		c-5.571,3.328-12.52,3.328-18.091,0l-7.509-4.949c-5.571-3.328-12.52-3.328-18.091,0l-7.509,4.949
		c-5.571,3.328-12.52,3.328-18.091,0l-7.509-4.949c-5.571-3.328-12.52-3.328-18.091,0l-7.509,4.949
		c-5.571,3.328-12.52,3.328-18.091,0l-7.509-4.949c-5.571-3.328-12.519-3.328-18.091,0l-7.509,4.949
		c-5.571,3.328-12.52,3.328-18.091,0l-7.509-4.949c-5.571-3.328-12.52-3.328-18.091,0l-7.509,4.949
		c-5.571,3.328-12.52,3.328-18.091,0l-7.509-4.949c-5.571-3.328-12.52-3.328-18.091,0l-8.704,5.803
		c-5.1,3.022-11.369,3.31-16.725,0.768L8.551,402.103v-51.2H503.485z"/>
	<path style="fill:#5AB462;" d="M503.485,350.903v42.667l-16.555-11.008c-5.571-3.328-12.52-3.328-18.091,0l-7.509,4.949
		c-5.571,3.328-12.52,3.328-18.091,0l-7.509-4.949c-5.571-3.328-12.52-3.328-18.091,0l-7.509,4.949
		c-5.571,3.328-12.52,3.328-18.091,0l-7.509-4.949c-5.571-3.328-12.52-3.328-18.091,0l-7.509,4.949
		c-5.571,3.328-12.52,3.328-18.091,0l-7.509-4.949c-5.571-3.328-12.52-3.328-18.091,0l-7.509,4.949
		c-5.571,3.328-12.52,3.328-18.091,0l-7.509-4.949c-5.571-3.328-12.52-3.328-18.091,0l-7.509,4.949
		c-5.571,3.328-12.52,3.328-18.091,0l-7.509-4.949c-5.571-3.328-12.52-3.328-18.091,0l-7.509,4.949
		c-5.571,3.328-12.52,3.328-18.091,0l-7.509-4.949c-5.571-3.328-12.519-3.328-18.091,0l-7.509,4.949
		c-5.571,3.328-12.52,3.328-18.091,0l-7.509-4.949c-5.571-3.328-12.52-3.328-18.091,0l-7.509,4.949
		c-5.571,3.328-12.52,3.328-18.091,0l-7.509-4.949c-5.571-3.328-12.52-3.328-18.091,0l-8.704,5.803
		c-5.1,3.022-11.369,3.31-16.725,0.768L8.551,376.503v-25.6H503.485z"/>
	<rect x="426.685" y="316.769" style="fill:#F9D842;" width="34.133" height="34.133"/>
	<g>
		<path d="M503.485,342.369h-34.133v-25.6c0.001-2.263-0.898-4.434-2.499-6.035c-1.6-1.6-3.771-2.499-6.035-2.499h-8.533V50.664
			c11.231-3.992,18.214-15.214,16.834-27.053c-1.38-11.839-10.757-21.154-22.605-22.456c-11.848-1.302-23.024,5.755-26.942,17.012
			s0.462,23.728,10.558,30.063l-57.641,21.615c-3.331,1.25-5.537,4.434-5.537,7.991s2.206,6.742,5.537,7.991l62.729,23.524v198.885
			h-8.533c-2.263-0.001-4.434,0.898-6.035,2.499c-1.6,1.6-2.499,3.771-2.499,6.035v25.6h-153.6v-204.8
			c0.001-2.263-0.898-4.434-2.499-6.035c-1.6-1.6-3.771-2.499-6.035-2.499h-42.667c-2.263-0.001-4.434,0.898-6.035,2.499
			c-1.6,1.6-2.499,3.771-2.499,6.035v34.133h-34.133c-2.263-0.001-4.434,0.898-6.035,2.499c-1.6,1.6-2.499,3.771-2.499,6.035v34.133
			h-34.133c-2.263-0.001-4.434,0.898-6.035,2.499s-2.499,3.771-2.499,6.035v34.133H85.351c-2.263-0.001-4.434,0.898-6.035,2.499
			c-1.6,1.6-2.499,3.771-2.499,6.035v34.133H42.685c-2.263-0.001-4.434,0.898-6.035,2.499c-1.6,1.6-2.499,3.771-2.499,6.035v34.133
			h-25.6c-2.263-0.001-4.434,0.898-6.035,2.499c-1.6,1.6-2.499,3.771-2.499,6.035v102.4c0.038,32.974,26.759,59.695,59.733,59.733
			h392.533c32.974-0.038,59.695-26.759,59.733-59.733v-102.4c0.001-2.263-0.898-4.434-2.499-6.035
			C507.919,343.268,505.748,342.369,503.485,342.369z M443.751,18.103c4.713,0,8.533,3.821,8.533,8.533s-3.821,8.533-8.533,8.533
			s-8.533-3.821-8.533-8.533C435.223,21.925,439.04,18.107,443.751,18.103z M399.789,77.836l35.429-13.283v26.567L399.789,77.836z
			 M435.218,325.303h17.067v17.067h-17.067V325.303z M179.218,342.369v-25.6h25.6v25.6H179.218z M136.551,342.369v-25.6h25.6v25.6
			H136.551z M93.885,342.369v-25.6h25.6v25.6H93.885z M162.151,274.103v25.6h-25.6v-25.6H162.151z M204.818,231.436v25.6h-25.6
			v-25.6H204.818z M247.485,188.769v25.6h-25.6v-25.6H247.485z M179.218,274.103h25.6v25.6h-25.6V274.103z M247.485,257.036h-25.6
			v-25.6h25.6V257.036z M221.885,274.103h25.6v25.6h-25.6V274.103z M221.885,316.769h25.6v25.6h-25.6V316.769z M221.885,146.103
			h25.6v25.6h-25.6V146.103z M179.218,188.769h25.6v25.6h-25.6V188.769z M136.551,231.436h25.6v25.6h-25.6V231.436z M93.885,274.103
			h25.6v25.6h-25.6V274.103z M51.218,316.769h25.6v25.6h-25.6V316.769z M42.685,359.436h452.267v43.786l-3.279-2.186
			c-8.443-5.242-19.128-5.242-27.571,0l-7.504,5c-2.696,1.442-5.933,1.442-8.629,0l-7.496-5c-8.443-5.242-19.128-5.242-27.571,0
			l-7.504,5c-2.696,1.442-5.933,1.442-8.629,0l-7.496-5c-8.443-5.242-19.128-5.242-27.571,0l-7.504,5
			c-2.696,1.442-5.933,1.442-8.629,0l-7.496-5c-8.443-5.242-19.128-5.242-27.571,0l-7.504,5c-2.696,1.442-5.933,1.442-8.629,0
			l-7.496-5c-8.443-5.242-19.128-5.242-27.571,0l-7.504,5c-2.696,1.442-5.933,1.442-8.629,0l-7.496-5
			c-8.443-5.242-19.128-5.242-27.571,0l-7.504,5c-2.696,1.442-5.933,1.442-8.629,0l-7.496-5c-8.443-5.242-19.128-5.242-27.571,0
			l-7.504,5c-2.696,1.442-5.933,1.442-8.629,0l-7.496-5c-8.443-5.242-19.128-5.242-27.571,0l-7.504,5
			c-2.696,1.442-5.933,1.442-8.629,0l-7.495-5c-8.443-5.242-19.128-5.242-27.571,0l-8.695,5.8c-2.549,1.319-5.557,1.414-8.183,0.258
			l-20.538-10.267v-37.391H42.685z M452.285,495.969H59.751c-23.553-0.028-42.639-19.114-42.667-42.667V415.91l12.904,6.451
			c8.101,3.896,17.629,3.397,25.279-1.325l8.704-5.8c2.699-1.429,5.93-1.429,8.629,0l7.496,5c8.443,5.242,19.128,5.242,27.571,0
			l7.504-5c2.699-1.429,5.93-1.429,8.629,0l7.496,5c8.443,5.242,19.128,5.242,27.571,0l7.504-5c2.699-1.429,5.93-1.429,8.629,0
			l7.496,5c8.443,5.242,19.128,5.242,27.571,0l7.504-5c2.699-1.429,5.93-1.429,8.629,0l7.496,5c8.443,5.242,19.128,5.242,27.571,0
			l7.504-5c2.699-1.429,5.93-1.429,8.629,0l7.496,5c8.443,5.242,19.128,5.242,27.571,0l7.504-5c2.699-1.429,5.93-1.429,8.629,0
			l7.496,5c8.443,5.242,19.128,5.242,27.571,0l7.504-5c2.699-1.429,5.93-1.429,8.629,0l7.496,5c8.443,5.242,19.128,5.242,27.571,0
			l7.504-5c2.699-1.429,5.93-1.429,8.629,0l7.496,5c8.443,5.242,19.128,5.242,27.571,0l7.504-5c2.699-1.429,5.93-1.429,8.629,0
			l12.747,8.5v29.567C494.924,476.855,475.837,495.942,452.285,495.969z"/>
		<path d="M51.218,436.236c-2.263-0.001-4.434,0.898-6.035,2.499c-1.6,1.6-2.499,3.771-2.499,6.035v8.533
			c0,4.713,3.821,8.533,8.533,8.533s8.533-3.821,8.533-8.533v-8.533c0.001-2.263-0.898-4.434-2.499-6.035
			C55.652,437.134,53.481,436.236,51.218,436.236L51.218,436.236z"/>
		<path d="M85.351,461.836c-2.263-0.001-4.434,0.898-6.035,2.499c-1.6,1.6-2.499,3.771-2.499,6.035v8.533
			c0,4.713,3.821,8.533,8.533,8.533s8.533-3.821,8.533-8.533v-8.533c0.001-2.263-0.898-4.434-2.499-6.035
			C89.786,462.734,87.615,461.835,85.351,461.836z"/>
		<path d="M119.485,436.236c-2.263-0.001-4.434,0.898-6.035,2.499c-1.6,1.6-2.499,3.771-2.499,6.035v8.533
			c0,4.713,3.821,8.533,8.533,8.533c4.713,0,8.533-3.821,8.533-8.533v-8.533c0.001-2.263-0.898-4.434-2.499-6.035
			C123.919,437.134,121.748,436.236,119.485,436.236L119.485,436.236z"/>
		<path d="M153.618,461.836c-2.263-0.001-4.434,0.898-6.035,2.499c-1.6,1.6-2.499,3.771-2.499,6.035v8.533
			c0,4.713,3.821,8.533,8.533,8.533c4.713,0,8.533-3.821,8.533-8.533v-8.533c0.001-2.263-0.898-4.434-2.499-6.035
			C158.052,462.734,155.881,461.835,153.618,461.836L153.618,461.836z"/>
		<path d="M187.751,436.236c-2.263-0.001-4.434,0.898-6.035,2.499c-1.6,1.6-2.499,3.771-2.499,6.035v8.533
			c0,4.713,3.821,8.533,8.533,8.533s8.533-3.821,8.533-8.533v-8.533c0.001-2.263-0.898-4.434-2.499-6.035
			C192.186,437.134,190.015,436.236,187.751,436.236L187.751,436.236z"/>
		<path d="M221.885,461.836c-2.263-0.001-4.434,0.898-6.035,2.499c-1.6,1.6-2.499,3.771-2.499,6.035v8.533
			c0,4.713,3.82,8.533,8.533,8.533s8.533-3.821,8.533-8.533v-8.533c0.001-2.263-0.898-4.434-2.499-6.035
			C226.319,462.734,224.148,461.835,221.885,461.836z"/>
		<path d="M256.018,436.236c-2.263-0.001-4.434,0.898-6.035,2.499c-1.6,1.6-2.499,3.771-2.499,6.035v8.533
			c0,4.713,3.821,8.533,8.533,8.533c4.713,0,8.533-3.821,8.533-8.533v-8.533c0.001-2.263-0.898-4.434-2.499-6.035
			C260.452,437.134,258.281,436.236,256.018,436.236L256.018,436.236z"/>
		<path d="M290.151,461.836c-2.263-0.001-4.434,0.898-6.035,2.499c-1.6,1.6-2.499,3.771-2.499,6.035v8.533
			c0,4.713,3.82,8.533,8.533,8.533s8.533-3.821,8.533-8.533v-8.533c0.001-2.263-0.898-4.434-2.499-6.035
			C294.586,462.734,292.415,461.835,290.151,461.836z"/>
		<path d="M324.285,436.236c-2.263-0.001-4.434,0.898-6.035,2.499c-1.6,1.6-2.499,3.771-2.499,6.035v8.533
			c0,4.713,3.821,8.533,8.533,8.533c4.713,0,8.533-3.821,8.533-8.533v-8.533c0.001-2.263-0.898-4.434-2.499-6.035
			C328.719,437.134,326.548,436.236,324.285,436.236L324.285,436.236z"/>
		<path d="M358.418,461.836c-2.263-0.001-4.434,0.898-6.035,2.499c-1.6,1.6-2.499,3.771-2.499,6.035v8.533
			c0,4.713,3.821,8.533,8.533,8.533c4.713,0,8.533-3.821,8.533-8.533v-8.533c0.001-2.263-0.898-4.434-2.499-6.035
			C362.852,462.734,360.681,461.835,358.418,461.836L358.418,461.836z"/>
		<path d="M392.551,436.236c-2.263-0.001-4.434,0.898-6.035,2.499c-1.6,1.6-2.499,3.771-2.499,6.035v8.533
			c0,4.713,3.821,8.533,8.533,8.533s8.533-3.821,8.533-8.533v-8.533c0.001-2.263-0.898-4.434-2.499-6.035
			C396.986,437.134,394.815,436.236,392.551,436.236L392.551,436.236z"/>
		<path d="M426.685,461.836c-2.263-0.001-4.434,0.898-6.035,2.499c-1.6,1.6-2.499,3.771-2.499,6.035v8.533
			c0,4.713,3.82,8.533,8.533,8.533s8.533-3.821,8.533-8.533v-8.533c0.001-2.263-0.898-4.434-2.499-6.035
			C431.119,462.734,428.948,461.835,426.685,461.836z"/>
		<path d="M460.818,436.236c-2.263-0.001-4.434,0.898-6.035,2.499c-1.6,1.6-2.499,3.771-2.499,6.035v8.533
			c0,4.713,3.82,8.533,8.533,8.533s8.533-3.821,8.533-8.533v-8.533c0.001-2.263-0.898-4.434-2.499-6.035
			C465.252,437.134,463.081,436.236,460.818,436.236L460.818,436.236z"/>
	</g>
</g>
<g>
</g>
<g>
</g>
<g>
</g>
<g>
</g>
<g>
</g>
<g>
</g>
<g>
</g>
<g>
</g>
<g>
</g>
<g>
</g>
<g>
</g>
<g>
</g>
<g>
</g>
<g>
</g>
<g>
</g>
</svg>
