<?xml version="1.0" encoding="iso-8859-1"?>
<!-- Generator: Adobe Illustrator 19.0.0, SVG Export Plug-In . SVG Version: 6.00 Build 0)  -->
<svg version="1.1" id="Capa_1" xmlns="http://www.w3.org/2000/svg" xmlns:xlink="http://www.w3.org/1999/xlink" x="0px" y="0px"
	 viewBox="0 0 512 512" style="enable-background:new 0 0 512 512;" xml:space="preserve">
<g>
	<g>
		<path style="fill:#008F9B;" d="M59.733,4.267h392.533c28.277,0,51.2,22.923,51.2,51.2V396.8H8.533V55.467
			C8.533,27.19,31.456,4.267,59.733,4.267z"/>
		<path style="fill:#00C2D7;" d="M75.003,4.267h361.994c27.284,0,49.403,22.118,49.403,49.403V396.8H25.6V53.67
			C25.6,26.385,47.718,4.267,75.003,4.267z"/>
	</g>
	<path id="SVGCleanerId_0" style="fill:#D69564;" d="M290.133,482.133c-2.263,0.001-4.434-0.898-6.035-2.499
		c-1.6-1.6-2.499-3.771-2.499-6.035v-8.533c0-4.713,3.821-8.533,8.533-8.533c4.713,0,8.533,3.82,8.533,8.533v8.533
		c0.001,2.263-0.898,4.434-2.499,6.035C294.568,481.235,292.397,482.134,290.133,482.133z"/>
	<path id="SVGCleanerId_1" style="fill:#D69564;" d="M324.267,456.533c-2.263,0.001-4.434-0.898-6.035-2.499
		c-1.6-1.6-2.499-3.771-2.499-6.035v-8.533c0-4.713,3.821-8.533,8.533-8.533s8.533,3.821,8.533,8.533V448
		c0.001,2.263-0.898,4.434-2.499,6.035C328.701,455.635,326.53,456.534,324.267,456.533z"/>
	<path id="SVGCleanerId_2" style="fill:#D69564;" d="M358.4,482.133c-2.263,0.001-4.434-0.898-6.035-2.499
		c-1.6-1.6-2.499-3.771-2.499-6.035v-8.533c0-4.713,3.82-8.533,8.533-8.533s8.533,3.82,8.533,8.533v8.533
		c0.001,2.263-0.898,4.434-2.499,6.035C362.834,481.235,360.663,482.134,358.4,482.133L358.4,482.133z"/>
	<path id="SVGCleanerId_3" style="fill:#D69564;" d="M392.533,456.533c-2.263,0.001-4.434-0.898-6.035-2.499
		c-1.6-1.6-2.499-3.771-2.499-6.035v-8.533c0-4.713,3.82-8.533,8.533-8.533s8.533,3.821,8.533,8.533V448
		c0.001,2.263-0.898,4.434-2.499,6.035C396.968,455.635,394.797,456.534,392.533,456.533z"/>
	<path id="SVGCleanerId_4" style="fill:#D69564;" d="M426.667,482.133c-2.263,0.001-4.434-0.898-6.035-2.499
		c-1.6-1.6-2.499-3.771-2.499-6.035v-8.533c0-4.713,3.82-8.533,8.533-8.533s8.533,3.82,8.533,8.533v8.533
		c0.001,2.263-0.898,4.434-2.499,6.035C431.101,481.235,428.93,482.134,426.667,482.133z"/>
	<path id="SVGCleanerId_5" style="fill:#D69564;" d="M460.8,456.533c-2.263,0.001-4.434-0.898-6.035-2.499
		c-1.6-1.6-2.499-3.771-2.499-6.035v-8.533c0-4.713,3.82-8.533,8.533-8.533s8.533,3.821,8.533,8.533V448
		c0.001,2.263-0.898,4.434-2.499,6.035C465.234,455.635,463.063,456.534,460.8,456.533z"/>
	<g>
		<path style="fill:#F48B00;" d="M503.467,413.867V448c-0.022,28.268-22.932,51.178-51.2,51.2H59.733
			c-28.268-0.022-51.178-22.932-51.2-51.2v-51.2l25.259,12.629c5.356,2.542,11.625,2.254,16.725-0.768l8.704-5.803
			c5.571-3.328,12.519-3.328,18.091,0l7.509,4.949c5.571,3.328,12.52,3.328,18.091,0l7.509-4.949c5.571-3.328,12.52-3.328,18.091,0
			l7.509,4.949c5.571,3.328,12.52,3.328,18.091,0l7.509-4.949c5.571-3.328,12.519-3.328,18.091,0l7.509,4.949
			c5.571,3.328,12.52,3.328,18.091,0l7.509-4.949c5.571-3.328,12.52-3.328,18.091,0l7.509,4.949c5.571,3.328,12.52,3.328,18.091,0
			l7.509-4.949c5.571-3.328,12.519-3.328,18.091,0l7.509,4.949c5.571,3.328,12.52,3.328,18.091,0l7.509-4.949
			c5.571-3.328,12.52-3.328,18.091,0l7.509,4.949c5.571,3.328,12.52,3.328,18.091,0l7.509-4.949c5.571-3.328,12.52-3.328,18.091,0
			l7.509,4.949c5.571,3.328,12.52,3.328,18.091,0l7.509-4.949c5.571-3.328,12.52-3.328,18.091,0l7.509,4.949
			c5.571,3.328,12.52,3.328,18.091,0l7.509-4.949c5.571-3.328,12.52-3.328,18.091,0L503.467,413.867z"/>
		<path style="fill:#FFA300;" d="M503.467,439.467V448c-0.022,28.268-22.932,51.178-51.2,51.2H59.733
			c-28.268-0.022-51.178-22.932-51.2-51.2v-25.6l25.259,12.629c5.356,2.542,11.625,2.254,16.725-0.768l8.704-5.803
			c5.571-3.328,12.519-3.328,18.091,0l7.509,4.949c5.571,3.328,12.52,3.328,18.091,0l7.509-4.949c5.571-3.328,12.52-3.328,18.091,0
			l7.509,4.949c5.571,3.328,12.52,3.328,18.091,0l7.509-4.949c5.571-3.328,12.519-3.328,18.091,0l7.509,4.949
			c5.571,3.328,12.52,3.328,18.091,0l7.509-4.949c5.571-3.328,12.52-3.328,18.091,0l7.509,4.949c5.571,3.328,12.52,3.328,18.091,0
			l7.509-4.949c5.571-3.328,12.519-3.328,18.091,0l7.509,4.949c5.571,3.328,12.52,3.328,18.091,0l7.509-4.949
			c5.571-3.328,12.52-3.328,18.091,0l7.509,4.949c5.571,3.328,12.52,3.328,18.091,0l7.509-4.949c5.571-3.328,12.52-3.328,18.091,0
			l7.509,4.949c5.571,3.328,12.52,3.328,18.091,0l7.509-4.949c5.571-3.328,12.52-3.328,18.091,0l7.509,4.949
			c5.571,3.328,12.52,3.328,18.091,0l7.509-4.949c5.571-3.328,12.52-3.328,18.091,0L503.467,439.467z"/>
	</g>
	<g>
		<path id="SVGCleanerId_0_1_" style="fill:#D69564;" d="M290.133,482.133c-2.263,0.001-4.434-0.898-6.035-2.499
			c-1.6-1.6-2.499-3.771-2.499-6.035v-8.533c0-4.713,3.821-8.533,8.533-8.533c4.713,0,8.533,3.82,8.533,8.533v8.533
			c0.001,2.263-0.898,4.434-2.499,6.035C294.568,481.235,292.397,482.134,290.133,482.133z"/>
	</g>
	<g>
		<path id="SVGCleanerId_1_1_" style="fill:#D69564;" d="M324.267,456.533c-2.263,0.001-4.434-0.898-6.035-2.499
			c-1.6-1.6-2.499-3.771-2.499-6.035v-8.533c0-4.713,3.821-8.533,8.533-8.533s8.533,3.821,8.533,8.533V448
			c0.001,2.263-0.898,4.434-2.499,6.035C328.701,455.635,326.53,456.534,324.267,456.533z"/>
	</g>
	<g>
		<path id="SVGCleanerId_2_1_" style="fill:#D69564;" d="M358.4,482.133c-2.263,0.001-4.434-0.898-6.035-2.499
			c-1.6-1.6-2.499-3.771-2.499-6.035v-8.533c0-4.713,3.82-8.533,8.533-8.533s8.533,3.82,8.533,8.533v8.533
			c0.001,2.263-0.898,4.434-2.499,6.035C362.834,481.235,360.663,482.134,358.4,482.133L358.4,482.133z"/>
	</g>
	<g>
		<path id="SVGCleanerId_3_1_" style="fill:#D69564;" d="M392.533,456.533c-2.263,0.001-4.434-0.898-6.035-2.499
			c-1.6-1.6-2.499-3.771-2.499-6.035v-8.533c0-4.713,3.82-8.533,8.533-8.533s8.533,3.821,8.533,8.533V448
			c0.001,2.263-0.898,4.434-2.499,6.035C396.968,455.635,394.797,456.534,392.533,456.533z"/>
	</g>
	<g>
		<path id="SVGCleanerId_4_1_" style="fill:#D69564;" d="M426.667,482.133c-2.263,0.001-4.434-0.898-6.035-2.499
			c-1.6-1.6-2.499-3.771-2.499-6.035v-8.533c0-4.713,3.82-8.533,8.533-8.533s8.533,3.82,8.533,8.533v8.533
			c0.001,2.263-0.898,4.434-2.499,6.035C431.101,481.235,428.93,482.134,426.667,482.133z"/>
	</g>
	<g>
		<path id="SVGCleanerId_5_1_" style="fill:#D69564;" d="M460.8,456.533c-2.263,0.001-4.434-0.898-6.035-2.499
			c-1.6-1.6-2.499-3.771-2.499-6.035v-8.533c0-4.713,3.82-8.533,8.533-8.533s8.533,3.821,8.533,8.533V448
			c0.001,2.263-0.898,4.434-2.499,6.035C465.234,455.635,463.063,456.534,460.8,456.533z"/>
	</g>
	<g>
		<path style="fill:#388841;" d="M503.467,345.6v68.267l-16.555-11.008c-5.571-3.328-12.52-3.328-18.091,0l-7.509,4.949
			c-5.571,3.328-12.52,3.328-18.091,0l-7.509-4.949c-5.571-3.328-12.52-3.328-18.091,0l-7.509,4.949
			c-5.571,3.328-12.52,3.328-18.091,0l-7.509-4.949c-5.571-3.328-12.52-3.328-18.091,0l-7.509,4.949
			c-5.571,3.328-12.52,3.328-18.091,0l-7.509-4.949c-5.571-3.328-12.52-3.328-18.091,0l-7.509,4.949
			c-5.571,3.328-12.52,3.328-18.091,0l-7.509-4.949c-5.571-3.328-12.52-3.328-18.091,0l-7.509,4.949
			c-5.571,3.328-12.52,3.328-18.091,0l-7.509-4.949c-5.571-3.328-12.52-3.328-18.091,0l-7.509,4.949
			c-5.571,3.328-12.52,3.328-18.091,0l-7.509-4.949c-5.571-3.328-12.52-3.328-18.091,0l-7.509,4.949
			c-5.571,3.328-12.52,3.328-18.091,0l-7.509-4.949c-5.571-3.328-12.52-3.328-18.091,0l-7.509,4.949
			c-5.571,3.328-12.52,3.328-18.091,0l-7.509-4.949c-5.571-3.328-12.52-3.328-18.091,0l-8.704,5.803
			c-5.1,3.022-11.369,3.31-16.725,0.768L8.533,396.8v-51.2H503.467z"/>
		<path style="fill:#5AB462;" d="M503.467,345.6v42.667l-16.555-11.008c-5.571-3.328-12.52-3.328-18.091,0l-7.509,4.949
			c-5.571,3.328-12.52,3.328-18.091,0l-7.509-4.949c-5.571-3.328-12.52-3.328-18.091,0l-7.509,4.949
			c-5.571,3.328-12.52,3.328-18.091,0l-7.509-4.949c-5.571-3.328-12.52-3.328-18.091,0l-7.509,4.949
			c-5.571,3.328-12.52,3.328-18.091,0l-7.509-4.949c-5.571-3.328-12.52-3.328-18.091,0l-7.509,4.949
			c-5.571,3.328-12.52,3.328-18.091,0l-7.509-4.949c-5.571-3.328-12.52-3.328-18.091,0l-7.509,4.949
			c-5.571,3.328-12.52,3.328-18.091,0l-7.509-4.949c-5.571-3.328-12.52-3.328-18.091,0l-7.509,4.949
			c-5.571,3.328-12.52,3.328-18.091,0l-7.509-4.949c-5.571-3.328-12.52-3.328-18.091,0l-7.509,4.949
			c-5.571,3.328-12.52,3.328-18.091,0l-7.509-4.949c-5.571-3.328-12.52-3.328-18.091,0l-7.509,4.949
			c-5.571,3.328-12.52,3.328-18.091,0l-7.509-4.949c-5.571-3.328-12.52-3.328-18.091,0l-8.704,5.803
			c-5.1,3.022-11.369,3.31-16.725,0.768L8.533,371.2v-25.6H503.467z"/>
	</g>
	<g>
		<polyline style="fill:none;stroke:#000000;stroke-width:2;stroke-linecap:round;stroke-linejoin:round;" points="298.667,166.4 
			324.267,166.4 324.267,345.6 256,345.6 221.867,345.6 187.733,345.6 187.733,311.467 187.733,277.333 187.733,166.4 
			213.333,166.4 221.867,166.4 256,166.4 256,209.067 		"/>
		<path style="fill:none;stroke:#000000;stroke-width:2;stroke-linecap:round;stroke-linejoin:round;" d="M179.2,89.6h153.6
			c4.713,0,8.533,3.82,8.533,8.533v59.733c0,4.713-3.82,8.533-8.533,8.533H179.2c-4.713,0-8.533-3.821-8.533-8.533V98.133
			C170.667,93.421,174.487,89.6,179.2,89.6z"/>
		<path style="fill:none;stroke:#000000;stroke-width:2;stroke-linecap:round;stroke-linejoin:round;" d="M221.867,166.4v179.2"/>
		<path style="fill:none;stroke:#000000;stroke-width:2;stroke-linecap:round;stroke-linejoin:round;" d="M213.333,89.6v76.8"/>
		<path style="fill:none;stroke:#000000;stroke-width:2;stroke-linecap:round;stroke-linejoin:round;" d="M264.533,89.6v76.8"/>
		<polyline style="fill:none;stroke:#000000;stroke-width:2;stroke-linecap:round;stroke-linejoin:round;" points="256,345.6 
			256,209.067 256,166.4 		"/>
		<path style="fill:none;stroke:#000000;stroke-width:2;stroke-linecap:round;stroke-linejoin:round;" d="M187.733,277.333
			L170.667,294.4"/>
	</g>
	<g>
		<path style="fill:#B82B6A;" d="M503.467,183.467V345.6H187.733v-34.133L170.667,294.4l181.504-181.504l16.213-16.213
			c13.348-13.312,34.951-13.312,48.299,0L503.467,183.467z"/>
		<path style="fill:#AA44B9;" d="M469.333,209.067V345.6h-281.6v-34.133L170.667,294.4l181.504-181.504
			c11.055-2.075,22.421,1.437,30.379,9.387L469.333,209.067z"/>
		<g>
			<path style="fill:#DD5919;" d="M187.733,311.467V345.6H8.533l82.517-82.517c13.348-13.312,34.951-13.312,48.299,0l31.317,31.317
				L187.733,311.467z"/>
			<path style="fill:#DD5919;" d="M179.2,311.467V345.6H0l82.517-82.517c13.348-13.312,34.951-13.312,48.299,0l1.451,1.451
				L179.2,311.467z"/>
		</g>
		<polygon style="fill:#FF6E2C;" points="179.2,311.467 179.2,345.6 51.2,345.6 132.267,264.533 		"/>
		<polygon style="fill:#007B6F;" points="298.667,166.4 324.267,166.4 324.267,345.6 256,345.6 221.867,345.6 187.733,345.6 
			187.733,311.467 187.733,277.333 187.733,166.4 213.333,166.4 221.867,166.4 256,166.4 		"/>
		<path style="fill:#388841;" d="M179.2,89.6h153.6c4.713,0,8.533,3.82,8.533,8.533v59.733c0,4.713-3.82,8.533-8.533,8.533H179.2
			c-4.713,0-8.533-3.821-8.533-8.533V98.133C170.667,93.421,174.487,89.6,179.2,89.6z"/>
		<rect x="213.333" y="89.6" style="fill:#5AB462;" width="51.2" height="76.8"/>
		<polygon style="fill:#00A095;" points="256,166.4 256,209.067 256,345.6 221.867,345.6 221.867,166.4 		"/>
		<g>
			<path d="M51.2,430.933c-2.263-0.001-4.434,0.898-6.035,2.499c-1.6,1.6-2.499,3.771-2.499,6.035V448
				c0,4.713,3.821,8.533,8.533,8.533s8.533-3.82,8.533-8.533v-8.533c0.001-2.263-0.898-4.434-2.499-6.035
				C55.634,431.832,53.463,430.933,51.2,430.933L51.2,430.933z"/>
			<path d="M85.333,456.533c-2.263-0.001-4.434,0.898-6.035,2.499c-1.6,1.6-2.499,3.771-2.499,6.035v8.533
				c0,4.713,3.821,8.533,8.533,8.533s8.533-3.821,8.533-8.533v-8.533c0.001-2.263-0.898-4.434-2.499-6.035
				C89.768,457.432,87.597,456.533,85.333,456.533z"/>
			<path d="M119.467,430.933c-2.263-0.001-4.434,0.898-6.035,2.499s-2.499,3.771-2.499,6.035V448c0,4.713,3.821,8.533,8.533,8.533
				c4.713,0,8.533-3.82,8.533-8.533v-8.533c0.001-2.263-0.898-4.434-2.499-6.035C123.901,431.832,121.73,430.933,119.467,430.933
				L119.467,430.933z"/>
			<path d="M153.6,456.533c-2.263-0.001-4.434,0.898-6.035,2.499c-1.6,1.6-2.499,3.771-2.499,6.035v8.533
				c0,4.713,3.82,8.533,8.533,8.533s8.533-3.821,8.533-8.533v-8.533c0.001-2.263-0.898-4.434-2.499-6.035
				C158.034,457.432,155.863,456.533,153.6,456.533L153.6,456.533z"/>
			<path d="M187.733,430.933c-2.263-0.001-4.434,0.898-6.035,2.499c-1.6,1.6-2.499,3.771-2.499,6.035V448
				c0,4.713,3.821,8.533,8.533,8.533c4.713,0,8.533-3.82,8.533-8.533v-8.533c0.001-2.263-0.898-4.434-2.499-6.035
				S189.997,430.933,187.733,430.933L187.733,430.933z"/>
			<path d="M221.867,456.533c-2.263-0.001-4.434,0.898-6.035,2.499c-1.6,1.6-2.499,3.771-2.499,6.035v8.533
				c0,4.713,3.821,8.533,8.533,8.533c4.713,0,8.533-3.821,8.533-8.533v-8.533c0.001-2.263-0.898-4.434-2.499-6.035
				C226.301,457.432,224.13,456.533,221.867,456.533z"/>
			<path d="M256,430.933c-2.263-0.001-4.434,0.898-6.035,2.499c-1.6,1.6-2.499,3.771-2.499,6.035V448
				c0,4.713,3.821,8.533,8.533,8.533c4.713,0,8.533-3.82,8.533-8.533v-8.533c0.001-2.263-0.898-4.434-2.499-6.035
				S258.263,430.933,256,430.933L256,430.933z"/>
			<path d="M290.133,456.533c-2.263-0.001-4.434,0.898-6.035,2.499c-1.6,1.6-2.499,3.771-2.499,6.035v8.533
				c0,4.713,3.821,8.533,8.533,8.533c4.713,0,8.533-3.821,8.533-8.533v-8.533c0.001-2.263-0.898-4.434-2.499-6.035
				C294.568,457.432,292.397,456.533,290.133,456.533z"/>
			<path d="M324.267,430.933c-2.263-0.001-4.434,0.898-6.035,2.499s-2.499,3.771-2.499,6.035V448c0,4.713,3.821,8.533,8.533,8.533
				s8.533-3.82,8.533-8.533v-8.533c0.001-2.263-0.898-4.434-2.499-6.035C328.701,431.832,326.53,430.933,324.267,430.933
				L324.267,430.933z"/>
			<path d="M358.4,456.533c-2.263-0.001-4.434,0.898-6.035,2.499c-1.6,1.6-2.499,3.771-2.499,6.035v8.533
				c0,4.713,3.82,8.533,8.533,8.533s8.533-3.821,8.533-8.533v-8.533c0.001-2.263-0.898-4.434-2.499-6.035
				C362.834,457.432,360.663,456.533,358.4,456.533L358.4,456.533z"/>
			<path d="M392.533,430.933c-2.263-0.001-4.434,0.898-6.035,2.499c-1.6,1.6-2.499,3.771-2.499,6.035V448
				c0,4.713,3.82,8.533,8.533,8.533s8.533-3.82,8.533-8.533v-8.533c0.001-2.263-0.898-4.434-2.499-6.035
				C396.968,431.832,394.797,430.933,392.533,430.933L392.533,430.933z"/>
			<path d="M426.667,456.533c-2.263-0.001-4.434,0.898-6.035,2.499c-1.6,1.6-2.499,3.771-2.499,6.035v8.533
				c0,4.713,3.82,8.533,8.533,8.533s8.533-3.821,8.533-8.533v-8.533c0.001-2.263-0.898-4.434-2.499-6.035
				C431.101,457.432,428.93,456.533,426.667,456.533z"/>
			<path d="M460.8,430.933c-2.263-0.001-4.434,0.898-6.035,2.499c-1.6,1.6-2.499,3.771-2.499,6.035V448
				c0,4.713,3.82,8.533,8.533,8.533s8.533-3.82,8.533-8.533v-8.533c0.001-2.263-0.898-4.434-2.499-6.035
				C465.234,431.832,463.063,430.933,460.8,430.933L460.8,430.933z"/>
			<path d="M422.704,90.633C406.029,74,379.038,74,362.363,90.633l-12.496,12.498v-4.998c-0.011-9.421-7.645-17.056-17.067-17.067
				H179.2c-9.421,0.011-17.056,7.645-17.067,17.067v59.733c0.011,9.421,7.645,17.056,17.067,17.067V273.8l-8.532,8.532
				l-25.297-25.299c-16.675-16.633-43.666-16.633-60.342,0L2.507,339.559C0.913,341.167,0.012,343.336,0,345.6V448
				c0.038,32.974,26.759,59.695,59.733,59.733h392.533C485.241,507.695,511.962,480.974,512,448V183.467
				c0-2.263-0.899-4.434-2.5-6.033L422.704,90.633z M17.067,354.133h477.867v43.786l-3.279-2.186
				c-8.443-5.242-19.128-5.242-27.571,0l-7.504,5c-2.696,1.442-5.933,1.442-8.629,0l-7.496-5c-8.443-5.242-19.128-5.242-27.571,0
				l-7.504,5c-2.696,1.442-5.933,1.442-8.629,0l-7.496-5c-8.443-5.242-19.128-5.242-27.571,0l-7.504,5
				c-2.696,1.442-5.933,1.442-8.629,0l-7.496-5c-8.443-5.242-19.128-5.242-27.571,0l-7.504,5c-2.696,1.442-5.933,1.442-8.629,0
				l-7.496-5c-8.443-5.242-19.128-5.242-27.571,0l-7.504,5c-2.696,1.442-5.933,1.442-8.629,0l-7.496-5
				c-8.443-5.242-19.128-5.242-27.571,0l-7.504,5c-2.696,1.442-5.933,1.442-8.629,0l-7.496-5c-8.443-5.242-19.128-5.242-27.571,0
				l-7.504,5c-2.696,1.442-5.933,1.442-8.629,0l-7.496-5c-8.443-5.242-19.128-5.242-27.571,0l-7.504,5
				c-2.696,1.442-5.933,1.442-8.629,0l-7.495-5c-8.443-5.242-19.128-5.242-27.571,0l-8.695,5.8
				c-2.549,1.319-5.557,1.413-8.183,0.258l-20.538-10.267V354.133z M221.867,98.14L256,98.146v59.721h-34.133V98.14z
				 M298.667,174.933h17.067v162.133h-51.2V174.933H298.667z M247.467,174.933v162.133H230.4V174.933H247.467z M374.429,102.7
				c10.012-9.967,26.196-9.967,36.208,0l84.296,84.3v150.067H332.8V174.933c9.421-0.011,17.056-7.645,17.067-17.067v-30.601
				L374.429,102.7z M332.8,157.867h-59.733V98.148l59.733,0.01V157.867z M179.2,98.133l25.6,0.004v59.729h-25.6V98.133z
				 M213.333,174.933v162.133h-17.067V174.933H213.333z M97.096,269.1c10.012-9.967,26.196-9.967,36.208,0l31.326,31.329
				l0.003,0.004l0.004,0.003L179.2,315v22.067H29.133L97.096,269.1z M452.267,490.667H59.733
				C36.181,490.639,17.094,471.553,17.067,448v-37.393l12.904,6.451c8.101,3.896,17.629,3.397,25.279-1.325l8.704-5.8
				c2.699-1.429,5.93-1.429,8.629,0l7.496,5c8.443,5.242,19.128,5.242,27.571,0l7.504-5c2.699-1.429,5.93-1.429,8.629,0l7.496,5
				c8.443,5.242,19.128,5.242,27.571,0l7.504-5c2.699-1.429,5.93-1.429,8.629,0l7.496,5c8.443,5.242,19.128,5.242,27.571,0l7.504-5
				c2.699-1.429,5.93-1.429,8.629,0l7.496,5c8.443,5.242,19.128,5.242,27.571,0l7.504-5c2.699-1.429,5.93-1.429,8.629,0l7.496,5
				c8.443,5.242,19.128,5.242,27.571,0l7.504-5c2.699-1.429,5.93-1.429,8.629,0l7.496,5c8.443,5.242,19.128,5.242,27.571,0l7.504-5
				c2.699-1.429,5.93-1.429,8.629,0l7.496,5c8.443,5.242,19.128,5.242,27.571,0l7.504-5c2.699-1.429,5.93-1.429,8.629,0l7.496,5
				c8.443,5.242,19.128,5.242,27.571,0l7.504-5c2.699-1.429,5.93-1.429,8.629,0l12.747,8.5V448
				C494.906,471.553,475.819,490.639,452.267,490.667z"/>
		</g>
	</g>
</g>
<g>
</g>
<g>
</g>
<g>
</g>
<g>
</g>
<g>
</g>
<g>
</g>
<g>
</g>
<g>
</g>
<g>
</g>
<g>
</g>
<g>
</g>
<g>
</g>
<g>
</g>
<g>
</g>
<g>
</g>
</svg>
