<?xml version="1.0" encoding="iso-8859-1"?>
<!-- Generator: Adobe Illustrator 19.0.0, SVG Export Plug-In . SVG Version: 6.00 Build 0)  -->
<svg version="1.1" id="Capa_1" xmlns="http://www.w3.org/2000/svg" xmlns:xlink="http://www.w3.org/1999/xlink" x="0px" y="0px"
	 viewBox="0 0 512 512" style="enable-background:new 0 0 512 512;" xml:space="preserve">
<g>
	<path style="fill:#583EAB;" d="M486.4,8.533H25.6C16.186,8.561,8.561,16.186,8.533,25.6v460.8
		c0.028,9.414,7.653,17.039,17.067,17.067h460.8c9.414-0.028,17.039-7.653,17.067-17.067V25.6
		C503.439,16.186,495.814,8.561,486.4,8.533z"/>
	<path style="fill:#7B54BF;" d="M453.738,8.533H32.662c-8.999,0.45-15.956,8.064-15.595,17.067v460.8
		c-0.361,9.003,6.597,16.617,15.595,17.067h421.076c8.999-0.45,15.956-8.064,15.595-17.067V25.6
		C469.694,16.597,462.737,8.983,453.738,8.533z"/>
	<g>
		<polygon style="fill:#354A9F;" points="173.568,221.867 59.733,221.867 59.733,108.032 		"/>
		<polygon style="fill:#354A9F;" points="173.568,290.133 59.733,403.968 59.733,290.133 		"/>
		<polygon style="fill:#354A9F;" points="403.968,452.267 108.032,452.267 256,304.299 		"/>
		<polygon style="fill:#354A9F;" points="403.968,59.733 256,207.701 108.032,59.733 		"/>
		<polygon style="fill:#354A9F;" points="452.267,290.133 452.267,403.968 338.432,290.133 		"/>
		<polygon style="fill:#354A9F;" points="452.267,108.032 452.267,221.867 338.432,221.867 		"/>
	</g>
	<g>
		<polygon style="fill:#5068BD;" points="139.435,221.867 59.733,221.867 59.733,142.165 		"/>
		<polygon style="fill:#5068BD;" points="139.435,290.133 59.733,369.835 59.733,290.133 		"/>
		<polygon style="fill:#5068BD;" points="369.835,452.267 73.899,452.267 221.867,304.299 		"/>
		<polygon style="fill:#5068BD;" points="369.835,59.733 221.867,207.701 73.899,59.733 		"/>
		<polygon style="fill:#5068BD;" points="418.133,290.133 418.133,403.968 304.299,290.133 		"/>
		<polygon style="fill:#5068BD;" points="418.133,108.032 418.133,221.867 304.299,221.867 		"/>
	</g>
	<polygon style="fill:#F9D842;" points="452.267,108.032 338.432,221.867 452.267,221.867 452.267,290.133 338.432,290.133 
		452.267,403.968 452.267,452.267 403.968,452.267 256,304.299 108.032,452.267 59.733,452.267 59.733,403.968 173.568,290.133 
		59.733,290.133 59.733,221.867 173.568,221.867 59.733,108.032 59.733,59.733 108.032,59.733 238.933,190.635 256,207.701 
		403.968,59.733 452.267,59.733 	"/>
	<polygon style="fill:#FFE749;" points="418.133,108.032 304.299,221.867 418.133,221.867 418.133,290.133 304.299,290.133 
		418.133,403.968 418.133,452.267 403.968,452.267 256,304.299 238.933,321.365 221.867,304.299 73.899,452.267 59.733,452.267 
		59.733,403.968 173.568,290.133 59.733,290.133 59.733,221.867 173.568,221.867 59.733,108.032 59.733,59.733 73.899,59.733 
		221.867,207.701 238.933,190.635 256,207.701 403.968,59.733 418.133,59.733 	"/>
	<g>
		<path d="M486.4,0H25.6C11.468,0.015,0.015,11.468,0,25.6v460.8c0.015,14.132,11.468,25.585,25.6,25.6h460.8
			c14.132-0.015,25.585-11.468,25.6-25.6V25.6C511.985,11.468,500.532,0.015,486.4,0z M494.933,486.4
			c-0.003,4.712-3.822,8.53-8.533,8.533H25.6c-4.711-0.005-8.529-3.822-8.533-8.533V25.6c0.005-4.711,3.822-8.529,8.533-8.533h460.8
			c4.712,0.003,8.53,3.822,8.533,8.533V486.4z"/>
		<path d="M452.267,51.2H59.733c-2.263-0.001-4.434,0.898-6.035,2.499s-2.499,3.771-2.499,6.035v392.533
			c-0.001,2.263,0.898,4.434,2.499,6.035c1.6,1.6,3.771,2.499,6.035,2.499h392.533c2.264,0.001,4.435-0.897,6.035-2.498
			c1.601-1.601,2.499-3.772,2.498-6.035V59.733c0.001-2.264-0.897-4.435-2.498-6.035C456.701,52.097,454.53,51.199,452.267,51.2z
			 M443.733,383.367l-84.7-84.7h84.7V383.367z M443.733,213.333h-84.7l84.7-84.7V213.333z M256,195.633L128.633,68.267h254.733
			L256,195.633z M68.267,298.667h84.7l-84.7,84.7V298.667z M68.267,128.633l84.7,84.7h-84.7V128.633z M256,316.367l127.367,127.367
			H128.633L256,316.367z M407.5,443.733L262.033,298.267c-1.6-1.601-3.77-2.5-6.033-2.5s-4.433,0.899-6.033,2.5L104.5,443.733
			H68.267V407.5l111.326-111.326c2.433-2.443,3.16-6.108,1.842-9.295c-1.317-3.186-4.421-5.268-7.868-5.28h-105.3v-51.2h105.3
			c3.448-0.01,6.552-2.092,7.87-5.279c1.318-3.187,0.59-6.853-1.844-9.295L68.267,104.5V68.267H104.5l145.467,145.467
			c1.6,1.601,3.77,2.5,6.033,2.5c2.263,0,4.433-0.899,6.033-2.5L407.5,68.267h36.233V104.5L332.407,215.826
			c-2.433,2.443-3.16,6.108-1.842,9.295c1.317,3.186,4.42,5.268,7.868,5.28h105.3v51.2h-105.3c-3.448,0.011-6.552,2.093-7.869,5.279
			c-1.317,3.186-0.591,6.852,1.843,9.295L443.733,407.5v36.233H407.5z"/>
	</g>
</g>
<g>
</g>
<g>
</g>
<g>
</g>
<g>
</g>
<g>
</g>
<g>
</g>
<g>
</g>
<g>
</g>
<g>
</g>
<g>
</g>
<g>
</g>
<g>
</g>
<g>
</g>
<g>
</g>
<g>
</g>
</svg>
