<?xml version="1.0" encoding="iso-8859-1"?>
<!-- Generator: Adobe Illustrator 19.0.0, SVG Export Plug-In . SVG Version: 6.00 Build 0)  -->
<svg version="1.1" id="Capa_1" xmlns="http://www.w3.org/2000/svg" xmlns:xlink="http://www.w3.org/1999/xlink" x="0px" y="0px"
	 viewBox="0 0 512 512" style="enable-background:new 0 0 512 512;" xml:space="preserve">
<g>
	<polygon style="fill:#FFFFFF;" points="503.467,185.293 503.467,468.113 468.113,468.113 468.113,503.467 397.406,503.467 
		397.406,468.113 362.061,468.113 362.061,432.759 326.707,432.759 326.707,468.113 291.354,468.113 291.354,503.467 
		220.646,503.467 220.646,468.113 185.293,468.113 185.293,432.759 149.939,432.759 149.939,468.113 114.594,468.113 
		114.594,503.467 43.887,503.467 43.887,468.113 8.533,468.113 8.533,185.293 43.887,185.293 43.887,114.594 79.241,114.594 
		79.241,79.241 114.594,79.241 114.594,43.887 149.939,43.887 149.939,8.533 362.061,8.533 362.061,43.887 397.406,43.887 
		397.406,79.241 432.759,79.241 432.759,114.594 468.113,114.594 468.113,185.293 	"/>
	<rect id="SVGCleanerId_0" x="145.067" y="153.6" style="fill:#FFFFFF;" width="68.267" height="68.267"/>
	<rect id="SVGCleanerId_1" x="298.667" y="153.6" style="fill:#FFFFFF;" width="68.267" height="68.267"/>
	<rect id="SVGCleanerId_2" x="68.267" y="324.267" style="fill:#FFFFFF;" width="34.133" height="34.133"/>
	<rect id="SVGCleanerId_3" x="102.4" y="358.4" style="fill:#FFFFFF;" width="34.133" height="34.133"/>
	<rect id="SVGCleanerId_4" x="136.533" y="324.267" style="fill:#FFFFFF;" width="34.133" height="34.133"/>
	<rect id="SVGCleanerId_5" x="170.667" y="290.133" style="fill:#FFFFFF;" width="34.133" height="34.133"/>
	<rect id="SVGCleanerId_6" x="204.8" y="324.267" style="fill:#FFFFFF;" width="34.133" height="34.133"/>
	<rect id="SVGCleanerId_7" x="238.933" y="358.4" style="fill:#FFFFFF;" width="34.133" height="34.133"/>
	<rect id="SVGCleanerId_8" x="273.067" y="324.267" style="fill:#FFFFFF;" width="34.133" height="34.133"/>
	<rect id="SVGCleanerId_9" x="307.2" y="290.133" style="fill:#FFFFFF;" width="34.133" height="34.133"/>
	<rect id="SVGCleanerId_10" x="341.333" y="324.267" style="fill:#FFFFFF;" width="34.133" height="34.133"/>
	<rect id="SVGCleanerId_11" x="375.467" y="358.4" style="fill:#FFFFFF;" width="34.133" height="34.133"/>
	<rect id="SVGCleanerId_12" x="409.6" y="324.267" style="fill:#FFFFFF;" width="34.133" height="34.133"/>
	<polygon style="fill:#008F9B;" points="503.467,185.259 503.467,468.139 468.139,468.139 468.139,503.467 397.397,503.467 
		397.397,468.139 362.069,468.139 362.069,432.725 326.741,432.725 326.741,468.139 291.328,468.139 291.328,503.467 
		220.672,503.467 220.672,468.139 185.259,468.139 185.259,432.725 149.931,432.725 149.931,468.139 114.603,468.139 
		114.603,503.467 43.861,503.467 43.861,468.139 8.533,468.139 8.533,185.259 43.861,185.259 43.861,114.603 79.275,114.603 
		79.275,79.275 114.603,79.275 114.603,43.861 149.931,43.861 149.931,8.533 362.069,8.533 362.069,43.861 397.397,43.861 
		397.397,79.275 432.725,79.275 432.725,114.603 468.139,114.603 468.139,185.259 	"/>
	<polygon style="fill:#00C2D7;" points="469.333,185.259 469.333,468.139 434.005,468.139 434.005,503.467 397.397,503.467 
		397.397,468.139 362.069,468.139 362.069,432.725 292.608,432.725 292.608,468.139 257.195,468.139 257.195,503.467 
		220.672,503.467 220.672,468.139 185.259,468.139 185.259,432.725 115.797,432.725 115.797,468.139 80.469,468.139 80.469,503.467 
		43.861,503.467 43.861,468.139 8.533,468.139 8.533,185.259 43.861,185.259 43.861,114.603 79.275,114.603 79.275,79.275 
		114.603,79.275 114.603,43.861 149.931,43.861 149.931,8.533 327.936,8.533 327.936,43.861 363.264,43.861 363.264,79.275 
		398.592,79.275 398.592,114.603 434.005,114.603 434.005,185.259 	"/>
	<g>
		<rect id="SVGCleanerId_0_1_" x="145.067" y="153.6" style="fill:#FFFFFF;" width="68.267" height="68.267"/>
	</g>
	<g>
		<rect id="SVGCleanerId_1_1_" x="298.667" y="153.6" style="fill:#FFFFFF;" width="68.267" height="68.267"/>
	</g>
	<g>
		<rect id="SVGCleanerId_2_1_" x="68.267" y="324.267" style="fill:#FFFFFF;" width="34.133" height="34.133"/>
	</g>
	<g>
		<rect id="SVGCleanerId_3_1_" x="102.4" y="358.4" style="fill:#FFFFFF;" width="34.133" height="34.133"/>
	</g>
	<g>
		<rect id="SVGCleanerId_4_1_" x="136.533" y="324.267" style="fill:#FFFFFF;" width="34.133" height="34.133"/>
	</g>
	<g>
		<rect id="SVGCleanerId_5_1_" x="170.667" y="290.133" style="fill:#FFFFFF;" width="34.133" height="34.133"/>
	</g>
	<g>
		<rect id="SVGCleanerId_6_1_" x="204.8" y="324.267" style="fill:#FFFFFF;" width="34.133" height="34.133"/>
	</g>
	<g>
		<rect id="SVGCleanerId_7_1_" x="238.933" y="358.4" style="fill:#FFFFFF;" width="34.133" height="34.133"/>
	</g>
	<g>
		<rect id="SVGCleanerId_8_1_" x="273.067" y="324.267" style="fill:#FFFFFF;" width="34.133" height="34.133"/>
	</g>
	<g>
		<rect id="SVGCleanerId_9_1_" x="307.2" y="290.133" style="fill:#FFFFFF;" width="34.133" height="34.133"/>
	</g>
	<g>
		<rect id="SVGCleanerId_10_1_" x="341.333" y="324.267" style="fill:#FFFFFF;" width="34.133" height="34.133"/>
	</g>
	<g>
		<rect id="SVGCleanerId_11_1_" x="375.467" y="358.4" style="fill:#FFFFFF;" width="34.133" height="34.133"/>
	</g>
	<g>
		<rect id="SVGCleanerId_12_1_" x="409.6" y="324.267" style="fill:#FFFFFF;" width="34.133" height="34.133"/>
	</g>
	<g>
		<path d="M503.467,176.758H476.65v-62.167c0.001-2.264-0.897-4.435-2.498-6.035c-1.601-1.601-3.772-2.499-6.035-2.498h-26.825
			V79.242c0.001-2.264-0.897-4.435-2.498-6.035c-1.601-1.601-3.772-2.499-6.035-2.498h-26.817V43.883
			c0.001-2.264-0.897-4.435-2.498-6.035c-1.601-1.601-3.772-2.499-6.035-2.498h-26.817V8.533c0.001-2.264-0.897-4.435-2.498-6.035
			S364.322-0.001,362.058,0H149.942c-2.264-0.001-4.435,0.897-6.035,2.498c-1.601,1.601-2.499,3.772-2.498,6.035V35.35h-26.817
			c-2.264-0.001-4.435,0.897-6.035,2.498c-1.601,1.601-2.499,3.772-2.498,6.035v26.825H79.242c-2.264-0.001-4.435,0.897-6.035,2.498
			c-1.601,1.601-2.499,3.772-2.498,6.035v26.817H43.883c-2.264-0.001-4.435,0.897-6.035,2.498c-1.601,1.601-2.499,3.772-2.498,6.035
			v62.167H8.533c-2.264-0.001-4.435,0.897-6.035,2.498c-1.601,1.601-2.499,3.772-2.498,6.035v282.825
			c-0.001,2.264,0.897,4.435,2.498,6.035s3.772,2.499,6.035,2.498H35.35v26.817c-0.001,2.264,0.897,4.435,2.498,6.035
			c1.601,1.601,3.772,2.499,6.035,2.498h70.708c2.264,0.001,4.435-0.897,6.035-2.498c1.601-1.601,2.499-3.772,2.498-6.035V476.65
			h26.817c2.264,0.001,4.435-0.897,6.035-2.498c1.601-1.601,2.499-3.772,2.498-6.035v-26.825h18.283v26.825
			c-0.001,2.264,0.897,4.435,2.498,6.035c1.601,1.601,3.772,2.499,6.035,2.498h26.825v26.817c-0.001,2.264,0.897,4.435,2.498,6.035
			c1.601,1.601,3.772,2.499,6.035,2.498h70.7c2.264,0.001,4.435-0.897,6.035-2.498c1.601-1.601,2.499-3.772,2.498-6.035V476.65
			h26.825c2.264,0.001,4.435-0.897,6.035-2.498c1.601-1.601,2.499-3.772,2.498-6.035v-26.825h18.283v26.825
			c-0.001,2.264,0.897,4.435,2.498,6.035c1.601,1.601,3.772,2.499,6.035,2.498h26.817v26.817c-0.001,2.264,0.897,4.435,2.498,6.035
			c1.601,1.601,3.772,2.499,6.035,2.498h70.708c2.264,0.001,4.435-0.897,6.035-2.498c1.601-1.601,2.499-3.772,2.498-6.035V476.65
			h26.817c2.264,0.001,4.435-0.897,6.035-2.498c1.601-1.601,2.499-3.772,2.498-6.035V185.292c0.001-2.264-0.897-4.435-2.498-6.035
			C507.902,177.656,505.73,176.757,503.467,176.758L503.467,176.758z M494.933,459.583h-26.817
			c-2.264-0.001-4.435,0.897-6.035,2.498s-2.499,3.772-2.498,6.035v26.817h-53.642v-26.817c0.001-2.264-0.897-4.435-2.498-6.035
			s-3.772-2.499-6.035-2.498h-26.817v-26.825c0.001-2.264-0.897-4.435-2.498-6.035c-1.601-1.601-3.772-2.499-6.035-2.498h-35.35
			c-2.264-0.001-4.435,0.897-6.035,2.498c-1.601,1.601-2.499,3.772-2.498,6.035v26.825H291.35c-2.264-0.001-4.435,0.897-6.035,2.498
			s-2.499,3.772-2.498,6.035v26.817h-53.633v-26.817c0.001-2.264-0.897-4.435-2.498-6.035c-1.601-1.601-3.772-2.499-6.035-2.498
			h-26.825v-26.825c0.001-2.264-0.897-4.435-2.498-6.035c-1.601-1.601-3.772-2.499-6.035-2.498h-35.35
			c-2.264-0.001-4.435,0.897-6.035,2.498c-1.601,1.601-2.499,3.772-2.498,6.035v26.825h-26.817
			c-2.264-0.001-4.435,0.897-6.035,2.498c-1.601,1.601-2.499,3.772-2.498,6.035v26.817H52.417v-26.817
			c0.001-2.264-0.897-4.435-2.498-6.035s-3.772-2.499-6.035-2.498H17.067V193.825h26.817c2.264,0.001,4.435-0.897,6.035-2.498
			c1.601-1.601,2.499-3.772,2.498-6.035v-62.167h26.825c2.264,0.001,4.435-0.897,6.035-2.498c1.601-1.601,2.499-3.772,2.498-6.035
			V87.775h26.817c2.264,0.001,4.435-0.897,6.035-2.498c1.601-1.601,2.499-3.772,2.498-6.035V52.417h26.817
			c2.264,0.001,4.435-0.897,6.035-2.498c1.601-1.601,2.499-3.772,2.498-6.035V17.067h195.05v26.817
			c-0.001,2.264,0.897,4.435,2.498,6.035s3.772,2.499,6.035,2.498h26.817v26.825c-0.001,2.264,0.897,4.435,2.498,6.035
			c1.601,1.601,3.772,2.499,6.035,2.498h26.817v26.817c-0.001,2.264,0.897,4.435,2.498,6.035c1.601,1.601,3.772,2.499,6.035,2.498
			h26.825v62.167c-0.001,2.264,0.897,4.435,2.498,6.035c1.601,1.601,3.772,2.499,6.035,2.498h26.817V459.583z"/>
		<path d="M145.067,230.4h68.267c2.264,0.001,4.435-0.897,6.035-2.498s2.499-3.772,2.498-6.035V153.6
			c0.001-2.264-0.897-4.435-2.498-6.035s-3.772-2.499-6.035-2.498h-68.267c-2.264-0.001-4.435,0.897-6.035,2.498
			s-2.499,3.772-2.498,6.035v68.267c-0.001,2.264,0.897,4.435,2.498,6.035S142.803,230.401,145.067,230.4z M153.6,162.133h51.2v51.2
			h-51.2V162.133z"/>
		<path d="M298.667,230.4h68.267c2.264,0.001,4.435-0.897,6.035-2.498c1.601-1.601,2.499-3.772,2.498-6.035V153.6
			c0.001-2.264-0.897-4.435-2.498-6.035c-1.601-1.601-3.772-2.499-6.035-2.498h-68.267c-2.264-0.001-4.435,0.897-6.035,2.498
			c-1.601,1.601-2.499,3.772-2.498,6.035v68.267c-0.001,2.264,0.897,4.435,2.498,6.035
			C294.232,229.503,296.403,230.401,298.667,230.4z M307.2,162.133h51.2v51.2h-51.2V162.133z"/>
		<path d="M443.733,315.733H409.6c-2.264-0.001-4.435,0.897-6.035,2.498c-1.601,1.601-2.499,3.772-2.498,6.035v25.6H384v-25.6
			c0.001-2.264-0.897-4.435-2.498-6.035c-1.601-1.601-3.772-2.499-6.035-2.498h-25.6v-25.6c0.001-2.264-0.897-4.435-2.498-6.035
			c-1.601-1.601-3.772-2.499-6.035-2.498H307.2c-2.264-0.001-4.435,0.897-6.035,2.498c-1.601,1.601-2.499,3.772-2.498,6.035v25.6
			h-25.6c-2.264-0.001-4.435,0.897-6.035,2.498c-1.601,1.601-2.499,3.772-2.498,6.035v25.6h-17.067v-25.6
			c0.001-2.264-0.897-4.435-2.498-6.035c-1.601-1.601-3.772-2.499-6.035-2.498h-25.6v-25.6c0.001-2.264-0.897-4.435-2.498-6.035
			c-1.601-1.601-3.772-2.499-6.035-2.498h-34.133c-2.264-0.001-4.435,0.897-6.035,2.498c-1.601,1.601-2.499,3.772-2.498,6.035v25.6
			h-25.6c-2.264-0.001-4.435,0.897-6.035,2.498c-1.601,1.601-2.499,3.772-2.498,6.035v25.6h-17.067v-25.6
			c0.001-2.264-0.897-4.435-2.498-6.035c-1.601-1.601-3.772-2.499-6.035-2.498H68.267c-2.264-0.001-4.435,0.897-6.035,2.498
			c-1.601,1.601-2.499,3.772-2.498,6.035V358.4c-0.001,2.264,0.897,4.435,2.498,6.035c1.601,1.601,3.772,2.499,6.035,2.498h25.6
			v25.6c-0.001,2.264,0.897,4.435,2.498,6.035c1.601,1.601,3.772,2.499,6.035,2.498h34.133c2.264,0.001,4.435-0.897,6.035-2.498
			c1.601-1.601,2.499-3.772,2.498-6.035v-25.6h25.6c2.264,0.001,4.435-0.897,6.035-2.498c1.601-1.601,2.499-3.772,2.498-6.035v-25.6
			h17.067v25.6c-0.001,2.264,0.897,4.435,2.498,6.035c1.601,1.601,3.772,2.499,6.035,2.498h25.6v25.6
			c-0.001,2.264,0.897,4.435,2.498,6.035c1.601,1.601,3.772,2.499,6.035,2.498h34.133c2.264,0.001,4.435-0.897,6.035-2.498
			c1.601-1.601,2.499-3.772,2.498-6.035v-25.6h25.6c2.264,0.001,4.435-0.897,6.035-2.498c1.601-1.601,2.499-3.772,2.498-6.035v-25.6
			H332.8v25.6c-0.001,2.264,0.897,4.435,2.498,6.035c1.601,1.601,3.772,2.499,6.035,2.498h25.6v25.6
			c-0.001,2.264,0.897,4.435,2.498,6.035c1.601,1.601,3.772,2.499,6.035,2.498H409.6c2.264,0.001,4.435-0.897,6.035-2.498
			c1.601-1.601,2.499-3.772,2.498-6.035v-25.6h25.6c2.264,0.001,4.435-0.897,6.035-2.498c1.601-1.601,2.499-3.772,2.498-6.035
			v-34.133c0.001-2.264-0.897-4.435-2.498-6.035C448.168,316.631,445.997,315.732,443.733,315.733z M76.8,332.8h17.067v17.067H76.8
			V332.8z M128,384h-17.067v-17.067H128V384z M162.133,349.867h-17.067V332.8h17.067V349.867z M179.2,298.667h17.067v17.067H179.2
			V298.667z M213.333,332.8H230.4v17.067h-17.067V332.8z M264.533,384h-17.067v-17.067h17.067V384z M298.667,349.867H281.6V332.8
			h17.067V349.867z M315.733,298.667H332.8v17.067h-17.067V298.667z M349.867,332.8h17.067v17.067h-17.067V332.8z M401.067,384H384
			v-17.067h17.067V384z M435.2,349.867h-17.067V332.8H435.2V349.867z"/>
	</g>
</g>
<g>
</g>
<g>
</g>
<g>
</g>
<g>
</g>
<g>
</g>
<g>
</g>
<g>
</g>
<g>
</g>
<g>
</g>
<g>
</g>
<g>
</g>
<g>
</g>
<g>
</g>
<g>
</g>
<g>
</g>
</svg>
